<?xml version="1.0" encoding="UTF-8"?><svg id="Layer_1" xmlns="http://www.w3.org/2000/svg" width="466.1" height="106.1" viewBox="0 0 466.1 106.1"><defs><style>.cls-1{fill:#333;}.cls-2{opacity:.4;}.cls-3{fill:red;}</style></defs><path class="cls-3" d="m455.24,1H-1v106.1h414.73l50.2-91.91c3.51-6.43-1.24-14.2-8.68-14.2Zm6.54,16.23l-49.43,87.95H1.08V2.93h452.08c7.49,0,12.24,7.87,8.63,14.3Z"/><path d="m455.24,1H-1v106.1h414.73l50.2-91.91c3.51-6.43-1.24-14.2-8.68-14.2h0ZM1.08,105.17V2.93h452.08c7.49,0,12.24,7.87,8.63,14.3l-49.43,87.95H1.08Z"/><g class="cls-2"><path class="cls-1" d="m453.16,2.93H1.08v102.24h411.27l49.43-87.95c3.61-6.43-1.13-14.3-8.63-14.3Z"/></g></svg>