<?xml version="1.0" encoding="UTF-8"?><svg id="Layer_3" xmlns="http://www.w3.org/2000/svg" width="850" height="1030" viewBox="0 0 850 1030"><defs><style>.cls-1{opacity:.85;}.cls-2{fill:#1a1a1a;}</style></defs><path class="cls-2" d="m823.63.23H26.37C11.93.23.23,11.93.23,26.37v977.26c0,14.44,11.7,26.14,26.14,26.14h797.27c14.44,0,26.14-11.7,26.14-26.14V26.37c0-14.44-11.7-26.14-26.14-26.14Zm21.14,998.69c0,14.28-11.58,25.86-25.86,25.86H31.08c-14.28,0-25.86-11.58-25.86-25.86V31.09c0-14.28,11.58-25.86,25.86-25.86h787.83c14.28,0,25.86,11.58,25.86,25.86v967.83Z"/><path d="m823.63.23H26.37C11.93.23.23,11.93.23,26.37v977.26c0,14.44,11.7,26.14,26.14,26.14h797.27c14.44,0,26.14-11.7,26.14-26.14V26.37c0-14.44-11.7-26.14-26.14-26.14h0ZM31.08,1024.77c-14.28,0-25.86-11.58-25.86-25.86V31.09c0-14.28,11.58-25.86,25.86-25.86h787.83c14.28,0,25.86,11.58,25.86,25.86v967.83c0,14.28-11.58,25.86-25.86,25.86H31.08Z"/><g class="cls-1"><rect class="cls-2" x="5.23" y="5.23" width="839.55" height="1019.55" rx="25.86" ry="25.86"/></g></svg>