<?xml version="1.0" encoding="UTF-8"?><svg id="Layer_2" xmlns="http://www.w3.org/2000/svg" width="400" height="210" viewBox="0 0 400 210"><defs><style>.cls-1{fill:#fff35f;}.cls-2{fill:#ccc;}.cls-3{stroke-width:2.02px;}.cls-3,.cls-4{fill:none;stroke:#000;stroke-miterlimit:10;}.cls-4{stroke-width:2.13px;}</style></defs><path class="cls-2" d="m31.04,208.65c-14.2-.87-25.49-12.84-25.49-27.43V29.5C5.55,14.34,17.72,2.01,32.69,2.01h336.05c5.25,0,10.33,1.53,14.68,4.36-1.32-.18-2.65-.27-3.99-.27H44.14c-16.16,0-29.41,13.29-29.55,29.62,0,.04,0,.14,0,.27v145.86c0,11.51,6.54,21.85,16.45,26.8Z"/><path d="m368.75,3.02c3.51,0,6.95.71,10.12,2.06H44.14c-16.68,0-30.36,13.68-30.56,30.55,0,.12-.01.23-.01.36v145.86c0,10.09,4.87,19.31,12.6,25.01-11.27-2.94-19.62-13.32-19.62-25.64V29.5C6.56,14.9,18.28,3.02,32.69,3.02h336.05m0-2.02H32.69C17.14,1,4.53,13.76,4.53,29.5v151.72c0,15.74,12.61,28.5,28.16,28.5h3.93c-12.12-3.33-21.03-14.55-21.03-27.87V35.99c0-.09,0-.16.01-.25h0c.13-15.84,12.86-28.63,28.53-28.63h335.29c2.83,0,5.56.42,8.15,1.2-4.98-4.54-11.59-7.31-18.83-7.31h0Z"/><path class="cls-1" d="m36.77,208.7c-11.87-3.33-20.15-14.35-20.15-26.85V35.99c0-.05,0-.09,0-.15v-.11c.13-15.23,12.48-27.62,27.53-27.62h335.29c2.6,0,5.17.37,7.64,1.09,5.61,5.21,8.83,12.59,8.83,20.28v151.72c0,15.16-12.18,27.49-27.15,27.49H36.77Z"/><path d="m379.43,9.13c2.42,0,4.82.33,7.12.99,5.3,5.01,8.33,12.04,8.33,19.38v151.72c0,14.6-11.72,26.47-26.14,26.47H36.91c-11.37-3.25-19.28-13.83-19.28-25.84V35.96s0-.11,0-.11v-.1c.12-14.67,12.01-26.61,26.51-26.61h335.29m0-2.02H44.14c-15.67,0-28.4,12.79-28.53,28.62h0c-.01.1-.01.17-.01.26v145.86c0,13.32,8.9,24.54,21.03,27.87h332.12c15.55,0,28.16-12.76,28.16-28.5V29.5c0-8.41-3.6-15.96-9.33-21.19-2.59-.78-5.32-1.2-8.15-1.2h0Z"/><line class="cls-4" x1="5.04" y1="172.55" x2="16.61" y2="182.22"/><line class="cls-3" x1="16.59" y1="36.63" x2="15.61" y2="35.74"/><line class="cls-3" x1="15.61" y1="35.73" x2="5.54" y2="26.45"/><line class="cls-3" x1="44.64" y1="1.96" x2="56.85" y2="8.13"/><line class="cls-3" x1="350.63" y1="2.02" x2="361.7" y2="8.13"/><path d="m109.95,106.73c0,3.91.1,9.79.29,17.65.2,7.85.29,13.74.29,17.65,0,.66-.15,1.08-.44,1.24-.07.03-.49.1-1.28.2-2.13.26-4.98.4-8.55.4-4.78,0-7.83-.13-9.14-.4-.95-.2-1.42-.71-1.42-1.54,0,.53.15-2.39.44-8.75.59-13.42.88-22.24.88-26.45,0-3.55-.12-8.87-.34-15.96-.23-7.09-.34-12.41-.34-15.96,0-.73.38-1.09,1.13-1.09,1.02,0,2.55.05,4.59.15,2.05.1,3.58.15,4.59.15s2.51-.05,4.5-.15c1.98-.1,3.48-.15,4.5-.15.95,0,1.42.37,1.42,1.09,0,3.55-.19,8.87-.56,15.96-.38,7.09-.56,12.41-.56,15.96Z"/><path d="m185.7,75.27c0,3.78-.16,9.46-.47,17.03-.31,7.57-.47,13.27-.47,17.08v32.76c0,.9-.48,1.34-1.42,1.34-.79,0-1.97.03-3.56.1-1.59.07-2.78.1-3.56.1-.85,0-2.13-.07-3.83-.2-1.7-.13-2.98-.2-3.83-.2-.59,0-1.29-.55-2.11-1.64-2.36-3.21-7.66-10.34-15.92-21.38-2.26-3.08-5.7-7.62-10.32-13.62-.13-.2-.38-.4-.74-.6-.26.23-.39.6-.39,1.09,0,3.84.11,9.61.32,17.3.21,7.69.32,13.46.32,17.3,0,1.16-.44,1.74-1.33,1.74h-17c-.95,0-1.42-.51-1.42-1.54,0-3.58.17-8.98.52-16.21.34-7.22.52-12.64.52-16.26,0-3.81-.16-9.51-.47-17.1-.31-7.59-.47-13.27-.47-17.05,0-.73.64-1.09,1.92-1.09,1.9,0,4.24-.13,7.02-.4.65-.07,1.95-.28,3.88-.65,1.64-.3,2.93-.45,3.88-.45.39,0,1,.56,1.82,1.69l18.32,25.4c1.64,2.29,4.11,5.63,7.42,10.04.82,1.03,1.52,1.54,2.11,1.54.43,0,.64-1.29.64-3.88,0-3.48-.19-8.71-.56-15.71-.38-6.99-.56-12.25-.56-15.76,0-1.23.34-1.84,1.03-1.84,1.97,0,4.93-.08,8.89-.25,3.96-.17,6.93-.25,8.89-.25.62,0,.93.51.93,1.54Z"/><path d="m245.58,89.93c0,.37-.33.55-.98.55-2.46,0-6.18-.21-11.18-.65-4.99-.43-8.74-.65-11.23-.65-3.14,0-4.98.12-5.5.35-1.21.56-1.82,2.16-1.82,4.77,0,3.15.79,4.94,2.36,5.37.65.17,1.65.25,3,.25,2.26,0,5.64-.12,10.14-.37,4.5-.25,7.88-.37,10.14-.37,1.08,0,1.62,2.92,1.62,8.75,0,5.07-.18,8.02-.54,8.85-.23.6-.67.9-1.33.9.43,0-.61-.12-3.1-.35-3.5-.33-8.81-.5-15.92-.5-2.29,0-3.59.02-3.88.05-1.67.27-2.51.98-2.51,2.14,0,4.71.2,10.12.59,16.26.33,5.54.49,8,.49,7.41,0,.86-1.03,1.36-3.09,1.49.56-.03-.9-.05-4.37-.05-6.12,0-10.07-.22-11.84-.65-.95-.23-1.42-.75-1.42-1.54,0-3.68.12-9.21.37-16.58.25-7.37.37-12.9.37-16.58,0-4.37-.2-9.88-.59-16.5-.59-10.24-.9-15.74-.93-16.5l-.05-.6c-.03-.83.46-1.24,1.47-1.24,2.42,0,6.08.05,10.98.15,4.9.1,8.57.15,11.03.15,2.62,0,6.56-.2,11.81-.6,5.26-.4,9.19-.6,11.81-.6,1.64,0,2.55.68,2.75,2.04,0,1.42.07,3.56.2,6.41.07.73.28,2.14.64,4.23.33,1.82.49,3.23.49,4.23Z"/><path d="m319.61,108.67c0,10.34-3.26,19.01-9.78,26-6.65,7.09-15.07,10.64-25.25,10.64s-18.52-3.58-25.2-10.74c-6.55-6.99-9.82-15.63-9.82-25.9s3.27-18.97,9.82-26c6.68-7.19,15.08-10.79,25.2-10.79s18.44,3.6,25.15,10.79c6.58,7.09,9.87,15.76,9.87,26Zm-18.62-.1c0-4.97-1.49-9.2-4.47-12.68-3.11-3.64-7.09-5.47-11.94-5.47s-8.53,1.89-11.74,5.67c-3.11,3.65-4.67,7.84-4.67,12.58,0,5.07,1.46,9.3,4.37,12.68,3.08,3.55,7.09,5.32,12.04,5.32,4.62,0,8.55-1.87,11.79-5.62,3.08-3.58,4.62-7.74,4.62-12.48Z"/></svg>