<?xml version="1.0" encoding="UTF-8"?><svg id="Layer_5" xmlns="http://www.w3.org/2000/svg" width="310" height="260" viewBox="0 0 310 260"><defs><style>.cls-1{fill:#c1272d;stroke:#000;stroke-miterlimit:10;stroke-width:1px;}</style></defs><path class="cls-1" d="m155,254.62C68.32,179.18,12.74,117.62,7.7,97.88c-3.2-12.53-1.97-24.12-1.97-24.12.27-2.5,1.77-15.24,9.87-28.58,2.83-4.67,20.17-32.02,57.23-38.41,33.61-5.8,58.87,9.94,64.14,13.4,7.74,5.08,13.61,10.78,18.03,16.16"/><path class="cls-1" d="m155,254.62c86.68-75.44,142.27-137,147.3-156.74,3.19-12.53,1.97-24.12,1.97-24.12-.27-2.5-1.78-15.24-9.87-28.58-2.84-4.67-20.18-32.02-57.23-38.41-33.62-5.8-58.88,9.94-64.14,13.4-7.74,5.08-13.62,10.78-18.03,16.16-5.56,6.77-8.82,13.03-10.59,16.89"/></svg>