<?xml version="1.0" encoding="UTF-8"?><svg xmlns="http://www.w3.org/2000/svg" width="1920" height="1080" xmlns:xlink="http://www.w3.org/1999/xlink" viewBox="0 0 1920 1080"><defs><style>.cls-1{clip-path:url(#clippath-45);}.cls-2{clip-path:url(#clippath-20);}.cls-3{clip-path:url(#clippath-11);}.cls-4{clip-path:url(#clippath-16);}.cls-5{clip-path:url(#clippath-59);}.cls-6{clip-path:url(#clippath-33);}.cls-7{clip-path:url(#clippath-47);}.cls-8{clip-path:url(#clippath-41);}.cls-9{clip-path:url(#clippath-32);}.cls-10{clip-path:url(#clippath-2);}.cls-11{clip-path:url(#clippath-13);}.cls-12{clip-path:url(#clippath-37);}.cls-13{clip-path:url(#clippath-46);}.cls-14{clip-path:url(#clippath-25);}.cls-15{clip-path:url(#clippath-15);}.cls-16{clip-path:url(#clippath-6);}.cls-17{clip-path:url(#clippath-40);}.cls-18{clip-path:url(#clippath-26);}.cls-19{clip-path:url(#clippath-7);}.cls-20{clip-path:url(#clippath-21);}.cls-21{fill:#006837;}.cls-22{clip-path:url(#clippath-34);}.cls-23{clip-path:url(#clippath-57);}.cls-24{clip-path:url(#clippath-1);}.cls-25{clip-path:url(#clippath-4);}.cls-26{clip-path:url(#clippath-38);}.cls-27{clip-path:url(#clippath-36);}.cls-28{clip-path:url(#clippath-27);}.cls-29{stroke:#000;stroke-miterlimit:10;stroke-width:3px;}.cls-29,.cls-30{fill:none;}.cls-31{clip-path:url(#clippath-60);}.cls-32{clip-path:url(#clippath-44);}.cls-33{clip-path:url(#clippath-12);}.cls-34{clip-path:url(#clippath-24);}.cls-35{clip-path:url(#clippath-30);}.cls-36{clip-path:url(#clippath-22);}.cls-37{clip-path:url(#clippath-9);}.cls-38{clip-path:url(#clippath-52);}.cls-39{clip-path:url(#clippath);}.cls-40{clip-path:url(#clippath-50);}.cls-41{clip-path:url(#clippath-48);}.cls-42{clip-path:url(#clippath-39);}.cls-43{clip-path:url(#clippath-19);}.cls-44{clip-path:url(#clippath-31);}.cls-45{clip-path:url(#clippath-54);}.cls-46{clip-path:url(#clippath-3);}.cls-47{fill:#ccc;}.cls-48{clip-path:url(#clippath-43);}.cls-49{clip-path:url(#clippath-8);}.cls-50{clip-path:url(#clippath-55);}.cls-51{clip-path:url(#clippath-29);}.cls-52{clip-path:url(#clippath-18);}.cls-53{clip-path:url(#clippath-14);}.cls-54{clip-path:url(#clippath-17);}.cls-55{clip-path:url(#clippath-5);}.cls-56{clip-path:url(#clippath-58);}.cls-57{clip-path:url(#clippath-42);}.cls-58{clip-path:url(#clippath-10);}.cls-59{clip-path:url(#clippath-23);}.cls-60{clip-path:url(#clippath-56);}.cls-61{clip-path:url(#clippath-53);}.cls-62{clip-path:url(#clippath-49);}.cls-63{clip-path:url(#clippath-51);}.cls-64{clip-path:url(#clippath-28);}.cls-65{clip-path:url(#clippath-35);}.cls-66{fill:#fcee21;}</style><clipPath id="clippath"><rect class="cls-30" width="1920" height="1080"/></clipPath><clipPath id="clippath-1"><rect class="cls-30" width="1920" height="1080"/></clipPath><clipPath id="clippath-2"><rect class="cls-30" width="1920" height="1080"/></clipPath><clipPath id="clippath-3"><rect class="cls-30" width="1920" height="1080"/></clipPath><clipPath id="clippath-4"><rect class="cls-30" width="1920" height="1080"/></clipPath><clipPath id="clippath-5"><rect class="cls-30" width="1920" height="1080"/></clipPath><clipPath id="clippath-6"><rect class="cls-30" width="1920" height="1080"/></clipPath><clipPath id="clippath-7"><rect class="cls-30" width="1920" height="1080"/></clipPath><clipPath id="clippath-8"><rect class="cls-30" width="1920" height="1080"/></clipPath><clipPath id="clippath-9"><rect class="cls-30" width="1920" height="1080"/></clipPath><clipPath id="clippath-10"><rect class="cls-30" width="1920" height="1080"/></clipPath><clipPath id="clippath-11"><rect class="cls-30" width="1920" height="1080"/></clipPath><clipPath id="clippath-12"><rect class="cls-30" width="1920" height="1080"/></clipPath><clipPath id="clippath-13"><rect class="cls-30" width="1920" height="1080"/></clipPath><clipPath id="clippath-14"><rect class="cls-30" width="1920" height="1080"/></clipPath><clipPath id="clippath-15"><rect class="cls-30" width="1920" height="1080"/></clipPath><clipPath id="clippath-16"><rect class="cls-30" width="1920" height="1080"/></clipPath><clipPath id="clippath-17"><rect class="cls-30" width="1920" height="1080"/></clipPath><clipPath id="clippath-18"><rect class="cls-30" width="1920" height="1080"/></clipPath><clipPath id="clippath-19"><rect class="cls-30" width="1920" height="1080"/></clipPath><clipPath id="clippath-20"><rect class="cls-30" width="1920" height="1080"/></clipPath><clipPath id="clippath-21"><rect class="cls-30" width="1920" height="1080"/></clipPath><clipPath id="clippath-22"><rect class="cls-30" width="1920" height="1080"/></clipPath><clipPath id="clippath-23"><rect class="cls-30" width="1920" height="1080"/></clipPath><clipPath id="clippath-24"><rect class="cls-30" width="1920" height="1080"/></clipPath><clipPath id="clippath-25"><rect class="cls-30" width="1920" height="1080"/></clipPath><clipPath id="clippath-26"><rect class="cls-30" width="1920" height="1080"/></clipPath><clipPath id="clippath-27"><rect class="cls-30" width="1920" height="1080"/></clipPath><clipPath id="clippath-28"><rect class="cls-30" width="1920" height="1080"/></clipPath><clipPath id="clippath-29"><rect class="cls-30" width="1920" height="1080"/></clipPath><clipPath id="clippath-30"><rect class="cls-30" width="1920" height="1080"/></clipPath><clipPath id="clippath-31"><rect class="cls-30" width="1920" height="1080"/></clipPath><clipPath id="clippath-32"><rect class="cls-30" width="1920" height="1080"/></clipPath><clipPath id="clippath-33"><rect class="cls-30" width="1920" height="1080"/></clipPath><clipPath id="clippath-34"><rect class="cls-30" width="1920" height="1080"/></clipPath><clipPath id="clippath-35"><rect class="cls-30" width="1920" height="1080"/></clipPath><clipPath id="clippath-36"><rect class="cls-30" width="1920" height="1080"/></clipPath><clipPath id="clippath-37"><rect class="cls-30" width="1920" height="1080"/></clipPath><clipPath id="clippath-38"><rect class="cls-30" width="1920" height="1080"/></clipPath><clipPath id="clippath-39"><rect class="cls-30" width="1920" height="1080"/></clipPath><clipPath id="clippath-40"><rect class="cls-30" width="1920" height="1080"/></clipPath><clipPath id="clippath-41"><rect class="cls-30" width="1920" height="1080"/></clipPath><clipPath id="clippath-42"><rect class="cls-30" width="1920" height="1080"/></clipPath><clipPath id="clippath-43"><rect class="cls-30" width="1920" height="1080"/></clipPath><clipPath id="clippath-44"><rect class="cls-30" width="1920" height="1080"/></clipPath><clipPath id="clippath-45"><rect class="cls-30" width="1920" height="1080"/></clipPath><clipPath id="clippath-46"><rect class="cls-30" width="1920" height="1080"/></clipPath><clipPath id="clippath-47"><rect class="cls-30" width="1920" height="1080"/></clipPath><clipPath id="clippath-48"><rect class="cls-30" width="1920" height="1080"/></clipPath><clipPath id="clippath-49"><rect class="cls-30" width="1920" height="1080"/></clipPath><clipPath id="clippath-50"><rect class="cls-30" width="1920" height="1080"/></clipPath><clipPath id="clippath-51"><rect class="cls-30" width="1920" height="1080"/></clipPath><clipPath id="clippath-52"><rect class="cls-30" width="1920" height="1080"/></clipPath><clipPath id="clippath-53"><rect class="cls-30" width="1920" height="1080"/></clipPath><clipPath id="clippath-54"><rect class="cls-30" width="1920" height="1080"/></clipPath><clipPath id="clippath-55"><rect class="cls-30" width="1920" height="1080"/></clipPath><clipPath id="clippath-56"><rect class="cls-30" width="1920" height="1080"/></clipPath><clipPath id="clippath-57"><rect class="cls-30" width="1920" height="1080"/></clipPath><clipPath id="clippath-58"><rect class="cls-30" width="1920" height="1080"/></clipPath><clipPath id="clippath-59"><rect class="cls-30" width="1920" height="1080"/></clipPath><clipPath id="clippath-60"><rect class="cls-30" width="1920" height="1080"/></clipPath></defs><g id="Layer_1"><g class="cls-39"><polygon class="cls-47" points="1680 320 1920 560 1920 480 1720 280 1680 320"/><g class="cls-24"><polygon class="cls-29" points="1920 480 1920 560 1680 320 1720 280 1920 480"/></g><polygon class="cls-47" points="1820 660 1860 700 1920 640 1920 560 1820 660"/><g class="cls-10"><polygon class="cls-29" points="1820 660 1920 560 1920 640 1860 700 1820 660"/></g><polygon class="cls-47" points="1680 600 1920 840 1920 760 1720 560 1680 600"/><g class="cls-46"><polygon class="cls-29" points="1920 760 1920 840 1680 600 1720 560 1920 760"/></g><polygon class="cls-47" points="1820 940 1860 980 1920 920 1920 840 1820 940"/><g class="cls-25"><polygon class="cls-29" points="1820 940 1920 840 1920 920 1860 980 1820 940"/></g><rect class="cls-47" x="381.72" y="226.15" width="56.57" height="367.7" transform="translate(-169.83 410) rotate(-45)"/><rect class="cls-29" x="381.72" y="226.15" width="56.57" height="367.7" transform="translate(-169.83 410) rotate(-45)"/><polygon class="cls-47" points="0 0 0 40 220 260 260 220 40 0 0 0"/><g class="cls-55"><polygon class="cls-29" points="260 220 220 260 0 40 0 0 40 0 260 220"/></g><rect class="cls-47" x="661.72" y="226.15" width="56.57" height="367.7" transform="translate(-87.82 607.99) rotate(-45)"/><rect class="cls-29" x="661.72" y="226.15" width="56.57" height="367.7" transform="translate(-87.82 607.99) rotate(-45)"/><polygon class="cls-47" points="200 0 120 80 160 120 260 20 500 260 540 220 320 0 200 0"/><g class="cls-16"><polygon class="cls-29" points="540 220 500 260 260 20 160 120 120 80 200 0 320 0 540 220"/></g><rect class="cls-47" x="390.29" y="531.72" width="339.41" height="56.57" transform="translate(-231.96 560) rotate(-45)"/><rect class="cls-29" x="390.29" y="531.72" width="339.41" height="56.57" transform="translate(-231.96 560) rotate(-45)"/><rect class="cls-47" x="670.29" y="531.72" width="339.41" height="56.57" transform="translate(-149.95 757.99) rotate(-45)"/><rect class="cls-29" x="670.29" y="531.72" width="339.41" height="56.57" transform="translate(-149.95 757.99) rotate(-45)"/><rect class="cls-47" x="951.72" y="250.29" width="56.57" height="339.41" transform="translate(-9.95 815.98) rotate(-45)"/><rect class="cls-29" x="951.72" y="250.29" width="56.57" height="339.41" transform="translate(-9.95 815.98) rotate(-45)"/><rect class="cls-21" x="479.29" y="325.15" width="141.42" height="169.71" transform="translate(-128.82 508.99) rotate(-45)"/><rect class="cls-29" x="479.29" y="325.15" width="141.42" height="169.71" transform="translate(-128.82 508.99) rotate(-45)"/><rect class="cls-47" x="370.29" y="231.72" width="339.41" height="56.57" transform="translate(-25.69 457.99) rotate(-45)"/><rect class="cls-29" x="370.29" y="231.72" width="339.41" height="56.57" transform="translate(-25.69 457.99) rotate(-45)"/><rect class="cls-21" x="469.29" y="49.29" width="141.42" height="141.42" transform="translate(73.31 416.98) rotate(-45)"/><rect class="cls-29" x="469.29" y="49.29" width="141.42" height="141.42" transform="translate(73.31 416.98) rotate(-45)"/><polygon class="cls-47" points="480 0 400 80 440 120 540 20 800 280 840 240 600 0 480 0"/><g class="cls-19"><polygon class="cls-29" points="840 240 800 280 540 20 440 120 400 80 480 0 600 0 840 240"/></g><rect class="cls-47" x="1231.72" y="530.29" width="56.57" height="339.41" transform="translate(-125.93 1095.98) rotate(-45)"/><rect class="cls-29" x="1231.72" y="530.29" width="56.57" height="339.41" transform="translate(-125.93 1095.98) rotate(-45)"/><rect class="cls-47" x="950.29" y="531.72" width="339.41" height="56.57" transform="translate(-67.94 955.98) rotate(-45)"/><rect class="cls-29" x="950.29" y="531.72" width="339.41" height="56.57" transform="translate(-67.94 955.98) rotate(-45)"/><rect class="cls-47" x="1231.72" y="250.29" width="56.57" height="339.41" transform="translate(72.06 1013.97) rotate(-45)"/><rect class="cls-29" x="1231.72" y="250.29" width="56.57" height="339.41" transform="translate(72.06 1013.97) rotate(-45)"/><polygon class="cls-47" points="760 0 680 80 720 120 820 20 1080 280 1120 240 880 0 760 0"/><g class="cls-49"><polygon class="cls-29" points="1120 240 1080 280 820 20 720 120 680 80 760 0 880 0 1120 240"/></g><rect class="cls-47" x="1511.72" y="250.29" width="56.57" height="339.41" transform="translate(154.07 1211.96) rotate(-45)"/><rect class="cls-29" x="1511.72" y="250.29" width="56.57" height="339.41" transform="translate(154.07 1211.96) rotate(-45)"/><rect class="cls-21" x="1049.29" y="349.29" width="141.42" height="141.42" transform="translate(31.06 914.97) rotate(-45)"/><rect class="cls-29" x="1049.29" y="349.29" width="141.42" height="141.42" transform="translate(31.06 914.97) rotate(-45)"/><rect class="cls-47" x="950.29" y="251.72" width="339.41" height="56.57" transform="translate(130.05 873.97) rotate(-45)"/><rect class="cls-29" x="950.29" y="251.72" width="339.41" height="56.57" transform="translate(130.05 873.97) rotate(-45)"/><rect class="cls-21" x="1049.29" y="69.29" width="141.42" height="141.42" transform="translate(229.05 832.96) rotate(-45)"/><rect class="cls-29" x="1049.29" y="69.29" width="141.42" height="141.42" transform="translate(229.05 832.96) rotate(-45)"/><polygon class="cls-47" points="1080 0 980 100 1020 140 1120 40 1360 280 1400 240 1160 0 1080 0"/><g class="cls-37"><polygon class="cls-29" points="1400 240 1360 280 1120 40 1020 140 980 100 1080 0 1160 0 1400 240"/></g><rect class="cls-21" x="1189.29" y="489.29" width="141.42" height="141.42" transform="translate(-26.93 1054.97) rotate(-45)"/><rect class="cls-29" x="1189.29" y="489.29" width="141.42" height="141.42" transform="translate(-26.93 1054.97) rotate(-45)"/><rect class="cls-47" x="1230.29" y="531.72" width="339.41" height="56.57" transform="translate(14.07 1153.97) rotate(-45)"/><rect class="cls-29" x="1230.29" y="531.72" width="339.41" height="56.57" transform="translate(14.07 1153.97) rotate(-45)"/><rect class="cls-47" x="381.72" y="506.15" width="56.57" height="367.7" transform="translate(-367.82 492.01) rotate(-45)"/><rect class="cls-29" x="381.72" y="506.15" width="56.57" height="367.7" transform="translate(-367.82 492.01) rotate(-45)"/><rect class="cls-21" x="1329.29" y="349.29" width="141.42" height="141.42" transform="translate(113.07 1112.96) rotate(-45)"/><rect class="cls-29" x="1329.29" y="349.29" width="141.42" height="141.42" transform="translate(113.07 1112.96) rotate(-45)"/><rect class="cls-21" x="1189.29" y="209.29" width="141.42" height="141.42" transform="translate(171.06 972.96) rotate(-45)"/><rect class="cls-29" x="1189.29" y="209.29" width="141.42" height="141.42" transform="translate(171.06 972.96) rotate(-45)"/><rect class="cls-47" x="1230.29" y="251.72" width="339.41" height="56.57" transform="translate(212.06 1071.96) rotate(-45)"/><rect class="cls-29" x="1230.29" y="251.72" width="339.41" height="56.57" transform="translate(212.06 1071.96) rotate(-45)"/><rect class="cls-21" x="1329.29" y="69.29" width="141.42" height="141.42" transform="translate(311.06 1030.95) rotate(-45)"/><rect class="cls-29" x="1329.29" y="69.29" width="141.42" height="141.42" transform="translate(311.06 1030.95) rotate(-45)"/><polygon class="cls-47" points="1360 0 1260 100 1300 140 1400 40 1640 280 1680 240 1440 0 1360 0"/><g class="cls-58"><polygon class="cls-29" points="1680 240 1640 280 1400 40 1300 140 1260 100 1360 0 1440 0 1680 240"/></g><rect class="cls-21" x="1469.29" y="209.29" width="141.42" height="141.42" transform="translate(253.07 1170.95) rotate(-45)"/><rect class="cls-29" x="1469.29" y="209.29" width="141.42" height="141.42" transform="translate(253.07 1170.95) rotate(-45)"/><rect class="cls-47" x="1510.29" y="251.72" width="339.41" height="56.57" transform="translate(294.07 1269.95) rotate(-45)"/><rect class="cls-29" x="1510.29" y="251.72" width="339.41" height="56.57" transform="translate(294.07 1269.95) rotate(-45)"/><rect class="cls-21" x="1609.29" y="69.29" width="141.42" height="141.42" transform="translate(393.07 1228.94) rotate(-45)"/><rect class="cls-29" x="1609.29" y="69.29" width="141.42" height="141.42" transform="translate(393.07 1228.94) rotate(-45)"/><rect class="cls-21" x="1749.29" y="209.29" width="141.42" height="141.42" transform="translate(335.08 1368.94) rotate(-45)"/><g class="cls-3"><rect class="cls-29" x="1749.29" y="209.29" width="141.42" height="141.42" transform="translate(335.08 1368.94) rotate(-45)"/></g><polygon class="cls-47" points="1640 0 1540 100 1580 140 1680 40 1920 280 1920 200 1720 0 1640 0"/><g class="cls-33"><polygon class="cls-29" points="1920 200 1920 280 1680 40 1580 140 1540 100 1640 0 1720 0 1920 200"/></g><polygon class="cls-47" points="1820 380 1860 420 1920 360 1920 280 1820 380"/><g class="cls-11"><polygon class="cls-29" points="1820 380 1920 280 1920 360 1860 420 1820 380"/></g><rect class="cls-21" x="759.29" y="45.15" width="141.42" height="169.71" transform="translate(151.18 624.97) rotate(-45)"/><rect class="cls-29" x="759.29" y="45.15" width="141.42" height="169.71" transform="translate(151.18 624.97) rotate(-45)"/><rect class="cls-21" x="769.29" y="349.29" width="141.42" height="141.42" transform="translate(-50.95 716.98) rotate(-45)"/><rect class="cls-29" x="769.29" y="349.29" width="141.42" height="141.42" transform="translate(-50.95 716.98) rotate(-45)"/><rect class="cls-21" x="619.29" y="185.15" width="141.42" height="169.71" transform="translate(11.18 566.98) rotate(-45)"/><rect class="cls-29" x="619.29" y="185.15" width="141.42" height="169.71" transform="translate(11.18 566.98) rotate(-45)"/><rect class="cls-21" x="909.29" y="209.29" width="141.42" height="141.42" transform="translate(89.05 774.97) rotate(-45)"/><rect class="cls-29" x="909.29" y="209.29" width="141.42" height="141.42" transform="translate(89.05 774.97) rotate(-45)"/><rect class="cls-47" x="670.29" y="251.72" width="339.41" height="56.57" transform="translate(48.04 675.98) rotate(-45)"/><rect class="cls-29" x="670.29" y="251.72" width="339.41" height="56.57" transform="translate(48.04 675.98) rotate(-45)"/><rect class="cls-21" x="189.29" y="49.29" width="141.42" height="141.42" transform="translate(-8.7 218.99) rotate(-45)"/><rect class="cls-29" x="189.29" y="49.29" width="141.42" height="141.42" transform="translate(-8.7 218.99) rotate(-45)"/><rect class="cls-21" x="329.29" y="189.29" width="141.42" height="141.42" transform="translate(-66.69 358.99) rotate(-45)"/><rect class="cls-29" x="329.29" y="189.29" width="141.42" height="141.42" transform="translate(-66.69 358.99) rotate(-45)"/><rect class="cls-47" x="90.29" y="231.72" width="339.41" height="56.57" transform="translate(-107.7 260) rotate(-45)"/><rect class="cls-29" x="90.29" y="231.72" width="339.41" height="56.57" transform="translate(-107.7 260) rotate(-45)"/><rect class="cls-21" x="49.29" y="189.29" width="141.42" height="141.42" transform="translate(-148.7 161.01) rotate(-45)"/><rect class="cls-29" x="49.29" y="189.29" width="141.42" height="141.42" transform="translate(-148.7 161.01) rotate(-45)"/><polygon class="cls-47" points="0 200 0 320 220 540 260 500 20 260 120 160 80 120 0 200"/><g class="cls-53"><polygon class="cls-29" points="260 500 220 540 0 320 0 200 80 120 120 160 20 260 260 500"/></g><polygon class="cls-21" points="0 200 80 120 0 40 0 200"/><g class="cls-15"><polygon class="cls-29" points="80 120 0 200 0 40 80 120"/></g><rect class="cls-21" x="189.29" y="329.29" width="141.42" height="141.42" transform="translate(-206.69 301.01) rotate(-45)"/><rect class="cls-29" x="189.29" y="329.29" width="141.42" height="141.42" transform="translate(-206.69 301.01) rotate(-45)"/><rect class="cls-21" x="339.29" y="465.15" width="141.42" height="169.71" transform="translate(-268.82 451.01) rotate(-45)"/><rect class="cls-29" x="339.29" y="465.15" width="141.42" height="169.71" transform="translate(-268.82 451.01) rotate(-45)"/><rect class="cls-47" x="90.29" y="511.72" width="339.41" height="56.57" transform="translate(-305.69 342.01) rotate(-45)"/><rect class="cls-29" x="90.29" y="511.72" width="339.41" height="56.57" transform="translate(-305.69 342.01) rotate(-45)"/><rect class="cls-21" x="49.29" y="469.29" width="141.42" height="141.42" transform="translate(-346.69 243.02) rotate(-45)"/><rect class="cls-29" x="49.29" y="469.29" width="141.42" height="141.42" transform="translate(-346.69 243.02) rotate(-45)"/><polygon class="cls-47" points="0 480 0 600 240 840 280 800 20 540 120 440 80 400 0 480"/><g class="cls-4"><polygon class="cls-29" points="280 800 240 840 0 600 0 480 80 400 120 440 20 540 280 800"/></g><polygon class="cls-47" points="0 760 0 880 200 1080 280 1080 20 820 120 720 80 680 0 760"/><g class="cls-54"><polygon class="cls-29" points="280 1080 200 1080 0 880 0 760 80 680 120 720 20 820 280 1080"/></g><polygon class="cls-21" points="0 760 80 680 0 600 0 760"/><g class="cls-52"><polygon class="cls-29" points="80 680 0 760 0 600 80 680"/></g><polygon class="cls-21" points="0 1080 100 980 0 880 0 1080"/><g class="cls-43"><polygon class="cls-29" points="100 980 0 1080 0 880 100 980"/></g><polygon class="cls-21" points="0 480 80 400 0 320 0 480"/><g class="cls-2"><polygon class="cls-29" points="80 400 0 480 0 320 80 400"/></g><rect class="cls-21" x="59.29" y="745.15" width="141.42" height="169.71" transform="translate(-548.82 335.03) rotate(-45)"/><rect class="cls-29" x="59.29" y="745.15" width="141.42" height="169.71" transform="translate(-548.82 335.03) rotate(-45)"/><rect class="cls-21" x="199.29" y="605.15" width="141.42" height="169.71" transform="translate(-408.82 393.02) rotate(-45)"/><rect class="cls-29" x="199.29" y="605.15" width="141.42" height="169.71" transform="translate(-408.82 393.02) rotate(-45)"/><rect class="cls-47" x="110.29" y="811.72" width="339.41" height="56.57" transform="translate(-511.96 444.02) rotate(-45)"/><rect class="cls-29" x="110.29" y="811.72" width="339.41" height="56.57" transform="translate(-511.96 444.02) rotate(-45)"/><polygon class="cls-47" points="0 1080 80 1080 140 1020 100 980 0 1080"/><g class="cls-20"><polygon class="cls-29" points="140 1020 80 1080 0 1080 100 980 140 1020"/></g><polygon class="cls-21" points="80 1080 200 1080 140 1020 80 1080"/><g class="cls-36"><polygon class="cls-29" points="200 1080 80 1080 140 1020 200 1080"/></g><rect class="cls-47" x="390.29" y="811.72" width="339.41" height="56.57" transform="translate(-429.95 642.01) rotate(-45)"/><rect class="cls-29" x="390.29" y="811.72" width="339.41" height="56.57" transform="translate(-429.95 642.01) rotate(-45)"/><rect class="cls-21" x="349.29" y="769.29" width="141.42" height="141.42" transform="translate(-470.95 543.02) rotate(-45)"/><rect class="cls-29" x="349.29" y="769.29" width="141.42" height="141.42" transform="translate(-470.95 543.02) rotate(-45)"/><polygon class="cls-47" points="280 880 480 1080 560 1080 320 840 280 880"/><g class="cls-59"><polygon class="cls-29" points="560 1080 480 1080 280 880 320 840 560 1080"/></g><rect class="cls-21" x="909.29" y="489.29" width="141.42" height="141.42" transform="translate(-108.94 856.98) rotate(-45)"/><rect class="cls-29" x="909.29" y="489.29" width="141.42" height="141.42" transform="translate(-108.94 856.98) rotate(-45)"/><rect class="cls-47" x="951.72" y="530.29" width="56.57" height="339.41" transform="translate(-207.94 897.99) rotate(-45)"/><rect class="cls-29" x="951.72" y="530.29" width="56.57" height="339.41" transform="translate(-207.94 897.99) rotate(-45)"/><rect class="cls-21" x="489.29" y="629.29" width="141.42" height="141.42" transform="translate(-330.95 601.01) rotate(-45)"/><rect class="cls-29" x="489.29" y="629.29" width="141.42" height="141.42" transform="translate(-330.95 601.01) rotate(-45)"/><rect class="cls-21" x="629.29" y="489.29" width="141.42" height="141.42" transform="translate(-190.95 658.99) rotate(-45)"/><rect class="cls-29" x="629.29" y="489.29" width="141.42" height="141.42" transform="translate(-190.95 658.99) rotate(-45)"/><rect class="cls-47" x="671.72" y="530.29" width="56.57" height="339.41" transform="translate(-289.95 700) rotate(-45)"/><rect class="cls-29" x="671.72" y="530.29" width="56.57" height="339.41" transform="translate(-289.95 700) rotate(-45)"/><rect class="cls-21" x="769.29" y="629.29" width="141.42" height="141.42" transform="translate(-248.94 798.99) rotate(-45)"/><rect class="cls-29" x="769.29" y="629.29" width="141.42" height="141.42" transform="translate(-248.94 798.99) rotate(-45)"/><rect class="cls-47" x="670.29" y="811.72" width="339.41" height="56.57" transform="translate(-347.94 840) rotate(-45)"/><rect class="cls-29" x="670.29" y="811.72" width="339.41" height="56.57" transform="translate(-347.94 840) rotate(-45)"/><rect class="cls-21" x="629.29" y="769.29" width="141.42" height="141.42" transform="translate(-388.94 741.01) rotate(-45)"/><rect class="cls-29" x="629.29" y="769.29" width="141.42" height="141.42" transform="translate(-388.94 741.01) rotate(-45)"/><polygon class="cls-47" points="560 880 760 1080 840 1080 600 840 560 880"/><g class="cls-34"><polygon class="cls-29" points="840 1080 760 1080 560 880 600 840 840 1080"/></g><rect class="cls-21" x="489.29" y="909.29" width="141.42" height="141.42" transform="translate(-528.94 683.01) rotate(-45)"/><g class="cls-14"><rect class="cls-29" x="489.29" y="909.29" width="141.42" height="141.42" transform="translate(-528.94 683.02) rotate(-45)"/></g><polygon class="cls-47" points="560 1080 640 1080 700 1020 660 980 560 1080"/><g class="cls-18"><polygon class="cls-29" points="700 1020 640 1080 560 1080 660 980 700 1020"/></g><polygon class="cls-21" points="640 1080 760 1080 700 1020 640 1080"/><g class="cls-28"><polygon class="cls-29" points="760 1080 640 1080 700 1020 760 1080"/></g><polygon class="cls-47" points="840 1080 920 1080 980 1020 940 980 840 1080"/><g class="cls-64"><polygon class="cls-29" points="980 1020 920 1080 840 1080 940 980 980 1020"/></g><rect class="cls-21" x="1049.29" y="629.29" width="141.42" height="141.42" transform="translate(-166.93 996.98) rotate(-45)"/><rect class="cls-29" x="1049.29" y="629.29" width="141.42" height="141.42" transform="translate(-166.93 996.98) rotate(-45)"/><rect class="cls-47" x="950.29" y="811.72" width="339.41" height="56.57" transform="translate(-265.93 1037.99) rotate(-45)"/><rect class="cls-29" x="950.29" y="811.72" width="339.41" height="56.57" transform="translate(-265.93 1037.99) rotate(-45)"/><rect class="cls-21" x="769.29" y="909.29" width="141.42" height="141.42" transform="translate(-446.93 881) rotate(-45)"/><g class="cls-51"><rect class="cls-29" x="769.29" y="909.29" width="141.42" height="141.42" transform="translate(-446.93 881.01) rotate(-45)"/></g><rect class="cls-21" x="909.29" y="769.29" width="141.42" height="141.42" transform="translate(-306.93 938.99) rotate(-45)"/><rect class="cls-29" x="909.29" y="769.29" width="141.42" height="141.42" transform="translate(-306.93 938.99) rotate(-45)"/><polygon class="cls-47" points="840 880 1040 1080 1120 1080 880 840 840 880"/><g class="cls-35"><polygon class="cls-29" points="1120 1080 1040 1080 840 880 880 840 1120 1080"/></g><polygon class="cls-21" points="920 1080 1040 1080 980 1020 920 1080"/><g class="cls-44"><polygon class="cls-29" points="1040 1080 920 1080 980 1020 1040 1080"/></g><rect class="cls-47" x="1230.29" y="811.72" width="339.41" height="56.57" transform="translate(-183.92 1235.98) rotate(-45)"/><rect class="cls-29" x="1230.29" y="811.72" width="339.41" height="56.57" transform="translate(-183.92 1235.98) rotate(-45)"/><rect class="cls-21" x="1189.29" y="769.29" width="141.42" height="141.42" transform="translate(-224.92 1136.98) rotate(-45)"/><rect class="cls-29" x="1189.29" y="769.29" width="141.42" height="141.42" transform="translate(-224.92 1136.98) rotate(-45)"/><polygon class="cls-47" points="1120 880 1320 1080 1400 1080 1160 840 1120 880"/><g class="cls-9"><polygon class="cls-29" points="1400 1080 1320 1080 1120 880 1160 840 1400 1080"/></g><rect class="cls-21" x="1609.29" y="349.29" width="141.42" height="141.42" transform="translate(195.08 1310.95) rotate(-45)"/><rect class="cls-29" x="1609.29" y="349.29" width="141.42" height="141.42" transform="translate(195.08 1310.95) rotate(-45)"/><rect class="cls-21" x="1749.29" y="489.29" width="141.42" height="141.42" transform="translate(137.09 1450.95) rotate(-45)"/><g class="cls-6"><rect class="cls-29" x="1749.29" y="489.29" width="141.42" height="141.42" transform="translate(137.09 1450.95) rotate(-45)"/></g><rect class="cls-47" x="1510.29" y="531.72" width="339.41" height="56.57" transform="translate(96.08 1351.96) rotate(-45)"/><rect class="cls-29" x="1510.29" y="531.72" width="339.41" height="56.57" transform="translate(96.08 1351.96) rotate(-45)"/><rect class="cls-21" x="1469.29" y="489.29" width="141.42" height="141.42" transform="translate(55.08 1252.96) rotate(-45)"/><rect class="cls-29" x="1469.29" y="489.29" width="141.42" height="141.42" transform="translate(55.08 1252.96) rotate(-45)"/><rect class="cls-21" x="1329.29" y="629.29" width="141.42" height="141.42" transform="translate(-84.92 1194.97) rotate(-45)"/><rect class="cls-29" x="1329.29" y="629.29" width="141.42" height="141.42" transform="translate(-84.92 1194.97) rotate(-45)"/><rect class="cls-47" x="1511.72" y="530.29" width="56.57" height="339.41" transform="translate(-43.92 1293.97) rotate(-45)"/><rect class="cls-29" x="1511.72" y="530.29" width="56.57" height="339.41" transform="translate(-43.92 1293.97) rotate(-45)"/><rect class="cls-21" x="1609.29" y="629.29" width="141.42" height="141.42" transform="translate(-2.91 1392.96) rotate(-45)"/><rect class="cls-29" x="1609.29" y="629.29" width="141.42" height="141.42" transform="translate(-2.91 1392.96) rotate(-45)"/><rect class="cls-47" x="1510.29" y="811.72" width="339.41" height="56.57" transform="translate(-101.91 1433.97) rotate(-45)"/><rect class="cls-29" x="1510.29" y="811.72" width="339.41" height="56.57" transform="translate(-101.91 1433.97) rotate(-45)"/><rect class="cls-21" x="1469.29" y="769.29" width="141.42" height="141.42" transform="translate(-142.91 1334.97) rotate(-45)"/><rect class="cls-29" x="1469.29" y="769.29" width="141.42" height="141.42" transform="translate(-142.91 1334.97) rotate(-45)"/><polygon class="cls-47" points="1400 880 1600 1080 1680 1080 1440 840 1400 880"/><g class="cls-22"><polygon class="cls-29" points="1680 1080 1600 1080 1400 880 1440 840 1680 1080"/></g><rect class="cls-21" x="1749.29" y="769.29" width="141.42" height="141.42" transform="translate(-60.9 1532.96) rotate(-45)"/><g class="cls-65"><rect class="cls-29" x="1749.29" y="769.29" width="141.42" height="141.42" transform="translate(-60.9 1532.96) rotate(-45)"/></g><polygon class="cls-47" points="1680 880 1880 1080 1920 1080 1920 1040 1720 840 1680 880"/><g class="cls-27"><polygon class="cls-29" points="1920 1040 1920 1080 1880 1080 1680 880 1720 840 1920 1040"/></g><rect class="cls-21" x="1609.29" y="909.29" width="141.42" height="141.42" transform="translate(-200.9 1474.98) rotate(-45)"/><g class="cls-12"><rect class="cls-29" x="1609.29" y="909.29" width="141.42" height="141.42" transform="translate(-200.9 1474.97) rotate(-45)"/></g><polygon class="cls-47" points="1680 1080 1760 1080 1820 1020 1780 980 1680 1080"/><g class="cls-26"><polygon class="cls-29" points="1820 1020 1760 1080 1680 1080 1780 980 1820 1020"/></g><polygon class="cls-21" points="1760 1080 1880 1080 1820 1020 1760 1080"/><g class="cls-42"><polygon class="cls-29" points="1880 1080 1760 1080 1820 1020 1880 1080"/></g><rect class="cls-21" x="1329.29" y="909.29" width="141.42" height="141.42" transform="translate(-282.91 1276.99) rotate(-45)"/><g class="cls-17"><rect class="cls-29" x="1329.29" y="909.29" width="141.42" height="141.42" transform="translate(-282.91 1276.98) rotate(-45)"/></g><polygon class="cls-47" points="1400 1080 1480 1080 1540 1020 1500 980 1400 1080"/><g class="cls-8"><polygon class="cls-29" points="1540 1020 1480 1080 1400 1080 1500 980 1540 1020"/></g><polygon class="cls-21" points="1480 1080 1600 1080 1540 1020 1480 1080"/><g class="cls-57"><polygon class="cls-29" points="1600 1080 1480 1080 1540 1020 1600 1080"/></g><rect class="cls-21" x="1049.29" y="909.29" width="141.42" height="141.42" transform="translate(-364.92 1078.99) rotate(-45)"/><g class="cls-48"><rect class="cls-29" x="1049.29" y="909.29" width="141.42" height="141.42" transform="translate(-364.92 1078.99) rotate(-45)"/></g><polygon class="cls-47" points="1120 1080 1200 1080 1260 1020 1220 980 1120 1080"/><g class="cls-32"><polygon class="cls-29" points="1260 1020 1200 1080 1120 1080 1220 980 1260 1020"/></g><polygon class="cls-21" points="1200 1080 1320 1080 1260 1020 1200 1080"/><g class="cls-1"><polygon class="cls-29" points="1320 1080 1200 1080 1260 1020 1320 1080"/></g><rect class="cls-21" x="209.29" y="909.29" width="141.42" height="141.42" transform="translate(-610.95 485.03) rotate(-45)"/><g class="cls-13"><rect class="cls-29" x="209.29" y="909.29" width="141.42" height="141.42" transform="translate(-610.95 485.03) rotate(-45)"/></g><polygon class="cls-47" points="280 1080 360 1080 420 1020 380 980 280 1080"/><g class="cls-7"><polygon class="cls-29" points="420 1020 360 1080 280 1080 380 980 420 1020"/></g><polygon class="cls-21" points="360 1080 480 1080 420 1020 360 1080"/><g class="cls-41"><polygon class="cls-29" points="480 1080 360 1080 420 1020 480 1080"/></g><polygon class="cls-47" points="1920 0 1820 100 1860 140 1920 80 1920 0"/><g class="cls-62"><polygon class="cls-29" points="1920 0 1920 80 1860 140 1820 100 1920 0"/></g><polygon class="cls-21" points="40 0 120 80 200 0 40 0"/><g class="cls-40"><polyline class="cls-29" points="120 80 200 0 40 0"/></g><polygon class="cls-21" points="320 0 400 80 480 0 320 0"/><g class="cls-63"><polyline class="cls-29" points="400 80 480 0 320 0"/></g><polygon class="cls-21" points="600 0 680 80 757.55 0 600 0"/><g class="cls-38"><polyline class="cls-29" points="680 80 757.55 0 600 0"/></g><polyline class="cls-21" points="980 100 1078.02 1.98 881.98 1.98"/><g class="cls-61"><polyline class="cls-29" points="980 100 1078.02 1.98 881.98 1.98"/></g><polygon class="cls-21" points="1160 0 1260 100 1358.02 1.98 1160 0"/><g class="cls-45"><polyline class="cls-29" points="1260 100 1358.02 1.98 1160 0"/></g><polyline class="cls-21" points="1540 100 1638.02 1.98 1441.98 1.98"/><g class="cls-50"><polyline class="cls-29" points="1540 100 1638.02 1.98 1441.98 1.98"/></g><polygon class="cls-21" points="1720 0 1820 100 1920 0 1720 0"/><g class="cls-60"><polyline class="cls-29" points="1820 100 1920 0 1720 0"/></g><polygon class="cls-21" points="1860 140 1920 200 1920 80 1860 140"/><g class="cls-23"><polyline class="cls-29" points="1860 140 1920 80 1920 200"/></g><polygon class="cls-21" points="1860 420 1920 480 1920 360 1860 420"/><g class="cls-56"><polyline class="cls-29" points="1860 420 1920 360 1920 480"/></g><polygon class="cls-21" points="1860 700 1920 760 1920 640 1860 700"/><g class="cls-5"><polyline class="cls-29" points="1860 700 1920 640 1920 760"/></g><polygon class="cls-21" points="1860 980 1920 1037.26 1920 920 1860 980"/><g class="cls-31"><polyline class="cls-29" points="1860 980 1920 920 1920 1037.26"/><polyline class="cls-29" points="1920 1080 1920 1040 1920 1037.26 1920 920 1920 840 1920 760 1920 640 1920 560 1920 480 1920 360 1920 280 1920 200 1920 80 1920 0 1720 0 1640 0 1440 0 1360 0 1160 0 1080 0 880 0 760 0 757.55 0 600 0 480 0 320 0 200 0 40 0 0 0"/></g></g></g><g id="Layer_2"><rect class="cls-66" x="210" y="75" width="1500" height="600" rx="50" ry="50"/><path class="cls-66" d="m260,75h0v50h-50c0-27.6,22.4-50,50-50Z"/><rect x="260" y="75" width="50" height="50"/><rect class="cls-66" x="310" y="75" width="50" height="50"/><rect x="360" y="75" width="50" height="50"/><rect x="460" y="75" width="50" height="50"/><rect class="cls-66" x="510" y="75" width="50" height="50"/><rect x="560" y="75" width="50" height="50"/><rect class="cls-66" x="410" y="75" width="50" height="50"/><rect class="cls-66" x="610" y="75" width="50" height="50"/><rect x="660" y="75" width="50" height="50"/><rect x="760" y="75" width="50" height="50"/><rect class="cls-66" x="810" y="75" width="50" height="50"/><rect x="860" y="75" width="50" height="50"/><rect class="cls-66" x="710" y="75" width="50" height="50"/><rect class="cls-66" x="910" y="75" width="50" height="50"/><rect x="960" y="75" width="50" height="50"/><rect x="1060" y="75" width="50" height="50"/><rect class="cls-66" x="1110" y="75" width="50" height="50"/><rect x="1160" y="75" width="50" height="50"/><rect class="cls-66" x="1010" y="75" width="50" height="50"/><rect class="cls-66" x="1210" y="75" width="50" height="50"/><rect x="1260" y="75" width="50" height="50"/><rect x="1360" y="75" width="50" height="50"/><rect class="cls-66" x="1410" y="75" width="50" height="50"/><rect x="1460" y="75" width="50" height="50"/><rect class="cls-66" x="1310" y="75" width="50" height="50"/><rect x="1560" y="75" width="50" height="50"/><rect class="cls-66" x="1610" y="75" width="50" height="50"/><path d="m1660,75h0c27.6,0,50,22.4,50,50h-50v-50h0Z"/><rect class="cls-66" x="1510" y="75" width="50" height="50"/><rect class="cls-66" x="1660" y="125" width="50" height="50" transform="translate(1835 -1535) rotate(90)"/><rect x="1660" y="175" width="50" height="50" transform="translate(1885 -1485) rotate(90)"/><rect x="1660" y="275" width="50" height="50" transform="translate(1985 -1385) rotate(90)"/><rect class="cls-66" x="1660" y="325" width="50" height="50" transform="translate(2035 -1335) rotate(90)"/><rect x="1660" y="375" width="50" height="50" transform="translate(2085 -1285) rotate(90)"/><rect class="cls-66" x="1660" y="225" width="50" height="50" transform="translate(1935 -1435) rotate(90)"/><rect class="cls-66" x="1660" y="425" width="50" height="50" transform="translate(2135 -1235) rotate(90)"/><rect x="1660" y="475" width="50" height="50" transform="translate(2185 -1185) rotate(90)"/><rect x="1660" y="575" width="50" height="50" transform="translate(2285 -1085) rotate(90)"/><path class="cls-66" d="m1660,625h0c27.6,0,50,22.4,50,50h-50v-50h0Z" transform="translate(2335 -1035) rotate(90)"/><rect class="cls-66" x="1660" y="525" width="50" height="50" transform="translate(2235 -1135) rotate(90)"/><rect x="310" y="625" width="50" height="50"/><rect class="cls-66" x="360" y="625" width="50" height="50"/><rect x="410" y="625" width="50" height="50"/><rect x="510" y="625" width="50" height="50"/><rect class="cls-66" x="560" y="625" width="50" height="50"/><rect x="610" y="625" width="50" height="50"/><rect class="cls-66" x="460" y="625" width="50" height="50"/><rect class="cls-66" x="660" y="625" width="50" height="50"/><rect x="710" y="625" width="50" height="50"/><rect x="810" y="625" width="50" height="50"/><rect class="cls-66" x="860" y="625" width="50" height="50"/><rect x="910" y="625" width="50" height="50"/><rect class="cls-66" x="760" y="625" width="50" height="50"/><rect class="cls-66" x="960" y="625" width="50" height="50"/><rect x="1010" y="625" width="50" height="50"/><rect x="1110" y="625" width="50" height="50"/><rect class="cls-66" x="1160" y="625" width="50" height="50"/><rect x="1210" y="625" width="50" height="50"/><rect class="cls-66" x="1060" y="625" width="50" height="50"/><rect class="cls-66" x="1260" y="625" width="50" height="50"/><rect x="1310" y="625" width="50" height="50"/><rect x="1410" y="625" width="50" height="50"/><rect class="cls-66" x="1460" y="625" width="50" height="50"/><rect x="1510" y="625" width="50" height="50"/><rect class="cls-66" x="1360" y="625" width="50" height="50"/><rect x="1610" y="625" width="50" height="50"/><rect class="cls-66" x="1560" y="625" width="50" height="50"/><path d="m210,625h50v50h0c-27.6,0-50-22.4-50-50h0Z"/><rect class="cls-66" x="260" y="625" width="50" height="50"/><rect class="cls-66" x="210" y="175" width="50" height="50" transform="translate(435 -35) rotate(90)"/><rect x="210" y="225" width="50" height="50" transform="translate(485 15) rotate(90)"/><rect x="210" y="325" width="50" height="50" transform="translate(585 115) rotate(90)"/><rect class="cls-66" x="210" y="375" width="50" height="50" transform="translate(635 165) rotate(90)"/><rect x="210" y="425" width="50" height="50" transform="translate(685 215) rotate(90)"/><rect class="cls-66" x="210" y="275" width="50" height="50" transform="translate(535 65) rotate(90)"/><rect class="cls-66" x="210" y="475" width="50" height="50" transform="translate(735 265) rotate(90)"/><rect x="210" y="525" width="50" height="50" transform="translate(785 315) rotate(90)"/><rect class="cls-66" x="210" y="575" width="50" height="50" transform="translate(835 365) rotate(90)"/><rect x="210" y="125" width="50" height="50" transform="translate(385 -85) rotate(90)"/><path d="m397.3,239.4c-6.4-6-9.6-15.58-9.6-28.76,0-25.17,12.24-37.75,36.72-37.75,5.93,0,11.44.72,16.53,2.15,5.09,1.44,8.88,3.03,11.38,4.78v23.42h-22.48v-6.74c0-2.37-.53-4.12-1.59-5.25-1.06-1.12-2.65-1.69-4.78-1.69s-3.72.56-4.78,1.69c-1.06,1.12-1.59,2.87-1.59,5.25v28.29c0,2.37.53,4.12,1.59,5.25,1.06,1.12,2.65,1.69,4.78,1.69s3.71-.56,4.78-1.69c1.06-1.12,1.59-2.87,1.59-5.25v-7.59h22.48v24.26c-2.56,1.75-6.35,3.34-11.38,4.78-5.03,1.44-10.48,2.15-16.35,2.15-11.8,0-20.91-3-27.31-8.99Z"/><path d="m455.89,247.08v-15.36h4.68v-42.15h-4.68v-15.36h39.53v15.36h-8.62v42.15h8.43v-8.62h18.64v23.98h-57.98Z"/><path d="m525.82,239.4c-6.21-6-9.32-15.58-9.32-28.76s3.11-22.76,9.32-28.76c6.21-6,15.03-8.99,26.46-8.99s20.25,3,26.46,8.99c6.21,6,9.32,15.58,9.32,28.76s-3.11,22.76-9.32,28.76c-6.21,6-15.03,8.99-26.46,8.99s-20.25-3-26.46-8.99Zm31.24-9.37c1.06-1.12,1.59-2.87,1.59-5.25v-28.29c0-2.37-.53-4.12-1.59-5.25-1.06-1.12-2.65-1.69-4.78-1.69s-3.72.56-4.78,1.69c-1.06,1.12-1.59,2.87-1.59,5.25v28.29c0,2.44.53,4.2,1.59,5.29,1.06,1.09,2.65,1.64,4.78,1.64s3.71-.56,4.78-1.69Z"/><path d="m603.29,246.84c-5.34-1.03-9.45-2.2-12.32-3.51v-18.55h20.61c0,1.94.44,3.34,1.31,4.21.87.88,2.47,1.31,4.78,1.31,1.94,0,3.33-.3,4.17-.89.84-.59,1.26-1.48,1.26-2.67,0-1-.41-1.86-1.22-2.58-.81-.72-2.22-1.45-4.22-2.2l-8.06-2.81c-6.93-2.62-11.91-5.71-14.94-9.27-3.03-3.56-4.54-8.37-4.54-14.43,0-7.37,2.42-12.97,7.26-16.81,4.84-3.84,12.91-5.76,24.21-5.76,5.43,0,10.54.55,15.32,1.64,4.78,1.09,8.63,2.55,11.57,4.36v16.77h-18.73c0-3.12-1.94-4.68-5.81-4.68-1.87,0-3.2.23-3.98.7-.78.47-1.17,1.3-1.17,2.48,0,1.06.45,1.91,1.36,2.53.9.62,2.39,1.28,4.45,1.97l8.15,2.81c6.62,2.25,11.44,5.17,14.47,8.76,3.03,3.59,4.54,8.29,4.54,14.1,0,7.93-2.67,13.93-8.01,17.99-5.34,4.06-13.16,6.09-23.46,6.09-6,0-11.66-.52-17-1.55Z"/><path d="m654.39,247.08v-15.36h4.68v-42.15h-4.68v-15.36h63.23v28.29h-20.98v-12.93h-11.33v14.8h8.24v10.68h-8.24v16.67h11.33v-14.8h20.98v30.16h-63.23Z"/><path d="m721.18,231.71h4.68v-42.06h-4.68v-15.46h38.03c10.43,0,18.72,2.86,24.87,8.57,6.15,5.71,9.23,15,9.23,27.87s-3.08,22.15-9.23,27.87c-6.15,5.71-14.44,8.57-24.87,8.57h-38.03v-15.36Zm36.35,0c2.12,0,3.71-.56,4.78-1.69,1.06-1.12,1.59-2.87,1.59-5.25v-28.29c0-4.62-2.12-6.93-6.37-6.93h-5.43v42.15h5.43Z"/><path d="m824.59,231.71h4.68v-42.06h-4.68v-15.46h38.03c10.43,0,18.72,2.86,24.87,8.57,6.15,5.71,9.23,15,9.23,27.87s-3.08,22.15-9.23,27.87c-6.15,5.71-14.44,8.57-24.87,8.57h-38.03v-15.36Zm36.35,0c2.12,0,3.71-.56,4.78-1.69,1.06-1.12,1.59-2.87,1.59-5.25v-28.29c0-4.62-2.12-6.93-6.37-6.93h-5.43v42.15h5.43Z"/><path d="m912.22,241.92c-5.34-4.31-8.01-11.3-8.01-20.98v-31.38h-4.68v-15.36h34.66v15.36h-3.75v36.16c0,2.06.45,3.58,1.36,4.54.9.97,2.26,1.45,4.07,1.45s3.17-.48,4.07-1.45c.9-.97,1.36-2.48,1.36-4.54v-36.16h-3.75v-15.36h32.13v15.36h-4.68v31.38c0,9.68-2.59,16.67-7.78,20.98-5.18,4.31-12.62,6.46-22.29,6.46s-17.38-2.15-22.72-6.46Z"/><path d="m973.06,247.08v-15.36h4.68v-42.15h-4.68v-15.36h63.23v28.29h-20.98v-12.93h-11.33v14.8h8.24v10.68h-8.24v16.67h11.33v-14.8h20.98v30.16h-63.23Z"/><path d="m1137.83,196.87h-16.11v-7.31h-6v42.15h6.56v15.36h-39.34v-15.36h6.56v-42.15h-6v7.31h-16.11v-22.67h70.44v22.67Z"/><path d="m1149.77,239.4c-6.21-6-9.32-15.58-9.32-28.76s3.11-22.76,9.32-28.76c6.21-6,15.04-8.99,26.46-8.99s20.25,3,26.46,8.99c6.21,6,9.32,15.58,9.32,28.76s-3.11,22.76-9.32,28.76c-6.21,6-15.03,8.99-26.46,8.99s-20.25-3-26.46-8.99Zm31.24-9.37c1.06-1.12,1.59-2.87,1.59-5.25v-28.29c0-2.37-.53-4.12-1.59-5.25-1.06-1.12-2.66-1.69-4.78-1.69s-3.72.56-4.78,1.69c-1.06,1.12-1.59,2.87-1.59,5.25v28.29c0,2.44.53,4.2,1.59,5.29,1.06,1.09,2.65,1.64,4.78,1.64s3.71-.56,4.78-1.69Z"/><path d="m1243.31,231.71h4.68v-42.15h-4.68v-15.36h41.12c8.06,0,14.21,1.73,18.45,5.2,4.25,3.47,6.37,9.07,6.37,16.81s-2.12,13.35-6.37,16.81c-4.25,3.47-10.4,5.2-18.45,5.2h-10.21v13.49h8.99v15.36h-39.91v-15.36Zm34.1-26.79c3.62,0,5.43-2,5.43-6v-3.37c0-2.06-.45-3.57-1.36-4.54-.91-.97-2.26-1.45-4.08-1.45h-3.18v15.36h3.18Z"/><path d="m1321.2,239.4c-6.21-6-9.32-15.58-9.32-28.76s3.11-22.76,9.32-28.76c6.21-6,15.04-8.99,26.46-8.99s20.25,3,26.46,8.99c6.21,6,9.32,15.58,9.32,28.76s-3.11,22.76-9.32,28.76c-6.21,6-15.03,8.99-26.46,8.99s-20.25-3-26.46-8.99Zm31.24-9.37c1.06-1.12,1.59-2.87,1.59-5.25v-28.29c0-2.37-.53-4.12-1.59-5.25-1.06-1.12-2.66-1.69-4.78-1.69s-3.72.56-4.78,1.69c-1.06,1.12-1.59,2.87-1.59,5.25v28.29c0,2.44.53,4.2,1.59,5.29,1.06,1.09,2.65,1.64,4.78,1.64s3.71-.56,4.78-1.69Z"/><path d="m1395.38,239.4c-6.21-6-9.32-15.58-9.32-28.76s3.11-22.76,9.32-28.76c6.21-6,15.04-8.99,26.46-8.99s20.25,3,26.46,8.99c6.21,6,9.32,15.58,9.32,28.76s-3.11,22.76-9.32,28.76c-6.21,6-15.03,8.99-26.46,8.99s-20.25-3-26.46-8.99Zm31.24-9.37c1.06-1.12,1.59-2.87,1.59-5.25v-28.29c0-2.37-.53-4.12-1.59-5.25-1.06-1.12-2.66-1.69-4.78-1.69s-3.72.56-4.78,1.69c-1.06,1.12-1.59,2.87-1.59,5.25v28.29c0,2.44.53,4.2,1.59,5.29,1.06,1.09,2.65,1.64,4.78,1.64s3.71-.56,4.78-1.69Z"/><path d="m1460.81,231.71h4.68v-42.15h-4.68v-15.36h43c8.06,0,14.21,1.66,18.45,4.96,4.25,3.31,6.37,8.68,6.37,16.11,0,4.18-.84,7.81-2.53,10.87-1.69,3.06-4.09,5.18-7.21,6.37l.09.94c6,.94,8.99,4.62,8.99,11.05v7.21h4.4v15.36h-29.69v-22.01c0-2.44-.36-4.28-1.08-5.53-.72-1.25-1.84-2.09-3.37-2.53-1.53-.44-3.7-.66-6.51-.66v15.36h6.18v15.36h-37.1v-15.36Zm35.97-26.79c1.81,0,3.17-.48,4.07-1.45.9-.97,1.36-2.48,1.36-4.54v-3.37c0-2.06-.45-3.57-1.36-4.54-.91-.97-2.26-1.45-4.07-1.45h-5.06v15.36h5.06Z"/><path d="m641.93,301.97h-4.68v42.15h4.68v15.36h-35.41v-15.36h4.5v-32.79l-15.92,48.15h-13.86l-16.39-47.68v32.32h4.5v15.36h-30.73v-15.36h4.68v-42.15h-4.68v-15.36h42.9l9.74,29.23,9.37-29.23h41.31v15.36Z"/><path d="m714.43,344.12h3.75v15.36h-36.72v-15.36h5.62l-1.5-7.49h-12.74l-1.5,7.49h5.62v15.36h-32.04v-15.36h3.75l15.83-57.52h34.1l15.83,57.52Zm-39.53-17.42h8.62l-3.84-18.64h-.94l-3.84,18.64Z"/><path d="m775.13,286.61h30.73v15.36h-4.68v57.52h-26.32l-27.45-42.25v26.88h4.5v15.36h-30.73v-15.36h4.68v-42.15h-4.68v-15.36h33.82l24.64,37.56v-22.2h-4.5v-15.36Z"/><path d="m878.17,344.12h3.75v15.36h-36.72v-15.36h5.62l-1.5-7.49h-12.74l-1.5,7.49h5.62v15.36h-32.04v-15.36h3.75l15.83-57.52h34.1l15.83,57.52Zm-39.53-17.42h8.62l-3.84-18.64h-.94l-3.84,18.64Z"/><path d="m952.73,336.07h-4.68v18.74c-2.75,1.56-6.76,2.95-12.04,4.17-5.28,1.22-10.98,1.83-17.1,1.83-11.68,0-20.83-3.08-27.45-9.23-6.62-6.15-9.93-15.66-9.93-28.52s3.29-22.76,9.88-28.76c6.59-6,16-8.99,28.24-8.99,5.93,0,11.49.62,16.67,1.87,5.18,1.25,9.09,2.66,11.71,4.22v22.39h-23.42v-4.4c0-2.62-.55-4.51-1.64-5.67-1.09-1.15-2.83-1.73-5.2-1.73s-4.11.58-5.2,1.73c-1.09,1.16-1.64,3.04-1.64,5.67v27.35c0,2.62.55,4.51,1.64,5.67,1.09,1.16,2.82,1.73,5.2,1.73s4.11-.58,5.2-1.73c1.09-1.15,1.64-3.04,1.64-5.67v-.66h-5.06v-13.96h33.16v13.96Z"/><path d="m955.36,359.49v-15.36h4.68v-42.15h-4.68v-15.36h63.23v28.29h-20.98v-12.93h-11.33v14.8h8.24v10.68h-8.24v16.67h11.33v-14.8h20.98v30.16h-63.23Z"/><path d="m1125.47,301.97h-4.68v42.15h4.68v15.36h-35.41v-15.36h4.5v-32.79l-15.92,48.15h-13.86l-16.39-47.68v32.32h4.5v15.36h-30.73v-15.36h4.68v-42.15h-4.68v-15.36h42.9l9.74,29.23,9.37-29.23h41.31v15.36Z"/><path d="m1129.21,359.49v-15.36h4.68v-42.15h-4.68v-15.36h63.23v28.29h-20.98v-12.93h-11.33v14.8h8.24v10.68h-8.24v16.67h11.33v-14.8h20.98v30.16h-63.23Z"/><path d="m1249.96,286.61h30.72v15.36h-4.68v57.52h-26.32l-27.45-42.25v26.88h4.5v15.36h-30.73v-15.36h4.68v-42.15h-4.68v-15.36h33.82l24.64,37.56v-22.2h-4.5v-15.36Z"/><path d="m1354.12,309.28h-16.11v-7.31h-6v42.15h6.56v15.36h-39.34v-15.36h6.56v-42.15h-6v7.31h-16.11v-22.67h70.44v22.67Z"/></g></svg>