<?xml version="1.0" encoding="UTF-8"?><svg id="Layer_1" xmlns="http://www.w3.org/2000/svg" width="400" height="460" viewBox="0 0 400 460"><defs><style>.cls-1{stroke-width:1.53px;}.cls-1,.cls-2,.cls-3,.cls-4,.cls-5,.cls-6,.cls-7,.cls-8,.cls-9,.cls-10,.cls-11,.cls-12,.cls-13,.cls-14,.cls-15,.cls-16{stroke-miterlimit:10;}.cls-1,.cls-2,.cls-5,.cls-7,.cls-8,.cls-9,.cls-10,.cls-17,.cls-11,.cls-12,.cls-13{fill:#fcc;}.cls-1,.cls-7,.cls-9,.cls-10,.cls-13{stroke:#fcc;}.cls-2{stroke-width:1.11px;}.cls-2,.cls-3,.cls-4,.cls-5,.cls-6,.cls-8,.cls-11,.cls-12,.cls-14,.cls-15,.cls-16{stroke:#000;}.cls-3,.cls-6,.cls-14{fill:none;}.cls-3,.cls-11,.cls-16{stroke-width:2.05px;}.cls-4,.cls-6,.cls-15{stroke-width:1.02px;}.cls-4,.cls-16{fill:#ff8aec;}.cls-5{stroke-width:1.72px;}.cls-5,.cls-8,.cls-14{stroke-linecap:round;}.cls-7{stroke-width:1.38px;}.cls-8,.cls-14{stroke-width:2px;}.cls-9{stroke-width:3.42px;}.cls-10{stroke-width:.91px;}.cls-12{stroke-width:1.08px;}.cls-13{stroke-width:.39px;}.cls-15{fill:#9fc;}</style></defs><line class="cls-14" x1="274.96" y1="98.26" x2="265.97" y2="89.57"/><path class="cls-8" d="m367.5,144.65c-3.19,3.47-8.59,4.88-14.12,3.73l-47.2,85.51-24.5-15.43,41.27-73.81-47.98-46.39c-.78,1.98-2.02,4.29-3.97,6.49-.76.87-8.66,9.48-17.09,6.98-5.12-1.52-7.63-6.29-9.05-8.98-.73-1.4-4.3-8.17-2.01-15.96,1-3.37,2.92-6.39,5.51-8.84l26.31-44.42c-6.26-6.92-8.39-14.72-5.68-19.55,1.05-1.85,3.18-3.94,6.03-4.99.9-.33,5.86-2.01,10.05,1,1.63,1.18,2.59,2.65,3.18,3.97,1.07-1.53,2.61-3.03,4.87-3.97,3.49-1.46,8.81-1.59,12.06,1.99,2.14,2.36,2.93,5.82,2.01,8.98-.38,1.33-1.02,2.41-1.71,3.27,3.38-1.05,6.89-.83,9.75.72,3.12,1.69,5.63,5.04,6.03,8.98.54,5.32-2.95,9.98-7.04,11.97-5.51,2.67-11.04,0-13.07-1-1.37-.66-2.52-1.44-3.5-2.23l-16.89,25.36,55.15,58.03c.61-2.36,1.86-5.24,4.44-7.35,6.68-5.47,18.16-2.43,24.13,3.99,4.84,5.22,8.81,15.65,3.02,21.94Z"/><path class="cls-14" d="m353.37,148.38c-1.67-.34-3.35-.92-4.98-1.74"/><path class="cls-14" d="m335.91,126.07c-.4,1.54-.53,2.86-.58,3.62"/><line class="cls-14" x1="300.15" y1="38.93" x2="297.65" y2="42.68"/><line class="cls-14" x1="305.47" y1="24.25" x2="305.46" y2="24.25"/><path class="cls-14" d="m286.07,18.98c.05-.31.53-2.66,2.17-5.01"/><path class="cls-14" d="m305.47,24.25h-.01c-1.35,1.69-2.93,2.52-3.31,2.71"/><path class="cls-14" d="m277.02,35.94c-.84-.78-1.64-1.59-2.36-2.39"/><line class="cls-14" x1="145.64" y1="85.57" x2="137.6" y2="95.14"/><path class="cls-8" d="m50.39,150.78c3.53,3.13,9.06,3.97,14.44,2.26l55.86,80.2,22.76-17.86-48.74-69.18,42.89-51.06c.99,1.89,2.46,4.06,4.63,6.05.85.78,9.6,8.54,17.73,5.19,4.93-2.03,6.93-7.04,8.06-9.86.58-1.46,3.43-8.57.34-16.08-1.34-3.25-3.57-6.06-6.4-8.22l-30.8-41.49c5.51-7.53,6.81-15.5,3.61-20.03-1.23-1.73-3.57-3.59-6.52-4.34-.93-.23-6.04-1.4-9.89,2.02-1.5,1.34-2.3,2.9-2.75,4.27-1.22-1.41-2.92-2.75-5.25-3.45-3.62-1.09-8.92-.67-11.79,3.22-1.88,2.57-2.3,6.09-1.06,9.13.52,1.28,1.26,2.3,2.04,3.08-3.47-.7-6.94-.12-9.62,1.71-2.92,2-5.07,5.59-5.06,9.55.01,5.34,3.97,9.63,8.25,11.18,5.76,2.09,10.98-1.14,12.89-2.33,1.29-.8,2.36-1.69,3.25-2.58l19.44,23.49-48.8,63.37c-.86-2.29-2.4-5.02-5.19-6.86-7.22-4.75-18.32-.56-23.58,6.44-4.27,5.68-7.13,16.47-.71,22.13Z"/><path class="cls-14" d="m64.83,153.04c1.62-.51,3.23-1.26,4.77-2.24"/><path class="cls-14" d="m79.87,129.06c.56,1.49.83,2.79.96,3.54"/><line class="cls-14" x1="106.37" y1="38.71" x2="109.24" y2="42.19"/><line class="cls-14" x1="99.54" y1="24.66" x2="99.55" y2="24.65"/><path class="cls-14" d="m118.29,17.43c-.08-.3-.81-2.59-2.68-4.76"/><path class="cls-14" d="m99.54,24.66h0c1.52,1.54,3.17,2.21,3.57,2.36"/><path class="cls-14" d="m129.05,33.36c.76-.86,1.46-1.75,2.1-2.62"/><rect class="cls-13" x="197.69" y="205.02" width="30.12" height="7.13"/><rect class="cls-13" x="222.6" y="204.34" width="30.12" height="7.13"/><rect class="cls-10" x="208.39" y="183.94" width="30.12" height="39.74"/><rect class="cls-7" x="188.19" y="209.43" width="68.81" height="39.74"/><path class="cls-11" d="m208.46,183c-3.73,2.21-6.39,8.02-6.39,14.83,0,2.32.31,4.52.86,6.51,1.32,4.75,4.07,8.24,7.35,9.08"/><path class="cls-11" d="m232.88,182.15c.47-.09.94-.12,1.43-.09,5.38.31,9.34,7.61,8.82,16.32-.39,6.75-3.35,12.36-7.17,14.4"/><path class="cls-16" d="m204.89,160.63c.11-6.61,5.75-12.07,12.85-12.31,7.33-.23,13.45,5.16,13.69,12.06,0,.08,0,.17.01.25"/><path class="cls-11" d="m203.1,204.37c-.05-.02-.1-.03-.16-.03-1.39-.33-2.86-.47-4.38-.42-8.18.28-14.62,6.08-14.38,12.98.07,2.16.78,4.16,1.97,5.89"/><path class="cls-11" d="m263.12,216.68c.07-.58.1-1.17.08-1.76-.24-6.9-7.06-12.28-15.23-12-2.08.07-4.07.5-5.84,1.22t-.01.01"/><path class="cls-11" d="m215.42,188.15c-5.2-1.84-8.83-6.23-9.24-11.21-.4-4.83,2.38-8.34,3.08-9.17-2.74-2.38-5.48-4.76-8.22-7.13h31.84l-6.16,6.11c4.18,1.8,6.98,5.76,7.19,10.19.31,6.31-4.81,9.97-5.14,10.19"/><ellipse class="cls-4" cx="219.02" cy="152.48" rx="1.03" ry="4.59"/><path class="cls-12" d="m340.02,343.3c-.28,10.73-1.9,18.96-2.91,23.36,0,0-.47,2.06-1.43,5.35-1.72,5.91-4.98,15.79-9.88,24.86l-256.99.23c-6.21-11.78-8.87-23.99-9.01-24.65-.07-.35-.14-.7-.21-1.05-1.94-9.81-2.04-19.1-1.08-27.53,2.54-22.13,12.38-38.54,15.66-43.86,8.7-14.07,19.42-24.14,28.72-31.08,4.17-3.13,8.05-5.63,11.34-7.56h190.01c3.48,2.46,7.86,5.92,12.3,10.59,2.42,2.55,4.88,5.44,7.21,8.73,8.53,12.03,11.13,23.02,13.35,32.84,2.5,11.06,3.13,21.22,2.91,29.77Z"/><path class="cls-2" d="m207.42,244.1c-7.24-17.77-27.62-30.57-51.62-30.57-30.06,0-54.43,20.07-54.43,44.84,0,3.45.47,6.83,1.38,10.06,2.04,7.36,6.29,14.02,12.13,19.49"/><path class="cls-2" d="m207.31,243.83l5.74.27c1.74-4.27,4.23-8.24,7.35-11.83h.01c9.87-11.35,26.02-18.74,44.26-18.74,30.06,0,54.43,20.07,54.43,44.84,0,5.37-1.15,10.53-3.26,15.3-2.32,5.29-5.82,10.12-10.25,14.26"/><rect class="cls-1" x="205.65" y="243.57" width="8.73" height=".51"/><rect class="cls-9" x="166.11" y="245.61" width="85.76" height="22.42"/><line class="cls-5" x1="204.51" y1="254.71" x2="216.03" y2="244.66"/><line class="cls-5" x1="215.74" y1="254.45" x2="204.81" y2="244.91"/><line class="cls-5" x1="210.27" y1="255.8" x2="210.27" y2="243.57"/><path class="cls-17" d="m318.78,398.81s-.03.01-.04.01c-34.96,5.15-75.01,8.89-119.25,9.32-37.81.38-72.58-1.72-103.73-5.12l223.03-4.22Z"/><line class="cls-6" x1="325.29" y1="397.83" x2="325.27" y2="397.83"/><rect class="cls-17" x="68.53" y="392.35" width="256.77" height="17.32"/><path class="cls-15" d="m389.5,388.07c0,36.7-84.84,66.43-189.5,66.43S10.5,424.76,10.5,388.07c0-16.97,18.15-32.46,48.02-44.2-.97,8.44-.86,17.72,1.08,27.53-8.44,3.43-13.15,7.25-13.15,11.26,0,5.3,8.19,10.24,22.36,14.44,3.17.94,6.65,1.83,10.4,2.7,5.02,1.15,10.54,2.23,16.49,3.22h.04c26.71,4.45,62.21,7.15,101.17,7.15,50.1,0,94.48-4.47,121.82-11.36.01,0,.03-.01.04-.01h.01c1.23-.32,2.43-.63,3.59-.96,1.18-.32,2.32-.65,3.42-.98,13.7-4.15,21.58-9.01,21.58-14.21,0-3.78-4.16-7.38-11.7-10.66.96-3.29,1.43-5.35,1.43-5.35,1.01-4.39,2.63-12.63,2.91-23.36,30.73,11.81,49.47,27.52,49.47,44.77Z"/><line class="cls-3" x1="137.6" y1="95.14" x2="144.54" y2="84.6"/><line class="cls-3" x1="274.96" y1="98.26" x2="267.22" y2="89.57"/></svg>