<?xml version="1.0" encoding="UTF-8"?><svg id="Layer_3" xmlns="http://www.w3.org/2000/svg" width="300" height="550" viewBox="0 0 300 550"><defs><style>.cls-1{fill:#fcf;}.cls-1,.cls-2,.cls-3,.cls-4,.cls-5,.cls-6,.cls-7,.cls-8,.cls-9{stroke-miterlimit:10;}.cls-1,.cls-2,.cls-3,.cls-4,.cls-5,.cls-6,.cls-8,.cls-9{stroke:#000;}.cls-2,.cls-3{fill:none;}.cls-3{stroke-linecap:round;}.cls-5{fill:#fffcdf;}.cls-6,.cls-7{fill:#fcc;}.cls-7{stroke:#fcc;stroke-width:1.3px;}.cls-8{fill:#333;}.cls-9{fill:#c1272d;}</style></defs><path class="cls-6" d="m270.73,520.51c-.92,1.39-2.29,2.42-3.87,3,.88.82,1.53,1.85,1.87,3,1.01,3.47-1.41,6.31-2,7-1.87,2.2-5.31,4.01-9,3-1.16-.32-2.12-.86-2.9-1.49.22,1.3.27,2.83-.1,4.49-.25,1.13-1.29,5.8-5,7-2.58.84-5-.47-6-1-3.72-2-6.31-6.41-6-11,.1-1.53.52-2.87,1.02-3.96l-33.29-28.43c-1.13-.02-2.39-.19-3.73-.61-3.08-.98-4.9-2.85-6-4-1.14-1.2-5.2-5.45-5-12,.03-1.01.3-6.7,5-11,.95-.87,5.06-4.63,11-4,5.24.56,8.3,4.14,9,5,1.87,2.32,2.62,4.78,2.9,6.71l24.93-29.31-36.83-30.4,5-20c17.52,15.21,35.05,30.42,52.57,45.63.22-.15,2.15-1.41,4.43-.63.3.1,2.4.86,3,3,.53,1.89-.36,3.96-2,5-1.49.95-3.44.95-5,0l-36.78,41.91,18.69,14.05c2.2-.71,4.93-1.43,8.09-1.96,7.04-1.17,12.08-2.01,15,1,2.18,2.24,3.21,6.66,1,10Z"/><path class="cls-6" d="m257.36,52.51c1.08-5.44,6.95-8.72,12-9,7.4-.41,11.78,5.69,12,6,.5.72,4.11,5.93,2,11-2.25,5.41-9.61,7.28-15,6-6.05-1.44-12.29-7.5-11-14Zm-31.78,2.39c1.08-5.44,6.95-8.72,12-9,7.4-.42,11.79,5.69,12,6,.5.72,4.11,5.93,2,11-2.25,5.41-9.61,7.28-15,6-6.05-1.45-12.29-7.5-11-14Zm.78,60.61c-2.01-2.34-2.57-4.32-2.98-6.4-1.51-.06-3.18,0-5.02.4-7.25,1.57-7.27,6.16-15,10-8.1,4.02-20.48,5.13-26-1-2.98-3.31-4.26-9.06-2-12,2.31-3.01,6.67-.9,15-2,10.3-1.36,11.95-5.67,22-8,1.15-.27,2.45-.51,3.88-.7-2.76-2.37-5.15-3.52-5.88-7.3-.05-.25-.99-5.49,2-8,3.02-2.53,8.16-.67,10,0,9.65,3.5,8.48,10.64,17,15,8.52,4.37,14.29-.42,20,5,2.93,2.78,4.84,7.3,4,11-1.92,8.41-16.43,12.98-27,10-1.64-.46-6.41-1.81-10-6ZM55.04,345.18c3.32-4.7,7.35-8.99,12.03-12.5-8.38-6-18.68-8.68-28.8-7.39-10.63-40.01-21.81-109.48,4.09-183.78,8.58-24.62,22.38-63.26,60-95C140.62,14.23,180.43,7.69,188.36,6.51c25.21-3.76,59.79-8.92,85,14,16.51,15.01,27.08,40.31,22,66-7.78,39.33-47.06,53.33-52,55-8.08,2.73-15.89,3.91-23.19,4.08,12.65,10.07,37.81,33.46,33.19,56.92-.47,2.41-2.09,10.64-9,16-.8.62-1.64,1.18-2.52,1.68,14.2,9.62,36.67,34.09,48.52,70.32,17,52-22.83,102.1-78,125l-2.04-.91"/><path class="cls-2" d="m172.36,132.51c3.34,2.09,22.54,13.67,47.81,13.08"/><path class="cls-2" d="m203.36,215.51c13.98,8.56,28.68,10.25,38.48,4.68"/><line class="cls-2" x1="55.04" y1="345.18" x2="54.59" y2="344.98"/><path class="cls-6" d="m55.04,345.18c-8.59,12.16-12.44,27.06-10.68,38.33,1.53,9.8,6.73,17.63,14.75,23.34-5.62,1.04-11.97,1.21-18.75-.34-17.08-3.91-36.91-18.8-37-41-.06-16.65,11-33.81,29-39,1.95-.56,3.93-.97,5.91-1.22,10.12-1.29,20.42,1.39,28.8,7.39-4.68,3.51-8.71,7.8-12.03,12.5Z"/><path class="cls-6" d="m55.04,345.18c-8.59,12.16-12.44,27.06-10.68,38.33,1.53,9.8,6.73,17.63,14.75,23.34,15.17,10.82,40.44,14.08,70.11,8.8.9-.16,1.8-.32,2.71-.5,16.01-3.83,21.26-2.58,22.57-.18.84,1.55-.28,2.96.84,5.34,1.67,3.53,6.86,6.14,11.8,4.96,4.24-1.01,7.52-4.62,8.31-9.15,1.48,3.85,2.7,9.65.53,16.09-3.21,9.54-11.43,13.31-12.78,13.9.03.03.05.07.08.1,3.25,4.27,6.51,8.53,9.75,12.8.07-.04.15-.07.22-.11,3.38-1.67,9.14-5.17,13.54-11.8,4.63-6.97,5.77-14.39,5.67-20.33,1.73,1.09,6.14,3.3,11.03,1.47,3.38-1.26,5.92-4.04,6.88-6.94.68-2.04.65-4.36-.05-6.7"/><path class="cls-2" d="m67.07,332.68c5.03-3.77,10.81-6.64,17.29-8.17,18.46-4.35,34.2,4.16,39,7"/><path class="cls-3" d="m148.36,153.51c-7.02-12.41-22.06-17.34-34-12-10.27,4.59-16.55,16.03-15,28"/><line class="cls-2" x1="107.36" y1="172.51" x2="107.36" y2="217.51"/><line class="cls-2" x1="125.37" y1="172.51" x2="125.37" y2="203.51"/><line class="cls-2" x1="128.36" y1="209.51" x2="148.36" y2="217.51"/><path class="cls-2" d="m150.36,207.51c-3.43-4.37-3.46-9.53-1-12,2.09-2.1,6-3,8-1,1.48,1.48,3.7,9.84,5.62,19.11"/><path class="cls-2" d="m162.98,213.62c4.81-2.45,11.36-3.96,18.38-4.11,2.52-.06,5.43.68,6,3,.71,2.86,0,5-3,7-2.76,1.84-6.29,2.94-9.7,3.56"/><path class="cls-2" d="m174.66,223.07c5.9.98,9.62,3.03,11.7,4.44,1.6,1.09,4.23,2.92,4,5-.25,2.28-3.78,3.56-5,4-4.22,1.53-8.74.84-12.57-.47"/><path class="cls-2" d="m172.79,236.04c3.99,3.03,7.88,7.15,9.57,12.47.52,1.62,1.71,5.38,0,7-1.55,1.46-4.68.43-6,0-4.28-1.4-7.75-4.89-10.42-8.65"/><path class="cls-2" d="m165.94,246.86c.95,3.1,1.3,5.71,1.42,7.65.23,3.68-.37,4.66-1,5-1.79.98-5.28-2.32-6-3-4.21-3.98-5.66-10.07-6.02-15.55"/><line class="cls-2" x1="154.34" y1="240.96" x2="116.36" y2="221.51"/><path class="cls-2" d="m259.36,73.51c.84,2.13,2.32,4.75,5,6,4.57,2.14,8.76-1.5,12,1,2.05,1.58,2.56,4.73,2,7-1.12,4.55-6.65,5.92-7,6-5.58,1.3-12.49-3.06-17-11"/><path class="cls-5" d="m283.36,60.51c-2.25,5.41-9.61,7.28-15,6-6.05-1.44-12.29-7.5-11-14,1.08-5.44,6.95-8.72,12-9,7.4-.41,11.78,5.69,12,6,.5.72,4.11,5.93,2,11Z"/><path class="cls-5" d="m251.58,62.9c-2.25,5.41-9.61,7.28-15,6-6.05-1.45-12.29-7.5-11-14,1.08-5.44,6.95-8.72,12-9,7.4-.42,11.79,5.69,12,6,.5.72,4.11,5.93,2,11Z"/><path class="cls-8" d="m263.36,111.51c-1.92,8.41-16.43,12.98-27,10-1.64-.46-6.41-1.81-10-6-2.01-2.34-2.57-4.32-2.98-6.4,4.09.19,6.98,1.35,8.98-.6,2.05-2,1.72-5.89.69-9.7-.38-1.42-1.56-2.49-3.01-2.73-5.51-.89-10.12-.77-13.8-.27-2.76-2.37-5.15-3.52-5.88-7.3-.05-.25-.99-5.49,2-8,3.02-2.53,8.16-.67,10,0,9.65,3.5,8.48,10.64,17,15,8.52,4.37,14.29-.42,20,5,2.93,2.78,4.84,7.3,4,11Z"/><path class="cls-9" d="m232.36,108.51c-2,1.95-4.89.79-8.98.6-1.51-.06-3.18,0-5.02.4-7.25,1.57-7.27,6.16-15,10-8.1,4.02-20.48,5.13-26-1-2.98-3.31-4.26-9.06-2-12,2.31-3.01,6.67-.9,15-2,10.3-1.36,11.95-5.67,22-8,1.15-.27,2.45-.51,3.88-.7,3.68-.5,8.29-.62,13.8.27,1.45.24,2.63,1.31,3.01,2.73,1.03,3.81,1.36,7.7-.69,9.7Z"/><path class="cls-2" d="m182.61,113.82c6.05,2.37,10.33,1.97,13.1,1.19,7.14-2.01,9.05-7.9,17.34-11.1,4.32-1.67,8.31-1.81,10.92-1.68"/><circle class="cls-4" cx="244.36" cy="59.51" r="2.5"/><circle class="cls-4" cx="276.36" cy="56.51" r="2.5"/><path class="cls-4" d="m278.36,322.51c.77-1.3,2.79-1.33,4-1,1.42.39,2.6,1.54,3,3,.35,1.29.22,3.25-1,4-1.54.95-3.9-.61-5-2-.25-.32-1.93-2.43-1-4Z"/><path class="cls-4" d="m239.36,207.51c.88-.52,2.31.01,3,1,.54.78.84,2.16,0,3-.82.82-2.23.63-3,0-1.23-1.01-1.13-3.34,0-4Z"/><path class="cls-2" d="m190.72,415.34c.36,1.15,1.65,5.58,1.74,11.43"/><path class="cls-1" d="m173.25,458.9c-2.21,2.58-7.29,7.58-13.39,8.11-1.44.13-5.32.46-9-2-.34-.23-1.06-.71-1.86-1.48.47.01,1.6-.43,2.82-1.13,1.5-.87,2.58-1.82,2.41-2.11-.17-.3-1.53.16-3.04,1.03-1.31.76-2.3,1.57-2.42,1.97-1.17-1.16-2.41-2.9-2.91-5.28-.22-1.07-.66-4.04,1-7,1.9-3.38,5.26-4.45,7-5,3.29-1.04,7.27-.34,9.42.2,3.25,4.27,6.51,8.53,9.75,12.8.07-.04.15-.07.22-.11Z"/><path class="cls-2" d="m149,463.53c-.08-.07-.16-.15-.23-.23h0"/><path class="cls-2" d="m151.82,462.4c-1.22.7-2.35,1.14-2.82,1.13-.11,0-.19-.03-.22-.09-.02-.04-.03-.08-.01-.14h0c.12-.41,1.11-1.22,2.42-1.98,1.51-.87,2.87-1.33,3.04-1.03.17.29-.91,1.24-2.41,2.11Z"/><line class="cls-6" x1="63.36" y1="453.01" x2="63.36" y2="453"/><path class="cls-6" d="m122.84,449.82c.8,2.02.93,3.96.05,5.08-1.13,1.42-4.13,1.78-7.45.29l-42.79,10.27,6.42,19.33c6.31.05,10.64,1.95,12.82,3.11,2.94,1.57,6.58,3.52,7,7,.41,3.41-2.45,6.61-5,8-3.05,1.67-7.06,1.5-10.88-.35.28,2.51-.49,4.87-2.12,6.35-3.03,2.76-7.57,1.16-8,1-1.54-.57-2.89-1.59-3.98-2.95-.87,1.73-2.27,3.14-4.02,3.95-4.99,2.31-9.63-1.67-10-2-4.62-4.11-3.09-10.66-3-11,.81-3.24,3.05-5.96,6.07-7.58l-6.81-33.05c-4.18.66-8.14-.61-10.26-3.37-3.59-4.67-.36-11.64,3-15,5.12-5.11,15.47-6.77,20-1,2.95,3.76,2.92,10-.53,15.1l48.16-15.05,35.21-42.05,19.66,4.5-43.55,49.42Z"/><polyline class="cls-6" points="63.36 453 63.36 453.01 59.6 454.18"/><line class="cls-6" x1="72.65" y1="465.46" x2="60.39" y2="468.4"/><line class="cls-6" x1="81.93" y1="493.4" x2="79.07" y2="484.79"/><path class="cls-6" d="m83.01,502.55c-1.79-.86-3.53-2.08-5.12-3.65"/><path class="cls-6" d="m68.91,506.95c-2-2.47-3.14-6.05-3.02-10.05"/><rect class="cls-7" x="144.87" y="391.62" width="25.71" height="6.88" transform="translate(100.52 -26.46) rotate(14.04)"/></svg>