<?xml version="1.0" encoding="UTF-8"?><svg id="Layer_4" xmlns="http://www.w3.org/2000/svg" width="400" height="250" xmlns:xlink="http://www.w3.org/1999/xlink" viewBox="0 0 400 250"><defs><style>.cls-1{stroke-width:1.19px;}.cls-1,.cls-2,.cls-3,.cls-4,.cls-5,.cls-6,.cls-7,.cls-8{stroke:#000;stroke-miterlimit:10;}.cls-1,.cls-8{fill:none;}.cls-2,.cls-3,.cls-4,.cls-6,.cls-8{stroke-width:1.07px;}.cls-2,.cls-7{fill:#603813;}.cls-3{fill:#ffb49e;}.cls-4{fill:url(#Sky);}.cls-5{fill:#f9fff3;}.cls-6{fill:#1a1a1a;}</style><linearGradient id="Sky" x1="3.39" y1="228.14" x2="396.61" y2="228.14" gradientUnits="userSpaceOnUse"><stop offset="0" stop-color="#cce0f4"/><stop offset=".06" stop-color="#c2dcf2"/><stop offset=".17" stop-color="#a9d2ee"/><stop offset=".31" stop-color="#7fc2e7"/><stop offset=".46" stop-color="#46abdd"/><stop offset=".57" stop-color="#1e9cd7"/><stop offset=".87" stop-color="#0075be"/><stop offset=".99" stop-color="#005b97"/></linearGradient></defs><path class="cls-3" d="m278.68,19.13c-89.37-38.8-174.68,13.54-180.34,17.14C40.12,73.32,5.01,139.28,3.45,211.17c16.91,1.8,38.35,3.89,63.2,5.86,24.59,1.96,52.54,4.17,86.9,5.18,19.36.57,43.06.21,90.44-.51,78.28-1.19,98.74-2.58,115.9-4.14,13.89-1.26,26.29-2.71,36.72-4.07-.22-86.85-46.96-163.54-117.93-194.36Zm44.64,90.01c3.32-7.63,12.83-9.07,16.72-9.66,4.55-.69,10.87-1.65,15.59,2.65,3.81,3.47,5.03,8.95,4.11,13.53-1.23,6.18-6.08,9.33-7.52,10.27-7.04,4.58-14.85,2.56-17.94,1.76-3.6-.93-7.44-1.93-9.96-5.55-2.77-3.98-2.63-9.25-1-13Zm-44.13,18.47c-2.78-3.99-2.63-9.25-1-13.01,3.32-7.63,12.82-9.07,16.72-9.66,4.55-.69,10.87-1.64,15.59,2.65,3.8,3.47,5.03,8.95,4.11,13.53-1.23,6.19-6.08,9.34-7.52,10.27-7.05,4.58-14.85,2.56-17.94,1.76-3.6-.93-7.45-1.93-9.96-5.54Zm11.25,56.74c-7.27-5.8-9.91-16.31-6.24-25.83,5.54,11.95,10.25,14.45,13.5,14.55,3.9.12,5.47-3.19,11.48-3.78,4.37-.43,11.1.58,12.6,4.39,1.57,4.01-3.21,9.63-7.38,12.28-6.75,4.29-16.94,4-23.96-1.61Zm43.51,20.81c-3.28,3.51-8.96,2.2-10.26,1.89-.67-.15-9.09-2.23-10.07-9.14-.54-3.8,1.4-7.48,4.07-9.62.62-.49,2.95-2.3,6.29-2.33,6.56-.05,10.13,6.85,10.28,7.16.18.36,3.72,7.72-.31,12.04Zm27.58-13.06c-8.06,3.97-18.08,2.06-23.75-3.59-3.5-3.49-6.95-10.01-4.55-13.58,2.28-3.4,9.07-2.93,13.25-1.57,5.73,1.87,6.56,5.44,10.39,6.16,3.2.6,8.34-.82,16.32-11.29,1.53,10.08-3.31,19.77-11.66,23.87Z"/><path class="cls-4" d="m396.61,213.49c.02,10.42-.62,20.98-1.97,31.62l-156.76-.03c-1.38-3.79-3.85-7.16-7.24-9.57-6.78-4.85-15.47-4.73-22-1.07-5.13,2.87-7.8,7.29-9.15,10.63l-194.31-.04c-1.42-11.37-1.98-22.69-1.73-33.86,16.91,1.8,38.35,3.89,63.2,5.86,24.59,1.96,52.54,4.17,86.9,5.18,19.36.57,43.06.21,90.44-.51,78.28-1.19,98.74-2.58,115.9-4.14,13.89-1.26,26.29-2.71,36.72-4.07Z"/><path class="cls-1" d="m79.98,130.01l.06,26.54c-5.85,1.19-11.12,4.97-14.01,10.2-1.32,2.38-2.16,5.2-1.47,7.84.69,2.63,3.31,4.87,5.99,4.4,1.29-.23,2.4-1.01,3.41-1.84,2.96-2.44,5.41-5.51,7.13-8.94-.58,3.26-1.16,6.6-.66,9.87s2.29,6.54,5.29,7.94c1.09.51,2.39.74,3.47.21,1.62-.8,2.04-2.87,2.26-4.65.51-4,1.02-7.99,1.53-11.99.65,2.82,1.57,5.64,3.26,7.99,1.7,2.35,4.27,4.18,7.16,4.43,2.88.25,5.99-1.38,6.95-4.11.7-2,.21-4.26-.83-6.11-1.04-1.85-2.57-3.36-4.09-4.84-1.77-1.74-3.56-3.46-5.33-5.2l-.07-32.86"/><path class="cls-8" d="m324.91,158.91c10.44,2.67,28.77,5.61,41.63-3.51,2.04-1.45,7.86-5.58,7.05-9.29-.76-3.47-7.13-5.7-12.49-5.39-8.81.52-10.09,7.65-20.19,9.87-2.1.46-10.7,2.35-16.79-2.84-7.06-6.01-5.26-16.85-5.12-17.66"/><path class="cls-2" d="m361.53,192.1c-8.06,3.97-18.08,2.06-23.75-3.59-3.5-3.49-6.95-10.01-4.55-13.58,2.28-3.4,9.07-2.93,13.25-1.57,5.73,1.87,6.56,5.44,10.39,6.16,3.2.6,8.34-.82,16.32-11.29,1.53,10.08-3.31,19.77-11.66,23.87Z"/><path class="cls-2" d="m314.4,185.96c-6.75,4.29-16.94,4-23.96-1.61-7.27-5.8-9.91-16.31-6.24-25.83,5.54,11.95,10.25,14.45,13.5,14.55,3.9.12,5.47-3.19,11.48-3.78,4.37-.43,11.1.58,12.6,4.39,1.57,4.01-3.21,9.63-7.38,12.28Z"/><path class="cls-6" d="m333.95,205.16c-3.28,3.51-8.96,2.2-10.26,1.89-.67-.15-9.09-2.23-10.07-9.14-.54-3.8,1.4-7.48,4.07-9.62.62-.49,2.95-2.3,6.29-2.33,6.56-.05,10.13,6.85,10.28,7.16.18.36,3.72,7.72-.31,12.04Z"/><path d="m291.19,88.49c.06.28,0-.03.42-.05.28-.01.43.12.62.32.62.62.81,1.64,1.03,2.45.29,1.08,1.72,1.47,2.51.66,1.12-1.15,1.73-2.68,1.53-4.29l-1.9,1.45c.3.08.55.17.75.43.59.77,2.1,1.16,2.59,0,.39-.91.77-1.83,1.16-2.74l-2.36.3c.68.82,1.23,1.75,1.62,2.74s1.71,1.61,2.51.66c.06-.07.29-.35.42-.17.72,1.05,2.36.94,2.74-.36.25-.84.5-1.69.76-2.53l-2.2.9c1.02.51,2.09.66,3.18.25l-1.46-.39c.5.61,1,1.22,1.51,1.83,1.01,1.22,2.83-.11,2.51-1.46.05.2.14-.06.24.05.7.81,1.82.4,2.36-.3.49-.63.98-1.26,1.46-1.9l-1.69.69c.63.12,1.06.34,1.42.88.76,1.17,2.25.81,2.74-.36.16-.38.32-.76.48-1.14l-1.85,1.05c.92.28,1.77.1,2.59-.38.33-.19.8-.46,1.06-.75.07-.07.16-.12.26-.14.37-.02.26-.25-.32-.7.12,1.51,1.93,2.01,2.8.76.54-.78,1.08-1.55,1.62-2.33h-2.59c.45.85.89,1.69,1.34,2.54.5.96,2.1,1,2.59,0l.97-1.99-2.36.3,1.62,1.86c.72.82,2.29.41,2.51-.66.28-1.37.55-2.74.83-4.11l-2.74.36c.8,1.15,1.7,2.17,2.81,3.03.66.52,1.46.6,2.12,0,.54-.49,1.18-.81,1.92-.88l-1.06-.44c.36.47.73.94,1.09,1.41.6.77,1.93.46,2.36-.3.29-.52.57-1.04.86-1.55l-2.36.3c.51.43,1.02.85,1.54,1.28.58.48,1.57.67,2.12,0,.78-.95,1.57-1.9,2.35-2.85l-2.36-.3c.78,1.06,1.86,1.64,3.2,1.51.58-.06,1.11-.25,1.58-.59.29-.21.52-.45.73-.74l.2-.3c.45-.55.1-.85-1.06-.9.17.79,1.1,1.26,1.85,1.05,1.14-.32,1.97-1.31,1.83-2.53-.21-1.9-3.21-1.92-3,0l.37-.36,1.85,1.05c-.27-1.28-1.72-1.87-2.89-1.4-.62.25-1.01.73-1.36,1.28-.09.15-.44.8-.71.44-.52-.7-1.68-1.12-2.36-.3-.78.95-1.57,1.9-2.35,2.85h2.12c-.51-.43-1.02-.85-1.54-1.28-.72-.6-1.85-.61-2.36.3-.29.52-.57,1.04-.86,1.55l2.36-.3c-.94-1.21-1.45-2.05-3.1-1.73-1.18.23-2.21.83-3.09,1.63h2.12c-.9-.7-1.69-1.48-2.34-2.42s-2.47-1-2.74.36-.55,2.74-.83,4.11l2.51-.66c-.54-.62-1.08-1.24-1.62-1.86-.61-.69-1.95-.53-2.36.3l-.97,1.99h2.59c-.45-.85-.89-1.69-1.34-2.54-.56-1.07-1.99-.87-2.59,0-.54.78-1.08,1.55-1.62,2.33l2.8.76c-.11-1.35-1.04-2.25-2.42-2.3-.61-.02-1.27.12-1.82.41-.35.19-1.18,1.08-1.56.96-.85-.26-1.54.31-1.85,1.05-.16.38-.32.76-.48,1.14l2.74-.36c-.76-1.17-1.82-1.98-3.21-2.26-.73-.15-1.26.12-1.69.69-.49.63-.98,1.26-1.46,1.9l2.36-.3c-2.02-2.34-5.94.01-5.25,2.87l2.51-1.46c-.5-.61-1-1.22-1.51-1.83-.31-.37-1.01-.56-1.46-.39-.33.13-.54.22-.86.05-.87-.44-1.91-.08-2.2.9-.25.84-.5,1.69-.76,2.53l2.74-.36c-1.17-1.69-3.71-2.12-5.13-.44l2.51.66c-.59-1.5-1.36-2.81-2.39-4.06-.56-.69-2-.54-2.36.3-.39.91-.77,1.83-1.16,2.74h2.59c-.68-.9-1.45-1.51-2.55-1.81-.85-.24-2.02.46-1.9,1.45.1.87-.03,1.53-.66,2.17l2.51.66c-.56-2.12-1.65-4.8-4.22-4.95-2.17-.13-4.12,1.6-3.63,3.83.41,1.89,3.31,1.09,2.89-.8h0Z"/><path class="cls-5" d="m314.61,121.12c-1.23,6.19-6.08,9.34-7.52,10.27-7.05,4.58-14.85,2.56-17.94,1.76-3.6-.93-7.45-1.93-9.96-5.54-2.78-3.99-2.63-9.25-1-13.01,3.32-7.63,12.82-9.07,16.72-9.66,4.55-.69,10.87-1.64,15.59,2.65,3.8,3.47,5.03,8.95,4.11,13.53Z"/><path class="cls-7" d="m305.83,112.57c1.46.45,2.36,2.06,2.66,3.31.43,1.8-.19,3.77-1.54,4.86-2.59,2.1-7.15.36-7.84-1.86-.85-2.7,3.62-7.27,6.72-6.31Z"/><path class="cls-5" d="m359.74,115.66c-1.23,6.18-6.08,9.33-7.52,10.27-7.04,4.58-14.85,2.56-17.94,1.76-3.6-.93-7.44-1.93-9.96-5.55-2.77-3.98-2.63-9.25-1-13,3.32-7.63,12.83-9.07,16.72-9.66,4.55-.69,10.87-1.65,15.59,2.65,3.81,3.47,5.03,8.95,4.11,13.53Z"/><path class="cls-7" d="m350.96,107.1c1.46.45,2.36,2.06,2.66,3.31.43,1.8-.19,3.77-1.54,4.86-2.59,2.1-7.15.36-7.84-1.86-.85-2.7,3.62-7.27,6.72-6.31Z"/></svg>