<?xml version="1.0" encoding="UTF-8"?><svg id="Layer_5" xmlns="http://www.w3.org/2000/svg" width="520" height="860" viewBox="0 0 520 860"><defs><style>.cls-1{fill:none;}.cls-1,.cls-2,.cls-3,.cls-4,.cls-5,.cls-6,.cls-7,.cls-8,.cls-9,.cls-10,.cls-11{stroke-miterlimit:10;}.cls-1,.cls-2,.cls-4,.cls-5,.cls-6,.cls-7,.cls-8,.cls-9,.cls-10,.cls-11{stroke:#000;}.cls-1,.cls-2,.cls-7,.cls-10{stroke-width:2.03px;}.cls-2{fill:#933;}.cls-3{fill:#4d4d4d;stroke:#999;stroke-width:2.03px;}.cls-4{stroke-width:2.05px;}.cls-4,.cls-8{fill:#ffb49e;}.cls-5{fill:#f2f2f2;}.cls-5,.cls-8,.cls-11{stroke-width:2px;}.cls-6{fill:#f9fff3;}.cls-6,.cls-9{stroke-width:1.95px;}.cls-7{fill:#ccc;}.cls-10{fill:#fff;}.cls-11{fill:#ed1c24;}</style></defs><path class="cls-5" d="m361.27,199.59c-3.94,7.98-8.1,18.1-11.27,30.12-.04.14-.07.28-.11.42-4.16-.05-8.13.09-11.9.36-24.05,1.73-26.87,7.97-55,10-34.32,2.47-35.98-6.43-69-3-19.26,2-27.19,5.92-40.5,6.3-1.05-4.84-2.29-9.53-3.49-14.08-3.17-12.02-7.33-22.14-11.27-30.12,7.37.09,16.7.9,30.27,2.12,27.35,2.47,51.29,4.8,70.99,6.78h.01c19.7-1.98,43.65-4.31,71-6.78,13.57-1.22,22.9-2.03,30.27-2.12Z"/><path class="cls-11" d="m391.5,650.39c-13.91-.73-25.71-.68-35.01-.4-13.15.4-25.34,1.39-45,3-8.62.71-16.33,1.4-22.85,2.01-1.88-19.1-3.76-38.19-5.64-57.29-.14-3.32-1.34-12.85-6.05-21.32,7.68,2.83,17.09,5.34,27.89,6.25,19.92,1.69,26.6-3.57,50-6,14.83-1.54,23.33-.59,31.31.69,1.78,24.35,3.57,48.71,5.35,73.06Z"/><path class="cls-8" d="m402,793.71c-11.73,4.12-27.71,8.43-47,10-21.2,1.73-39.12-.44-52-3-4.79-48.57-9.57-97.14-14.36-145.71,6.52-.61,14.23-1.3,22.85-2.01,19.66-1.61,31.85-2.6,45-3,9.3-.28,21.1-.33,35.01.4,3.5,47.77,7,95.55,10.5,143.32Z"/><path class="cls-8" d="m470,433.71c-3.8,2.2-12.58-5.7-17-11-2.04-2.44-3.65-4.93-4.93-7.32-1.05-3.36-2.39-6.93-4.07-10.68.7,2.81,1.9,6.6,4.07,10.68,2.75,8.68,3.66,15.96,3.93,21.32.45,8.91-.97,10.52-2,11-4.49,2.08-14.48-11.29-15-12-1.87-2.53-4.05-5.96-6.02-10.39-.9-3.9-2.18-8.12-3.98-12.61.99,4.89,2.42,9.07,3.98,12.61,1.6,6.9,2.03,12.8,2.02,17.39,0,4.86-.01,13.12-3,14-3.43,1.01-9.21-8.18-12-14-1.71-3.57-2.91-7.16-3.7-10.67-.06-4.97-.44-10.43-1.3-16.33-.27,4.98-.02,10.56,1.3,16.33.08,7.36-.53,13.63-1.3,18.67-1.15,7.52-2.82,18.41-7,19-4.53.64-9.94-11.29-12-17-3.04-8.42-7.89-28.53,7-60-11.33-34.67-22.67-69.33-34-104,.75,10.21,1.5,20.42,2.24,30.63-7.3-6.87-14.7-16.28-19.24-28.63-.65-1.78-1.22-3.55-1.7-5.31h-.01c-5.57-20.1-.78-38.66,3.6-55.27.04-.14.07-.28.11-.42,3.17-12.02,7.33-22.14,11.27-30.12,8.69-.1,14.68.78,21.73,3.12,32.02,10.63,47.64,38.63,50,43,7.03,13.03,8.98,24.53,11,41,2.99,24.29,5.93,57.79,6,99,13.58,12.16,18.19,24.13,20,31,.73,2.79,3.89,14.75,0,17Z"/><path class="cls-11" d="m346.29,285.4c-14.91-6.38-27.78-7.5-38.41-6.4-16.67,1.73-18.62,7.98-38.11,10-23.78,2.47-24.94-6.43-47.82-3-16.21,2.44-20.84,7.69-34.65,6-5.32-.65-10.15-2.1-14.41-3.9,5.09-15.76,3.59-30.59.6-44.31,13.31-.38,21.24-4.3,40.5-6.3,33.02-3.43,34.68,5.47,69,3,28.13-2.03,30.95-8.27,55-10,3.77-.27,7.74-.41,11.9-.36-4.38,16.61-9.17,35.17-3.6,55.27Z"/><path class="cls-5" d="m368.99,343.07c-19.39-7.85-36.02-9.26-49.55-8.07-19.61,1.73-21.91,7.98-44.85,10-27.98,2.47-29.34-6.43-56.26-3-19.08,2.44-24.53,7.69-40.77,6-10.57-1.1-19.5-4.49-26.33-7.96.51-6.9,1.01-13.79,1.52-20.69h.01c7.3-6.88,14.7-16.29,19.24-28.64.32-.87.62-1.75.89-2.61,4.26,1.8,9.09,3.25,14.41,3.9,13.81,1.69,18.44-3.56,34.65-6,22.88-3.43,24.04,5.47,47.82,3,19.49-2.02,21.44-8.27,38.11-10,10.63-1.1,23.5.02,38.41,6.4h.01c.48,1.76,1.05,3.53,1.7,5.31,4.54,12.35,11.94,21.76,19.24,28.63h.01c.58,7.92,1.16,15.82,1.74,23.73Z"/><path class="cls-8" d="m172.89,288.1c-.27.86-.57,1.74-.89,2.61-4.54,12.35-11.94,21.76-19.24,28.63.74-10.21,1.49-20.42,2.24-30.63-11.33,34.67-22.67,69.33-34,104,14.89,31.47,10.04,51.58,7,60-2.06,5.71-7.47,17.64-12,17-4.18-.59-5.85-11.48-7-19-.77-5.04-1.38-11.31-1.3-18.67,1.32-5.77,1.57-11.35,1.3-16.33-.86,5.9-1.24,11.36-1.3,16.33-.79,3.51-1.99,7.1-3.7,10.67-2.79,5.82-8.57,15.01-12,14-2.99-.88-3-9.14-3-14-.01-4.59.42-10.49,2.02-17.39,1.56-3.54,2.99-7.72,3.98-12.61-1.8,4.49-3.08,8.71-3.98,12.61-1.97,4.43-4.15,7.86-6.02,10.39-.52.71-10.51,14.08-15,12-1.03-.48-2.45-2.09-2-11,.27-5.36,1.18-12.64,3.93-21.32,2.17-4.08,3.37-7.87,4.07-10.68-1.68,3.75-3.02,7.32-4.07,10.68-1.28,2.39-2.89,4.88-4.93,7.32-4.42,5.3-13.2,13.2-17,11-3.89-2.25-.73-14.21,0-17,1.81-6.87,6.42-18.84,20-31,.07-41.21,3.01-74.71,6-99,2.02-16.47,3.97-27.97,11-41,2.36-4.37,17.98-32.37,50-43,7.05-2.34,13.04-3.22,21.73-3.12,3.94,7.98,8.1,18.1,11.27,30.12,1.2,4.55,2.44,9.24,3.49,14.08,2.99,13.72,4.49,28.55-.6,44.31Z"/><path class="cls-5" d="m377.05,453.19c-20.74-7.46-38.55-8.78-53.1-7.61-21.51,1.72-24.03,7.97-49.19,10-30.7,2.47-32.19-6.44-61.72-3-20.93,2.43-26.91,7.68-44.73,6-9.82-.93-18.36-3.51-25.29-6.39,1.37-18.71,2.74-37.42,4.11-56.13,6.97,3.32,15.91,6.47,26.41,7.52,16.87,1.68,22.54-3.57,42.37-6,27.97-3.44,29.39,5.47,58.47,3,23.83-2.03,26.22-8.28,46.6-10,14.2-1.21,31.69.24,52.1,8.3,1.32,18.1,2.65,36.21,3.97,54.31Z"/><path class="cls-5" d="m386.15,577.33c-7.98-1.28-16.48-2.23-31.31-.69-23.4,2.43-30.08,7.69-50,6-10.8-.91-20.21-3.42-27.89-6.25-3.45-6.2-8.78-11.83-16.95-14.04-8.96,2.43-14.51,8.96-17.89,15.85-17.46-8.28-32.4-9.77-44.51-8.56-17.19,1.73-19.21,7.98-39.32,10-11.92,1.2-18.33-.28-24.47-1.73,1.39-18.98,2.78-37.97,4.17-56.95,15.33-.16,23.86-4.26,45.49-6.32,35.98-3.43,37.8,5.47,75.2,3,30.65-2.02,33.73-8.27,59.94-10,17.31-1.14,38.42.1,62.95,7.11,1.53,20.86,3.06,41.72,4.59,62.58Z"/><path class="cls-11" d="m381.56,514.75c-24.53-7.01-45.64-8.25-62.95-7.11-26.21,1.73-29.29,7.98-59.94,10-37.4,2.47-39.22-6.43-75.2-3-21.63,2.06-30.16,6.16-45.49,6.32,1.68-22.92,3.36-45.85,5.04-68.77,6.93,2.88,15.47,5.46,25.29,6.39,17.82,1.68,23.8-3.57,44.73-6,29.53-3.44,31.02,5.47,61.72,3,25.16-2.03,27.68-8.28,49.19-10,14.55-1.17,32.36.15,53.1,7.61,1.51,20.52,3.01,41.04,4.51,61.56Z"/><path class="cls-11" d="m242.11,578.2c-3.94,7.98-4.98,16.42-5.11,19.51-1.94,19.66-3.87,39.31-5.81,58.97-5.93-.81-12.9-1.73-20.7-2.69-10.81-1.32-17.88-2.19-27-3-12.82-1.14-24.87-2.21-40-2-4.31.06-9.32.23-14.93.62,1.75-23.9,3.5-47.8,5.25-71.7,6.14,1.45,12.55,2.93,24.47,1.73,20.11-2.02,22.13-8.27,39.32-10,12.11-1.21,27.05.28,44.51,8.56Z"/><path class="cls-8" d="m231.19,656.68c-4.73,48.01-9.46,96.02-14.19,144.03-12.88,2.56-30.8,4.73-52,3-19.29-1.57-35.27-5.88-47-10,3.52-48.03,7.04-96.07,10.56-144.1,5.61-.39,10.62-.56,14.93-.62,15.13-.21,27.18.86,40,2,9.12.81,16.19,1.68,27,3,7.8.96,14.77,1.88,20.7,2.69Z"/><path class="cls-11" d="m373.08,398.88c-20.41-8.06-37.9-9.51-52.1-8.3-20.38,1.72-22.77,7.97-46.6,10-29.08,2.47-30.5-6.44-58.47-3-19.83,2.43-25.5,7.68-42.37,6-10.5-1.05-19.44-4.2-26.41-7.52,1.37-18.67,2.74-37.35,4.1-56.02,6.83,3.47,15.76,6.86,26.33,7.96,16.24,1.69,21.69-3.56,40.77-6,26.92-3.43,28.28,5.47,56.26,3,22.94-2.02,25.24-8.27,44.85-10,13.53-1.19,30.16.22,49.55,8.07,1.36,18.6,2.72,37.21,4.09,55.81Z"/><path class="cls-10" d="m312.76,854.48h-22.73c-.72-2.89-1.67-7.47-1.95-13.13,2.17.42,4.53.74,7.02.95,6.8.57,11.98-.04,17.15-.86,0,1.92.03,3.9.1,5.94.08,2.46.22,4.82.41,7.1Z"/><path class="cls-10" d="m329.81,854.48h-17.05c-.18-2.28-.32-4.65-.41-7.1-.07-2.04-.1-4.02-.1-5.94,2.35-.38,4.71-.79,7.2-1.17,2.16-.32,5.54-.52,10.59-.66-.23,2.11-.39,4.37-.45,6.75-.07,2.87.01,5.59.2,8.12Z"/><path class="cls-10" d="m517.33,854.48h-18.77c-.2-1.3-.38-2.66-.51-4.06-.27-2.92-.37-5.68-.32-8.26,6.25-.47,12.86-1.11,19.8-1.96.48,5.7.2,10.6-.19,14.28Z"/><path class="cls-10" d="m479.09,854.48c.04-2.17-.04-4.55-.31-7.1-.16-1.5-.38-2.92-.62-4.27,6.09-.13,12.62-.44,19.57-.94-.04,2.58.05,5.34.32,8.26.13,1.4.3,2.76.51,4.06h-19.47Z"/><path class="cls-10" d="m479.09,854.48h-21.37c-.12-.97-.2-1.99-.25-3.04-.14-3.13.06-5.99.45-8.48,6.11.22,12.86.3,20.24.15.24,1.35.46,2.77.62,4.27.27,2.56.36,4.93.31,7.1Z"/><path class="cls-10" d="m457.46,851.43c.05,1.06.13,2.07.25,3.04h-24.21c.36-2.47.58-5.19.62-8.12.02-1.78-.03-3.47-.14-5.07,4.59.39,8.62.74,12.32,1.01,3.57.26,7.44.49,11.61.65-.39,2.5-.59,5.36-.45,8.48Z"/><path class="cls-10" d="m434.13,846.36c-.04,2.93-.26,5.65-.62,8.12h-24.05c-.17-3.31-.41-6.7-.7-10.15-.13-1.59-.27-3.17-.44-4.72,10.39.45,18.67,1.09,25.66,1.67.11,1.6.16,3.3.14,5.07Z"/><path class="cls-10" d="m409.46,854.48h-21.56c-.33-3.01-.45-5.75-.45-8.12,0-2.58.13-5,.36-7.27,3.31.03,6.48.08,9.79.16,3.82.09,7.38.21,10.73.36.16,1.55.3,3.13.44,4.72.29,3.45.53,6.84.7,10.15Z"/><path class="cls-10" d="m387.89,854.48h-21.62c-.01-2.31-.05-4.68-.13-7.1-.09-2.81-.22-5.54-.39-8.21,9.04-.08,15.79-.12,22.05-.07-.22,2.26-.36,4.69-.36,7.27,0,2.36.11,5.1.45,8.12Z"/><path class="cls-10" d="m366.27,854.48h-18.53c-.02-2.61.02-5.32.13-8.12.09-2.42.23-4.76.43-7.02,2.39-.03,4.95-.05,7.69-.08,3.55-.03,6.78-.06,9.76-.09.16,2.67.29,5.4.39,8.21.08,2.43.12,4.79.13,7.1Z"/><path class="cls-10" d="m348.3,839.34c-.19,2.26-.33,4.61-.43,7.02-.11,2.8-.15,5.51-.13,8.12h-17.93c-.19-2.53-.27-5.25-.2-8.12.06-2.37.21-4.64.45-6.75,4.59-.12,10.56-.2,18.25-.27Z"/><path class="cls-2" d="m514.29,824.03c-2-6.14-4.57-14.03-11.16-20.29-7.66-7.27-17.3-9.06-26.19-9.83h-.01c-1.44-.12-2.85-.22-4.24-.31-4.15-.26-8.8-.52-13.92-.71h-.03c-7.13-.26-15.2-.42-24.15-.37h-.01c-9.91.06-20.9.37-32.92,1.08-5.35,1.75-12.99,4.03-22.32,6.09-11.18,2.48-23.31,5.15-38.56,5.07-9.05-.05-22.55-1.09-38.56-6.09-.98,1.19-2.03,2.53-3.07,4.02,3.32,1.1,6.6,2.98,9.16,6.13.93,1.15,6.34,8.07,4.06,15.22-.26.82-1.42,4.12-7.1,8.12-5.73,4.03-11.92,5.86-17.25,6.62.01.88.04,1.75.08,2.58,2.17.42,4.53.74,7.02.95,6.8.57,11.98-.04,17.15-.86,2.35-.38,4.71-.79,7.2-1.17,2.16-.32,5.54-.52,10.59-.66,4.59-.12,10.56-.2,18.25-.27,2.39-.03,4.95-.05,7.69-.08,3.55-.03,6.78-.06,9.76-.09,9.04-.08,15.79-.12,22.05-.07,3.31.03,6.48.08,9.79.16,3.82.09,7.38.21,10.73.36,10.39.45,18.67,1.09,25.66,1.67,4.59.39,8.62.74,12.32,1.01,3.57.26,7.44.49,11.61.65,6.11.22,12.86.3,20.24.15,6.09-.13,12.62-.44,19.57-.94,6.25-.47,12.86-1.11,19.8-1.96-.41-4.89-1.35-10.37-3.24-16.16Zm-99.44-8.12c-2.8,0-5.07-1.82-5.07-4.06s2.27-4.06,5.07-4.06,5.07,1.82,5.07,4.06-2.27,4.06-5.07,4.06Zm20.29,1.01c-2.8,0-5.07-1.82-5.07-4.06s2.27-4.06,5.07-4.06,5.07,1.82,5.07,4.06-2.27,4.06-5.07,4.06Zm18.27,1.01c-2.8,0-5.07-1.82-5.07-4.06s2.27-4.06,5.07-4.06,5.07,1.82,5.07,4.06-2.27,4.06-5.07,4.06Z"/><path class="cls-7" d="m312.36,824.03c-.26.82-1.42,4.12-7.1,8.12-5.73,4.03-11.92,5.86-17.25,6.62-.06-6.67.87-14.56,4.06-22.85,2.03-5.3,4.58-9.7,7.07-13.23,3.32,1.1,6.6,2.98,9.16,6.13.93,1.15,6.34,8.07,4.06,15.22Z"/><path class="cls-1" d="m415.86,807.8c1.36-2.67,5.71-10.32,14.83-14.04,1.35-.55,2.65-.94,3.89-1.24"/><ellipse class="cls-3" cx="414.85" cy="811.86" rx="5.07" ry="4.06"/><path class="cls-1" d="m436.16,808.81c1.36-2.67,5.71-10.32,14.83-14.04,2.85-1.15,5.53-1.67,7.75-1.89"/><ellipse class="cls-3" cx="435.14" cy="812.87" rx="5.07" ry="4.06"/><path class="cls-1" d="m454.42,809.83c1.36-2.67,5.71-10.32,14.83-14.04,2.83-1.15,5.47-1.66,7.68-1.88"/><ellipse class="cls-3" cx="453.41" cy="813.89" rx="5.07" ry="4.06"/><line class="cls-1" x1="348.3" y1="839.34" x2="348.3" y2="839.33"/><path class="cls-10" d="m207.24,854.48h22.73c.72-2.89,1.67-7.47,1.95-13.13-2.17.42-4.53.74-7.02.95-6.8.57-11.98-.04-17.15-.86,0,1.92-.03,3.9-.1,5.94-.08,2.46-.22,4.82-.41,7.1Z"/><path class="cls-10" d="m190.19,854.48h17.05c.18-2.28.32-4.65.41-7.1.07-2.04.1-4.02.1-5.94-2.35-.38-4.71-.79-7.2-1.17-2.16-.32-5.54-.52-10.59-.66.23,2.11.39,4.37.45,6.75.07,2.87-.01,5.59-.2,8.12Z"/><path class="cls-10" d="m2.67,854.48h18.77c.2-1.3.38-2.66.51-4.06.27-2.92.37-5.68.32-8.26-6.25-.47-12.86-1.11-19.8-1.96-.48,5.7-.2,10.6.19,14.28Z"/><path class="cls-10" d="m40.91,854.48c-.04-2.17.04-4.55.31-7.1.16-1.5.38-2.92.62-4.27-6.09-.13-12.62-.44-19.57-.94.04,2.58-.05,5.34-.32,8.26-.13,1.4-.3,2.76-.51,4.06h19.47Z"/><path class="cls-10" d="m40.91,854.48h21.37c.12-.97.2-1.99.25-3.04.14-3.13-.06-5.99-.45-8.48-6.11.22-12.86.3-20.24.15-.24,1.35-.46,2.77-.62,4.27-.27,2.56-.36,4.93-.31,7.1Z"/><path class="cls-10" d="m62.54,851.43c-.05,1.06-.13,2.07-.25,3.04h24.21c-.36-2.47-.58-5.19-.62-8.12-.02-1.78.03-3.47.14-5.07-4.59.39-8.62.74-12.32,1.01-3.57.26-7.44.49-11.61.65.39,2.5.59,5.36.45,8.48Z"/><path class="cls-10" d="m85.87,846.36c.04,2.93.26,5.65.62,8.12h24.05c.17-3.31.41-6.7.7-10.15.13-1.59.27-3.17.44-4.72-10.39.45-18.67,1.09-25.66,1.67-.11,1.6-.16,3.3-.14,5.07Z"/><path class="cls-10" d="m110.54,854.48h21.56c.33-3.01.45-5.75.45-8.12,0-2.58-.13-5-.36-7.27-3.31.03-6.48.08-9.79.16-3.82.09-7.38.21-10.73.36-.16,1.55-.3,3.13-.44,4.72-.29,3.45-.53,6.84-.7,10.15Z"/><path class="cls-10" d="m132.11,854.48h21.62c.01-2.31.05-4.68.13-7.1.09-2.81.22-5.54.39-8.21-9.04-.08-15.79-.12-22.05-.07.22,2.26.36,4.69.36,7.27,0,2.36-.11,5.1-.45,8.12Z"/><path class="cls-10" d="m153.73,854.48h18.53c.02-2.61-.02-5.32-.13-8.12-.09-2.42-.23-4.76-.43-7.02-2.39-.03-4.95-.05-7.69-.08-3.55-.03-6.78-.06-9.76-.09-.16,2.67-.29,5.4-.39,8.21-.08,2.43-.12,4.79-.13,7.1Z"/><path class="cls-10" d="m171.7,839.34c.19,2.26.33,4.61.43,7.02.11,2.8.15,5.51.13,8.12h17.93c.19-2.53.27-5.25.2-8.12-.06-2.37-.21-4.64-.45-6.75-4.59-.12-10.56-.2-18.25-.27Z"/><path class="cls-2" d="m5.71,824.03c2-6.14,4.57-14.03,11.16-20.29,7.66-7.27,17.3-9.06,26.19-9.83h.01c1.44-.12,2.85-.22,4.24-.31,4.15-.26,8.8-.52,13.92-.71h.03c7.13-.26,15.2-.42,24.15-.37h.01c9.91.06,20.9.37,32.92,1.08,5.35,1.75,12.99,4.03,22.32,6.09,11.18,2.48,23.31,5.15,38.56,5.07,9.05-.05,22.55-1.09,38.56-6.09.98,1.19,2.03,2.53,3.07,4.02-3.32,1.1-6.6,2.98-9.16,6.13-.93,1.15-6.34,8.07-4.06,15.22.26.82,1.42,4.12,7.1,8.12,5.73,4.03,11.92,5.86,17.25,6.62-.01.88-.04,1.75-.08,2.58-2.17.42-4.53.74-7.02.95-6.8.57-11.98-.04-17.15-.86-2.35-.38-4.71-.79-7.2-1.17-2.16-.32-5.54-.52-10.59-.66-4.59-.12-10.56-.2-18.25-.27-2.39-.03-4.95-.05-7.69-.08-3.55-.03-6.78-.06-9.76-.09-9.04-.08-15.79-.12-22.05-.07-3.31.03-6.48.08-9.79.16-3.82.09-7.38.21-10.73.36-10.39.45-18.67,1.09-25.66,1.67-4.59.39-8.62.74-12.32,1.01-3.57.26-7.44.49-11.61.65-6.11.22-12.86.3-20.24.15-6.09-.13-12.62-.44-19.57-.94-6.25-.47-12.86-1.11-19.8-1.96.41-4.89,1.35-10.37,3.24-16.16Zm99.44-8.12c2.8,0,5.07-1.82,5.07-4.06s-2.27-4.06-5.07-4.06-5.07,1.82-5.07,4.06,2.27,4.06,5.07,4.06Zm-20.29,1.01c2.8,0,5.07-1.82,5.07-4.06s-2.27-4.06-5.07-4.06-5.07,1.82-5.07,4.06,2.27,4.06,5.07,4.06Zm-18.27,1.01c2.8,0,5.07-1.82,5.07-4.06s-2.27-4.06-5.07-4.06-5.07,1.82-5.07,4.06,2.27,4.06,5.07,4.06Z"/><path class="cls-7" d="m207.64,824.03c.26.82,1.42,4.12,7.1,8.12,5.73,4.03,11.92,5.86,17.25,6.62.06-6.67-.87-14.56-4.06-22.85-2.03-5.3-4.58-9.7-7.07-13.23-3.32,1.1-6.6,2.98-9.16,6.13-.93,1.15-6.34,8.07-4.06,15.22Z"/><path class="cls-1" d="m104.14,807.8c-1.36-2.67-5.71-10.32-14.83-14.04-1.35-.55-2.65-.94-3.89-1.24"/><ellipse class="cls-3" cx="105.15" cy="811.86" rx="5.07" ry="4.06"/><path class="cls-1" d="m83.84,808.81c-1.36-2.67-5.71-10.32-14.83-14.04-2.85-1.15-5.53-1.67-7.75-1.89"/><ellipse class="cls-3" cx="84.86" cy="812.87" rx="5.07" ry="4.06"/><path class="cls-1" d="m65.58,809.83c-1.36-2.67-5.71-10.32-14.83-14.04-2.83-1.15-5.47-1.66-7.68-1.88"/><ellipse class="cls-3" cx="66.59" cy="813.89" rx="5.07" ry="4.06"/><line class="cls-1" x1="171.7" y1="839.34" x2="171.7" y2="839.33"/><path class="cls-4" d="m424.99,108.28c-18.54-6.9-28.83,5.12-43-2.07-7.18-3.64-11.21-11.81-19-28-13.83-28.75-10.78-37.64-20-49.77-12.61-16.59-33.37-19.82-46-21.77-32.92-5.11-68.65,7.31-93,32.14-26.26,26.79-31.11,59.68-35,86.06-4.62,31.32-1.34,57.73,2.17,74.93,17.21,15.22,52.54,25.65,93.33,25.65,32.57,0,61.67-6.66,80.83-17.09-.46-4.34-.67-10.84.81-17.75-2.92.81-6.33,1.46-10.14,1.66-4.84.25-9.96-.87-20-3.11-16.85-3.76-19.78-5.7-22-8.3-.98-1.13-5.16-6-4-11.41,1.43-6.64,9.82-9.01,11-9.33,7.48-2.01,14.29,1.3,16,2.07,7.8,3.58,21.62,6.05,48.04,2.16,4.83-2.74,9.55-4.21,12.96-5.27,16.3-5.07,21.06.8,36-3.11,14.13-3.7,32.41-14.85,32-26.96-.33-9.62-12.37-17.53-21-20.74Zm-135.09-24.54c-2.23,8.87-14.13,13.32-26.58,9.94-.33-.09-.65-.18-.97-.28-11.91-3.61-19.71-13.24-17.53-21.88,2.23-8.87,14.13-13.31,26.58-9.94,6.04,1.64,11.1,4.81,14.45,8.66,3.56,4.1,5.2,8.94,4.05,13.5Zm52.09-1.13c-2.23,8.87-14.13,13.32-26.58,9.94-.33-.09-.65-.18-.97-.28-11.91-3.61-19.71-13.24-17.53-21.88,2.23-8.87,14.13-13.31,26.58-9.94,6.04,1.64,11.1,4.81,14.45,8.66,3.56,4.1,5.2,8.94,4.05,13.5Z"/><path class="cls-9" d="m289.9,83.74c-2.23,8.87-14.13,13.32-26.58,9.94-.33-.09-.65-.18-.97-.28.56-3.48,1.98-8.46,5.64-13.12,5.59-7.1,13.16-9.34,17.86-10.05,3.56,4.1,5.2,8.94,4.05,13.5Z"/><path class="cls-6" d="m285.85,70.24c-4.7.71-12.27,2.94-17.86,10.05-3.66,4.66-5.08,9.63-5.64,13.12-11.91-3.61-19.71-13.24-17.53-21.88,2.23-8.87,14.13-13.31,26.58-9.94,6.04,1.64,11.1,4.81,14.45,8.66Z"/><path class="cls-9" d="m341.99,82.61c-2.23,8.87-14.13,13.32-26.58,9.94-.33-.09-.65-.18-.97-.28.56-3.48,1.98-8.46,5.64-13.12,5.59-7.1,13.16-9.34,17.86-10.05,3.56,4.1,5.2,8.94,4.05,13.5Z"/><path class="cls-6" d="m337.94,69.11c-4.7.71-12.27,2.94-17.86,10.05-3.66,4.66-5.08,9.63-5.64,13.12-11.91-3.61-19.71-13.24-17.53-21.88,2.23-8.87,14.13-13.31,26.58-9.94,6.04,1.64,11.1,4.81,14.45,8.66Z"/><path class="cls-9" d="m365.03,164.36c-.27.15-.54.3-.81.47-3.55,2.1-7.12,4.93-10.23,8.78-4.3,5.33-6.65,11.31-7.86,17.01-2.92.81-6.33,1.46-10.14,1.66-4.84.25-9.96-.87-20-3.11-16.85-3.76-19.78-5.7-22-8.3-.98-1.13-5.16-6-4-11.41,1.43-6.64,9.82-9.01,11-9.33,7.48-2.01,14.29,1.3,16,2.07,7.8,3.58,21.62,6.05,48.04,2.16Z"/></svg>