<?xml version="1.0" encoding="UTF-8"?><svg id="Layer_3" xmlns="http://www.w3.org/2000/svg" width="370" height="230" viewBox="0 0 370 230"><defs><style>.cls-1,.cls-2{fill:none;}.cls-1,.cls-2,.cls-3,.cls-4,.cls-5,.cls-6,.cls-7,.cls-8,.cls-9{stroke-miterlimit:10;}.cls-1,.cls-3,.cls-5,.cls-6,.cls-7,.cls-8,.cls-9{stroke:#000;}.cls-2,.cls-4{stroke:#fff;}.cls-3{fill:#39b54a;}.cls-4{stroke-width:2px;}.cls-4,.cls-8{fill:#fdff74;}.cls-5{fill:#f9fff3;}.cls-6{fill:#8c6239;}.cls-7{fill:#ffb49e;}.cls-9{fill:#faffff;}</style></defs><path class="cls-7" d="m366.51,226.82h-81.96c1.32-5.8,4.51-15.54,12.89-23.5,7.75-7.36,16.5-9.94,26-12,10.26-2.21,25.22-4.66,44.58-5.19.71,13.31.24,26.92-1.51,40.69Z"/><path class="cls-8" d="m368.02,186.13c-19.36.53-34.32,2.98-44.58,5.19-9.5,2.06-18.25,4.64-26,12-8.38,7.96-11.57,17.7-12.89,23.5h-19.13c-.27-5.47-1.64-12.9-6.98-18.5-6.06-6.36-14.62-7.6-20-8-18.45-1.38-110.23-1.2-236.41.85-.01-.33-.01-.65-.01-.98-.01-2.48.03-4.96.12-7.43l365.41-13.59c.17,1.97.31,3.95.42,5.93.02.34.04.69.05,1.03Z"/><path class="cls-6" d="m283.22,29.73c-28.93,11.2-57.85,22.39-86.78,33.59-.67,11.67-1.33,23.33-2,35-28.63,4.15-62.32,6.92-100,6-24.13-.59-46.39-2.6-66.51-5.37,15.06-26.9,36.26-49.92,62.51-66.63,5.27-3.35,84.74-52.13,168-16,8.66,3.76,16.94,8.25,24.78,13.41Z"/><path class="cls-7" d="m232.64,62.79c.87-6.27,7.91-10.21,14-10,5.75.2,11.45,4.12,13,10,.97,3.67.5,8.74-3,12-5.61,5.24-14.27,1.34-15,1-3.95-1.85-9.87-6.68-9-13Zm15.8,67.53c-7.17,1.04-18-.89-22-9-2.12-4.31-1.51-8.73-1-11,13.33,3,26.67,6,40,9-1.19,1.72-6.87,9.53-17,11Zm44.47-55.53c-5.61,5.24-14.27,1.34-15,1-3.95-1.85-9.87-6.68-9-13,.87-6.27,7.91-10.21,14-10,5.75.2,11.45,4.12,13,10,.97,3.67.5,8.74-3,12ZM41.45,156.46c-3.3.08-7.36.2-12.51.36-9.02.29-16.77.59-22.69.82,4.23-20.82,11.57-40.63,21.68-58.69,20.12,2.77,42.38,4.78,66.51,5.37,37.68.92,71.37-1.85,100-6,.67-11.67,1.33-23.33,2-35,28.93-11.2,57.85-22.39,86.78-33.59,33.3,21.87,58.77,55.63,72.83,95.54-5.29,1.98-11.35,3.92-18.11,5.55-4.95,1.19-8.75,1.85-12.37,2.28-7.87.94-14.85.81-30.63,2.72-2.99.36-5.7.73-8.16,1.09-15.39,2.25-21.6,4.44-31.13,6.09-4.22.72-9.1,1.34-15.71,1.82-11.67.84-12.15.03-25.84-.09-3.43-.02-7.69,0-13.16.09-19.02.34-33.26,1.31-58,3-18.5,1.26-27.75,1.9-38,3-12.76,1.37-19.3,2.45-25.65,3.32"/><path class="cls-7" d="m367.55,179.17L2.14,192.76c.4-11.93,1.78-23.68,4.11-35.12,5.92-.23,13.67-.53,22.69-.82,5.15-.16,9.21-.28,12.51-.36-.21.37-.4.75-.58,1.14-1.14,2.47-1.77,5.34-.89,7.92.88,2.58,3.66,4.62,6.3,3.95,1.27-.32,2.32-1.18,3.27-2.09,2.77-2.65,4.98-5.89,6.44-9.44-.34,3.3-.67,6.66.07,9.89.74,3.23,2.77,6.36,5.87,7.53,1.12.43,2.44.56,3.47-.05,1.56-.91,1.82-3.01,1.92-4.81.21-4.02.42-8.04.63-12.07.86,2.77,1.98,5.51,3.84,7.73,1.87,2.21,4.58,3.85,7.47,3.89,2.9.03,5.87-1.82,6.62-4.61.56-2.05-.1-4.27-1.28-6.03-1.17-1.77-2.81-3.16-4.43-4.53-.29-.25-.59-.49-.88-.74,6.35-.87,12.89-1.95,25.65-3.32,10.25-1.1,19.5-1.74,38-3,24.74-1.69,38.98-2.66,58-3,5.47-.1,9.73-.11,13.16-.09l22.28,25.32,19.27-27.05c9.53-1.65,15.74-3.84,31.13-6.09l21.85,22.55,16.94-26.36c3.62-.43,7.42-1.09,12.37-2.28,6.76-1.63,12.82-3.57,18.11-5.55,5.99,17,9.92,35.11,11.5,53.9Z"/><path class="cls-7" d="m265.42,226.82H3.69c-1.07-8.6-1.62-17.16-1.66-25.65,126.18-2.05,217.96-2.23,236.41-.85,5.38.4,13.94,1.64,20,8,5.34,5.6,6.71,13.03,6.98,18.5Z"/><path class="cls-1" d="m71.97,117.33l2.5,32.76c1.61,1.35,3.21,2.7,4.82,4.05"/><path class="cls-4" d="m255.65,143l-19.27,27.05-22.28-25.32c13.69.12,14.17.93,25.84.09,6.61-.48,11.49-1.1,15.71-1.82Z"/><path class="cls-4" d="m325.57,133.1l-16.94,26.36-21.85-22.55c2.46-.36,5.17-.73,8.16-1.09,15.78-1.91,22.76-1.78,30.63-2.72Z"/><path class="cls-2" d="m265.44,227.32c0-.16,0-.33-.02-.5"/><path class="cls-2" d="m2.03,201.17c-.34,0-.67,0-1.01.02"/><path class="cls-2" d="m368.97,186.1c-.32,0-.63.02-.95.03"/><path class="cls-2" d="m284.55,226.82c-.04.17-.07.34-.11.5"/><path class="cls-5" d="m292.91,74.79c-5.61,5.24-14.27,1.34-15,1-3.95-1.85-9.87-6.68-9-13,.87-6.27,7.91-10.21,14-10,5.75.2,11.45,4.12,13,10,.97,3.67.5,8.74-3,12Z"/><path class="cls-5" d="m256.64,74.79c-5.61,5.24-14.27,1.34-15,1-3.95-1.85-9.87-6.68-9-13,.87-6.27,7.91-10.21,14-10,5.75.2,11.45,4.12,13,10,.97,3.67.5,8.74-3,12Z"/><path class="cls-3" d="m282.97,62.81c.97-1.57,4.23-1.6,6,0,1.34,1.21,2.14,3.64,1,5-1.14,1.36-3.59.92-5,0-1.71-1.11-2.88-3.57-2-5Z"/><path class="cls-3" d="m246.7,62.81c.97-1.57,4.23-1.6,6,0,1.34,1.21,2.14,3.64,1,5-1.14,1.36-3.59.92-5,0-1.71-1.11-2.88-3.57-2-5Z"/><path class="cls-1" d="m277.44,111.32c9.33-1.52,17.25-2.81,25-4,3.35-.52,8.05-1.23,11-5,.34-.43,3.31-4.32,2-7-2.24-4.59-15.6-2.75-21-2-8.19,1.13-15.5,3.44-22,1-1.37-.51-2.98-1.34-4-3-1.95-3.17-.36-7.15,0-8"/><path class="cls-9" d="m265.44,119.32c-1.19,1.72-6.87,9.53-17,11-7.17,1.04-18-.89-22-9-2.12-4.31-1.51-8.73-1-11,13.33,3,26.67,6,40,9Z"/><path class="cls-7" d="m79.29,154.14c.29.25.59.49.88.74,1.62,1.37,3.26,2.76,4.43,4.53,1.18,1.76,1.84,3.98,1.28,6.03-.75,2.79-3.72,4.64-6.62,4.61-2.89-.04-5.6-1.68-7.47-3.89-1.86-2.22-2.98-4.96-3.84-7.73-.21,4.03-.42,8.05-.63,12.07-.1,1.8-.36,3.9-1.92,4.81-1.03.61-2.35.48-3.47.05-3.1-1.17-5.13-4.3-5.87-7.53s-.41-6.59-.07-9.89c-1.46,3.55-3.67,6.79-6.44,9.44-.95.91-2,1.77-3.27,2.09-2.64.67-5.42-1.37-6.3-3.95s-.25-5.45.89-7.92c.18-.39.37-.77.58-1.14"/><path class="cls-1" d="m52.06,119.93l2.02,26.46c-5.33,1.5-10.01,5.2-12.63,10.07"/></svg>