<?xml version="1.0" encoding="UTF-8"?><svg id="Layer_2" xmlns="http://www.w3.org/2000/svg" width="260" height="220" viewBox="0 0 260 220"><defs><style>.cls-1{fill:none;}.cls-1,.cls-2,.cls-3,.cls-4,.cls-5,.cls-6{stroke:#000;stroke-miterlimit:10;}.cls-3{fill:#a7b400;}.cls-4{fill:#f9fff3;}.cls-5{fill:#ffb49e;}.cls-6{fill:#faffff;}</style></defs><path class="cls-3" d="m257.64,182.52c.1,14.21-.72,26.67-1.77,36.91h-103.62c-2.62-11.81-12.95-19.17-21.38-18-7.12.99-13.93,8.21-15.61,18H5.87c-1.92-10.65-4.08-27.02-3.4-47.09,14.37-1.95,25.51-.65,33.4,1.09,9.4,2.07,12.85,4.48,24,6,11.71,1.6,17.04.18,30,0,16.24-.23,17.96,1.85,37,3,18.99,1.15,18.59-.84,49-1,18.64-.1,21.26.63,48,1,13.37.19,24.88.17,33.77.09Z"/><path class="cls-5" d="m251.87,122.43c-8.51-45.22-14.32-76.14-40-98-37.55-31.96-101.23-30.66-143-3C32.12,45.76,21.1,85.02,11.87,115.43c-6.31,20.78-8.84,40.14-9.4,56.91,14.37-1.95,25.51-.65,33.4,1.09,9.4,2.07,12.85,4.48,24,6,11.71,1.6,17.04.18,30,0,16.24-.23,17.96,1.85,37,3,18.99,1.15,18.59-.84,49-1,18.64-.1,21.26.63,48,1,13.37.19,24.88.17,33.77.09-.11-17.62-1.6-37.93-5.77-60.09Zm-94.71-62.81c4.08-4.56,9.61-4.93,11-5,5.77-.29,12.84,2.46,16,9,2.45,5.07,2.49,12.26-2,17-5.99,6.34-15.44,3.48-17,3-2.06-.62-8.53-2.58-11-9-2.05-5.32-.39-11.2,3-15Zm42.72,96.95c-10.05,10.69-29.52,13.18-39.89,2.94-8.22-8.1-6.94-20.44-6.68-22.57,18.01-1.33,36.03-2.66,54.04-3.99.22,2.54.98,14.62-7.47,23.62Zm20.49-76.64c-5.99,6.34-15.44,3.47-17,3-2.07-.63-8.53-2.58-11-9-2.05-5.32-.39-11.21,3-15,4.08-4.56,9.61-4.93,11-5,5.77-.29,12.83,2.46,16,9,2.45,5.07,2.49,12.25-2,17Z"/><path class="cls-1" d="m30.63,116.41v22.31c-4.92.99-9.36,4.16-11.79,8.55-1.11,2-1.82,4.37-1.25,6.58.57,2.22,2.77,4.1,5.03,3.71,1.08-.19,2.02-.84,2.87-1.54,2.49-2.05,4.56-4.62,6.01-7.5-.49,2.74-.99,5.54-.57,8.3.42,2.75,1.91,5.5,4.44,6.68.91.43,2.01.62,2.92.18,1.36-.67,1.72-2.41,1.91-3.91.43-3.36.87-6.72,1.3-10.08.54,2.37,1.31,4.74,2.73,6.72,1.42,1.98,3.59,3.52,6.01,3.74s5.03-1.15,5.85-3.44c.59-1.68.18-3.58-.69-5.14s-2.16-2.83-3.43-4.07c-1.49-1.46-2.98-2.92-4.47-4.38v-27.62"/><path class="cls-6" d="m199.88,156.57c-10.05,10.69-29.52,13.18-39.89,2.94-8.22-8.1-6.94-20.44-6.68-22.57,18.01-1.33,36.03-2.66,54.04-3.99.22,2.54.98,14.62-7.47,23.62Z"/><path class="cls-1" d="m196.37,116.93c3.55.25,10.37.24,18-3,4.85-2.06,11.63-4.06,13-9,.14-.51.58-2.15,0-4-.99-3.17-4.22-4.64-5-5-8.28-3.78-17.25,6.4-26,3-.8-.31-2.71-1.08-4-3-1.81-2.68-1.25-5.87-1-7"/><path class="cls-4" d="m222.37,62.93c-3.17-6.54-10.23-9.29-16-9-1.39.07-6.92.44-11,5-3.39,3.79-5.05,9.68-3,15,2.47,6.42,8.93,8.37,11,9,1.56.47,11.01,3.34,17-3,4.49-4.75,4.45-11.93,2-17Zm-9.5,6.04c-.29,1.76-2.09,3.22-4.09,2.88-1.97-.35-3.19-2.27-2.88-4.09.26-1.56,1.6-2.78,3.09-2.91,2.15-.19,4.24,1.91,3.88,4.12Z"/><path class="cls-4" d="m184.16,63.62c-3.16-6.54-10.23-9.29-16-9-1.39.07-6.92.44-11,5-3.39,3.8-5.05,9.68-3,15,2.47,6.42,8.94,8.38,11,9,1.56.48,11.01,3.34,17-3,4.49-4.74,4.45-11.93,2-17Zm-9.81,7.41c-.29,1.77-2.09,3.23-4.08,2.88-1.97-.34-3.19-2.26-2.88-4.08.26-1.57,1.6-2.78,3.09-2.91,2.15-.2,4.24,1.91,3.87,4.11Z"/><path class="cls-2" d="m174.35,71.03c-.29,1.77-2.09,3.23-4.08,2.88-1.97-.34-3.19-2.26-2.88-4.08.26-1.57,1.6-2.78,3.09-2.91,2.15-.2,4.24,1.91,3.87,4.11Z"/><path class="cls-2" d="m212.87,68.97c-.29,1.76-2.09,3.22-4.09,2.88-1.97-.35-3.19-2.27-2.88-4.09.26-1.56,1.6-2.78,3.09-2.91,2.15-.19,4.24,1.91,3.88,4.12Z"/><path class="cls-1" d="m152.41,213.73s-.03-.07-.04-.11"/><path class="cls-1" d="m119.24,213.99s-.03.07-.04.11"/><path class="cls-1" d="m131.86,9.35c-6.26-1.59-12.84.78-18.56,3.8s-11.19,6.76-17.48,8.23"/><path class="cls-1" d="m113.46,21.6c-6.34,4.05-12.08,9.05-16.96,14.77"/><path class="cls-1" d="m113.28,34.56c4.76-.92,8.01-5.2,10.79-9.17,4.23-6.03,8.45-12.05,12.68-18.08"/><path class="cls-1" d="m128.26,28.25c-3.47,7.88-5.68,16.32-6.51,24.89"/><path class="cls-1" d="m137.82,13.12c0,5.3-2.32,10.28-4.29,15.19-1.97,4.92-3.67,10.29-2.41,15.44"/><path class="cls-1" d="m140.06,33.83c.29,5.35.13,10.73-.48,16.06-.26,2.26-.75,4.77-2.62,6.08"/><path class="cls-1" d="m139.89,12.02c3.81,6.19,5.81,13.48,5.68,20.74-.05,2.95-.45,5.92-.05,8.84"/><path class="cls-1" d="m153.15,31.31c.32,2.03,1.79,3.7,3.41,4.97s3.46,2.27,4.97,3.66,2.73,3.34,2.56,5.39"/><path class="cls-1" d="m144.49,9.99c5.67,4.95,11.34,9.91,17.01,14.86,4.35,3.8,9.08,7.77,14.82,8.39"/><path class="cls-1" d="m170.18,21.64c6.95.49,13.44,5.16,16.12,11.6"/><path class="cls-1" d="m142.62,7.89c10.23-.45,18.56,9.34,28.8,9.72,1.87.07,3.74-.18,5.59.07s3.76,1.14,4.57,2.82"/></svg>