<?xml version="1.0" encoding="UTF-8"?><svg id="Layer_4" xmlns="http://www.w3.org/2000/svg" width="240" height="360" viewBox="0 0 240 360"><defs><style>.cls-1{fill:#ff8aec;}.cls-1,.cls-2,.cls-3,.cls-4{stroke:#000;stroke-miterlimit:10;}.cls-1,.cls-3,.cls-4{stroke-width:1.44px;}.cls-2{stroke-linecap:round;stroke-width:1.44px;}.cls-2,.cls-4{fill:none;}.cls-3{fill:#fcc;}</style></defs><path class="cls-3" d="m222.23,334.4c-37.37,24.43-83.36,27.31-106.36,7.19-2.18-1.92-3.78-4.09-4.96-6.36-38.45,14.42-73.23,8.73-85.59-9.45-10.03-14.77-6.34-39.26-5.75-43.12,2.92-19.28,12.3-31.83,14.37-34.5,6.51-8.42,13.84-14,19.77-17.58-12.85-15.41-25.31-34.87-31.27-57.16-3.3-12.38-6.66-33.32-7.18-56.06-.22-9.27.08-17.57.56-24.62,18.21,12.45,54.32,9.57,84.96-17.91.54,7.85-.4,13.5-.72,19.54-2.03,37.77,20.21,82.54,51.74,106.36,23.19,17.52,33.75,9.57,56.06,31.62,11.01,10.88,25.56,25.27,28.75,48.87.5,3.68,9.35,37.66-14.38,53.18Z"/><path class="cls-4" d="m153.24,238.1c-4.93,3.3-49.04,33.89-45.99,77.61.33,4.6.03,12.57,3.66,19.52"/><path class="cls-1" d="m100.78,74.83c-30.64,27.48-66.75,30.36-84.96,17.91-1.81-1.21-3.44-2.6-4.87-4.12-13.24-14.13-12.78-44.01,1.43-63.25,1.48-1.98,12.45-16.4,28-19.63h.02c2.96-.63,6.08-.85,9.35-.49,10.11,1.11,16.63,7.15,24.44,14.38,20.6,19.05,24.95,42.94,25.87,48.86.36,2.28.58,4.39.72,6.34Z"/><path class="cls-4" d="m53.71,230.58c14.47,17.32,29.46,29.51,36.29,34.83"/><path class="cls-2" d="m40.4,5.74c3.78,1.65,7.95,3.82,12.23,6.7,8.09,5.42,13.68,11.38,17.25,15.81"/></svg>