<?xml version="1.0" encoding="UTF-8"?><svg id="Layer_4" xmlns="http://www.w3.org/2000/svg" width="400" height="210" viewBox="0 0 400 210"><defs><style>.cls-1{fill:#fff35f;}.cls-2{stroke-width:2.02px;}.cls-2,.cls-3{fill:none;stroke:#000;stroke-miterlimit:10;}.cls-3{stroke-width:2.13px;}.cls-4{fill:#ccc;}</style></defs><path class="cls-4" d="m31.12,208.5c-14.2-.87-25.49-12.84-25.49-27.43V29.35C5.63,14.19,17.81,1.86,32.78,1.86h336.05c5.25,0,10.33,1.53,14.68,4.36-1.32-.18-2.65-.27-3.99-.27H44.23c-16.16,0-29.41,13.29-29.54,29.62,0,.04,0,.14,0,.27v145.86c0,11.51,6.54,21.85,16.45,26.8Z"/><path d="m368.83,2.88c3.51,0,6.95.71,10.12,2.06H44.23c-16.68,0-30.36,13.68-30.56,30.55,0,.12-.01.23-.01.36v145.86c0,10.09,4.87,19.31,12.6,25.01-11.27-2.94-19.62-13.32-19.62-25.64V29.35C6.64,14.75,18.37,2.88,32.78,2.88h336.05m0-2.02H32.78C17.22.85,4.62,13.61,4.62,29.35v151.72c0,15.74,12.61,28.5,28.16,28.5h3.93c-12.12-3.33-21.03-14.55-21.03-27.87V35.85c0-.09,0-.16.01-.25h0c.13-15.84,12.86-28.63,28.53-28.63h335.29c2.83,0,5.56.42,8.15,1.2-4.98-4.54-11.59-7.31-18.83-7.31h0Z"/><path class="cls-1" d="m36.85,208.55c-11.87-3.32-20.15-14.35-20.15-26.85V35.85c0-.05,0-.09,0-.15v-.11c.13-15.23,12.48-27.62,27.53-27.62h335.29c2.6,0,5.17.37,7.64,1.09,5.61,5.21,8.83,12.59,8.83,20.28v151.72c0,15.16-12.18,27.49-27.15,27.49H36.85Z"/><path d="m379.52,8.99c2.42,0,4.82.33,7.12.99,5.3,5.01,8.33,12.04,8.33,19.38v151.72c0,14.6-11.72,26.47-26.14,26.47H36.99c-11.37-3.25-19.28-13.83-19.28-25.84V35.81s0-.11,0-.11v-.1c.12-14.67,12.01-26.61,26.51-26.61h335.29m0-2.02H44.23c-15.67,0-28.4,12.79-28.53,28.62h0c-.01.1-.01.17-.01.26v145.86c0,13.32,8.9,24.54,21.03,27.87h332.12c15.55,0,28.16-12.76,28.16-28.5V29.35c0-8.41-3.6-15.96-9.33-21.19-2.59-.78-5.32-1.2-8.15-1.2h0Z"/><line class="cls-3" x1="5.12" y1="172.41" x2="16.69" y2="182.08"/><line class="cls-2" x1="16.67" y1="36.49" x2="15.69" y2="35.59"/><line class="cls-2" x1="15.69" y1="35.58" x2="5.62" y2="26.31"/><line class="cls-2" x1="44.72" y1="1.81" x2="56.93" y2="7.98"/><line class="cls-2" x1="350.71" y1="1.87" x2="361.78" y2="7.98"/><path d="m82.06,142.83c0,.23-.33.4-.98.5-1.25.2-4.37.3-9.38.3-4.29,0-7.21-.1-8.74-.3-.72-.1-1.13-.18-1.23-.25-.2-.1-.43-.43-.69-.99-.49-1.29-1.21-3.21-2.16-5.77-1.28-3.31-3.28-8.2-5.99-14.67-.59-1.29-1.95-2.01-4.08-2.14.98.07-.71.1-5.06.1-.49,0-.74.85-.74,2.54,0,2.25.2,5.62.61,10.09.41,4.47.61,7.84.61,10.09,0,.56-.15.89-.44.99-.46.03-.92.07-1.38.1-1.93.13-4.95.2-9.04.2-4.68,0-7.5-.1-8.45-.3-.95-.2-1.42-.71-1.42-1.54,0-3.64.17-9.15.52-16.5s.52-12.88.52-16.55c0-14.02-.31-24.96-.93-32.81l-.05-.7c-.03-.56.48-.95,1.55-1.14,1.06-.2,6.07-.4,15.01-.6,6.06-.13,10.89-.2,14.49-.2,7.47,0,13.56,1.71,18.27,5.12,5.34,3.84,8.01,9.39,8.01,16.65,0,4.84-.69,8.7-2.06,11.58-1.38,2.88-3.91,5.68-7.61,8.4-.75.53-1.13,1.03-1.13,1.49,0-.03,2,4.13,5.99,12.48,4,8.35,5.99,12.96,5.99,13.82Zm-20.63-44.59c0-4.04-1.31-6.84-3.93-8.4-2.03-1.19-5.21-1.79-9.53-1.79-3.11,0-4.77.48-4.96,1.44-.2,1.13-.29,4.37-.29,9.74,0,.76.02,1.89.05,3.38.03,1.49.05,2.6.05,3.33,0,.17.52.33,1.57.5,2,.3,4.09.45,6.29.45,7.17,0,10.76-2.88,10.76-8.65Z"/><path d="m137.92,127.86c0,1.42-.28,4.04-.83,7.85-.59,4.14-1.11,6.61-1.57,7.41-.39.63-.93.94-1.62.94-.29,0-.79-.05-1.47-.15-2.39-.33-9.37-.5-20.93-.5-2.52,0-6.27-.02-11.25-.05-4.98-.03-8.71-.05-11.2-.05-1.08,0-1.62-.48-1.62-1.44,0-3.71.2-9.29.61-16.73.41-7.44.61-13.02.61-16.73s-.2-10.82-.59-21.13c-.1-2.65-.28-6.61-.54-11.88l-.05-.7c-.07-.76.34-1.14,1.23-1.14,2.42,0,6.07.07,10.93.2,4.86.13,8.51.2,10.93.2s5.99-.07,10.81-.2c4.81-.13,8.42-.2,10.81-.2,1.7,0,2.69.65,2.95,1.94.16.76.42,3.07.76,6.93.34,3.86.52,6.21.52,7.04,0,.7-.33,1.04-.98,1.04-.2,0-.54-.02-1.03-.05-8.71-.73-16.54-1.09-23.48-1.09-1.74,0-2.8.41-3.19,1.24-.17.4-.25,1.67-.25,3.83s.33,3.75.98,4.47c.56.63,1.62.94,3.19.94.33,0,.97-.02,1.92-.08.95-.05,1.74-.07,2.36-.07,4.13,0,8.3-.12,12.53-.35.36-.03,1.26-.12,2.7-.25,1.11-.13,2-.2,2.65-.2.79,0,1.18.38,1.18,1.14,0-.7-.29,1.84-.88,7.61-.26,2.65-.39,5.3-.39,7.95,0,.66-.48.99-1.42.99l-4.42-.5c-1.87-.2-6.12-.3-12.77-.3h-5.21c-1.34,0-2.13.33-2.36.99-.03.17-.05,1.19-.05,3.08,0,2.52.16,4.14.49,4.87.56,1.26,2.65,2.01,6.29,2.24-.07,0,2.33,0,7.17,0,1.74,0,4.31-.16,7.74-.47,3.42-.31,5.98-.47,7.69-.47.72,0,1.08.6,1.08,1.79Z"/><path d="m203.31,100.17c0,8.02-2.08,14.52-6.24,19.49-4.45,5.27-10.59,7.9-18.42,7.9-1.31,0-3.28-.08-5.92-.22-2.64-.15-4.61-.22-5.92-.22-1.41,0-2.11.61-2.11,1.84,0,1.53.15,3.8.44,6.81.29,3.02.44,5.27.44,6.76,0,.76-.34,1.14-1.03,1.14-2,0-5-.06-8.99-.17-4-.12-6.99-.17-8.99-.17-.95,0-1.42-.48-1.42-1.44,0-3.68.06-9.21.17-16.58.11-7.37.17-12.9.17-16.58,0-10.41-.44-21.34-1.33-32.81l-.05-.7c-.07-.63.42-1.01,1.47-1.14,2.55-.33,8.19-.5,16.9-.5,5.14,0,10.07.07,14.79.2,7.76.23,14.02,2.7,18.77,7.41,4.85,4.84,7.27,11.17,7.27,18.99Zm-19.6.79c0-7.72-3.72-11.58-11.15-11.58-5.24,0-7.99.3-8.25.89-.23.43-.34,4.26-.34,11.48,0,1.03.04,2.54.12,4.55.08,2.01.12,3.52.12,4.55,0,.66,2.95.99,8.84.99,7.11,0,10.66-3.63,10.66-10.89Z"/><path d="m255.18,144.17c-2.82,0-6.48-.07-11-.2-5.9-.13-9.56-.22-11-.25l-14.69-.2c-1.47.03-3.59-.03-6.34-.2-.95-.17-1.42-.68-1.42-1.54,0-3.61.06-9.02.17-16.23.11-7.21.17-12.62.17-16.23,0-3.84-.11-9.6-.34-17.28-.23-7.67-.34-13.43-.34-17.27,0-.73.49-1.09,1.47-1.09s2.45.05,4.4.15c1.95.1,3.4.15,4.35.15,1.08,0,2.68-.06,4.81-.17,2.13-.12,3.73-.17,4.81-.17.49,0,.72.32.69.95l-.05.65c-.39,6.23-.83,15.59-1.33,28.09l-.05,13.12c0,4.24.02,7.34.05,9.3.03.4.07.79.1,1.19.03.4.28.65.74.75h1.28c2.95,0,7.36-.16,13.24-.47,5.88-.31,10.29-.47,13.24-.47.88,0,1.33.38,1.33,1.14,0,5.67-.41,10.56-1.23,14.67-.16.86-.51,1.38-1.03,1.54-.17.07-.84.1-2.01.1Z"/><path d="m329.85,142.08c0,.6-.41,1.01-1.23,1.24-.98.27-4.03.4-9.14.4-4.68,0-7.7-.13-9.04-.4-1.11-.23-1.82-.98-2.11-2.24-1.11-4.77-1.98-7.32-2.6-7.66-.52-.23-4.91-.35-13.17-.35-5.57,0-8.53.15-8.89.45-.56.53-1.18,2.3-1.87,5.32-.62,2.75-1.38,4.24-2.26,4.47-1.11.27-4.85.4-11.2.4-5.01,0-7.52-.48-7.52-1.44,0-.86,3.7-11.45,11.1-31.77,8.02-21.97,12.38-34.05,13.07-36.24.39-1.26.85-1.89,1.38-1.89.88,0,2.25.08,4.1.25,1.85.17,3.23.25,4.15.25s2.19-.06,3.91-.17c1.72-.12,3-.17,3.86-.17.62,0,1.19.55,1.72,1.64,1.6,3.48,6.29,15.41,14.05,35.79,7.79,20.52,11.69,31.22,11.69,32.12Zm-34.83-45.29c-.69,1.46-1.85,4.62-3.49,9.5-1.77,5.17-2.65,8.2-2.65,9.1,0,.6.98.93,2.95.99,1.01.07,2.69.1,5.01.1,2.16,0,3.36-.27,3.59-.8.07-.17.1-.4.1-.7,0-1.09-.75-4.11-2.26-9.05-1.47-4.77-2.55-7.82-3.24-9.15Z"/><path d="m391.21,91.62c0,1.43-.26,2.67-.79,3.73-4.29,8.58-10.14,17.62-17.54,27.09-1.05,1.39-1.57,2.65-1.57,3.78,0,1.76.1,4.39.29,7.9s.29,6.13.29,7.85c0,.6-.13.96-.39,1.09-.07.03-.51.12-1.33.25-1.18.2-4.13.3-8.84.3s-7.78-.1-9.09-.3c-.92-.13-1.38-.61-1.38-1.44,0-1.76.15-4.43.44-8.03.29-3.6.44-6.29.44-8.08,0-1.06-.39-2.2-1.18-3.43-3.96-5.67-9.63-14.35-17-26.05-.75-1.29-1.13-2.35-1.13-3.18,0-1.99-.1-4.97-.29-8.95-.2-3.98-.29-6.96-.29-8.95,0-1.09.33-1.64.98-1.64,2,0,5.03.08,9.09.25,4.06.17,7.11.25,9.14.25.75,0,1.13.25,1.13.75,0,1.69-.07,4.23-.22,7.63-.15,3.4-.22,5.94-.22,7.63,0,.99,1.44,3.48,4.32,7.46,2.29,3.12,4.18,5.52,5.65,7.21,1.34-1.59,3.13-3.98,5.35-7.16,2.82-3.98,4.22-6.38,4.22-7.21,0-1.66-.12-4.17-.37-7.53-.25-3.36-.37-5.88-.37-7.53,0-.7.15-1.09.44-1.19h1.23c1.96,0,4.92-.09,8.87-.27,3.95-.18,6.92-.27,8.92-.27.66,0,.98.71.98,2.14,0,1.76.03,4.4.1,7.93.07,3.53.1,6.19.1,7.98Z"/></svg>