<?xml version="1.0" encoding="UTF-8"?><svg xmlns="http://www.w3.org/2000/svg" width="1920" height="1080" xmlns:xlink="http://www.w3.org/1999/xlink" viewBox="0 0 1920 1080"><defs><style>.cls-1{clip-path:url(#clippath-45);}.cls-2{clip-path:url(#clippath-20);}.cls-3{clip-path:url(#clippath-11);}.cls-4{clip-path:url(#clippath-16);}.cls-5,.cls-6,.cls-7,.cls-8{fill:#fff;}.cls-9{clip-path:url(#clippath-59);}.cls-10,.cls-11,.cls-12,.cls-13,.cls-14,.cls-6,.cls-15,.cls-16,.cls-7,.cls-8,.cls-17{stroke-miterlimit:10;}.cls-10,.cls-11,.cls-12,.cls-13,.cls-14,.cls-6,.cls-16,.cls-7,.cls-17{stroke:#000;}.cls-10,.cls-7{stroke-width:.16px;}.cls-18{clip-path:url(#clippath-33);}.cls-19{clip-path:url(#clippath-47);}.cls-11,.cls-12{stroke-width:.91px;}.cls-12,.cls-13,.cls-14,.cls-15,.cls-20{fill:none;}.cls-21{clip-path:url(#clippath-41);}.cls-22{clip-path:url(#clippath-32);}.cls-23{clip-path:url(#clippath-2);}.cls-24{clip-path:url(#clippath-13);}.cls-25{clip-path:url(#clippath-37);}.cls-26{clip-path:url(#clippath-46);}.cls-27{clip-path:url(#clippath-25);}.cls-28{clip-path:url(#clippath-15);}.cls-29{clip-path:url(#clippath-6);}.cls-30{clip-path:url(#clippath-40);}.cls-31{clip-path:url(#clippath-26);}.cls-32{clip-path:url(#clippath-7);}.cls-33{clip-path:url(#clippath-21);}.cls-34{fill:#006837;}.cls-13,.cls-17{stroke-width:.89px;}.cls-35{clip-path:url(#clippath-34);}.cls-36{clip-path:url(#clippath-57);}.cls-37{clip-path:url(#clippath-1);}.cls-38{clip-path:url(#clippath-4);}.cls-39{clip-path:url(#clippath-38);}.cls-40{clip-path:url(#clippath-36);}.cls-41{clip-path:url(#clippath-27);}.cls-14{stroke-width:3px;}.cls-42{clip-path:url(#clippath-60);}.cls-43{clip-path:url(#clippath-44);}.cls-44{clip-path:url(#clippath-12);}.cls-45{clip-path:url(#clippath-24);}.cls-6{stroke-width:1.51px;}.cls-46{clip-path:url(#clippath-30);}.cls-47{clip-path:url(#clippath-22);}.cls-48{clip-path:url(#clippath-9);}.cls-49{clip-path:url(#clippath-52);}.cls-50{clip-path:url(#clippath);}.cls-15{stroke:#29abe2;}.cls-15,.cls-8{stroke-width:6px;}.cls-51{clip-path:url(#clippath-50);}.cls-52{clip-path:url(#clippath-48);}.cls-53{clip-path:url(#clippath-39);}.cls-16{stroke-width:.18px;}.cls-54{clip-path:url(#clippath-19);}.cls-55{clip-path:url(#clippath-31);}.cls-56{clip-path:url(#clippath-54);}.cls-57{clip-path:url(#clippath-3);}.cls-58{fill:#ccc;}.cls-59{clip-path:url(#clippath-43);}.cls-60{clip-path:url(#clippath-8);}.cls-61{clip-path:url(#clippath-55);}.cls-62{clip-path:url(#clippath-29);}.cls-63{clip-path:url(#clippath-18);}.cls-64{clip-path:url(#clippath-14);}.cls-65{clip-path:url(#clippath-17);}.cls-66{clip-path:url(#clippath-5);}.cls-67{clip-path:url(#clippath-58);}.cls-68{clip-path:url(#clippath-42);}.cls-69{fill:#29abe2;}.cls-8{stroke:#4d4d4d;}.cls-70{clip-path:url(#clippath-10);}.cls-71{clip-path:url(#clippath-23);}.cls-17{fill:#c1272d;}.cls-72{clip-path:url(#clippath-56);}.cls-73{clip-path:url(#clippath-53);}.cls-74{clip-path:url(#clippath-49);}.cls-75{clip-path:url(#clippath-51);}.cls-76{fill:red;}.cls-77{clip-path:url(#clippath-28);}.cls-78{clip-path:url(#clippath-35);}</style><clipPath id="clippath"><rect class="cls-20" width="1920" height="1080"/></clipPath><clipPath id="clippath-1"><rect class="cls-20" width="1920" height="1080"/></clipPath><clipPath id="clippath-2"><rect class="cls-20" width="1920" height="1080"/></clipPath><clipPath id="clippath-3"><rect class="cls-20" width="1920" height="1080"/></clipPath><clipPath id="clippath-4"><rect class="cls-20" width="1920" height="1080"/></clipPath><clipPath id="clippath-5"><rect class="cls-20" width="1920" height="1080"/></clipPath><clipPath id="clippath-6"><rect class="cls-20" width="1920" height="1080"/></clipPath><clipPath id="clippath-7"><rect class="cls-20" width="1920" height="1080"/></clipPath><clipPath id="clippath-8"><rect class="cls-20" width="1920" height="1080"/></clipPath><clipPath id="clippath-9"><rect class="cls-20" width="1920" height="1080"/></clipPath><clipPath id="clippath-10"><rect class="cls-20" width="1920" height="1080"/></clipPath><clipPath id="clippath-11"><rect class="cls-20" width="1920" height="1080"/></clipPath><clipPath id="clippath-12"><rect class="cls-20" width="1920" height="1080"/></clipPath><clipPath id="clippath-13"><rect class="cls-20" width="1920" height="1080"/></clipPath><clipPath id="clippath-14"><rect class="cls-20" width="1920" height="1080"/></clipPath><clipPath id="clippath-15"><rect class="cls-20" width="1920" height="1080"/></clipPath><clipPath id="clippath-16"><rect class="cls-20" width="1920" height="1080"/></clipPath><clipPath id="clippath-17"><rect class="cls-20" width="1920" height="1080"/></clipPath><clipPath id="clippath-18"><rect class="cls-20" width="1920" height="1080"/></clipPath><clipPath id="clippath-19"><rect class="cls-20" width="1920" height="1080"/></clipPath><clipPath id="clippath-20"><rect class="cls-20" width="1920" height="1080"/></clipPath><clipPath id="clippath-21"><rect class="cls-20" width="1920" height="1080"/></clipPath><clipPath id="clippath-22"><rect class="cls-20" width="1920" height="1080"/></clipPath><clipPath id="clippath-23"><rect class="cls-20" width="1920" height="1080"/></clipPath><clipPath id="clippath-24"><rect class="cls-20" width="1920" height="1080"/></clipPath><clipPath id="clippath-25"><rect class="cls-20" width="1920" height="1080"/></clipPath><clipPath id="clippath-26"><rect class="cls-20" width="1920" height="1080"/></clipPath><clipPath id="clippath-27"><rect class="cls-20" width="1920" height="1080"/></clipPath><clipPath id="clippath-28"><rect class="cls-20" width="1920" height="1080"/></clipPath><clipPath id="clippath-29"><rect class="cls-20" width="1920" height="1080"/></clipPath><clipPath id="clippath-30"><rect class="cls-20" width="1920" height="1080"/></clipPath><clipPath id="clippath-31"><rect class="cls-20" width="1920" height="1080"/></clipPath><clipPath id="clippath-32"><rect class="cls-20" width="1920" height="1080"/></clipPath><clipPath id="clippath-33"><rect class="cls-20" width="1920" height="1080"/></clipPath><clipPath id="clippath-34"><rect class="cls-20" width="1920" height="1080"/></clipPath><clipPath id="clippath-35"><rect class="cls-20" width="1920" height="1080"/></clipPath><clipPath id="clippath-36"><rect class="cls-20" width="1920" height="1080"/></clipPath><clipPath id="clippath-37"><rect class="cls-20" width="1920" height="1080"/></clipPath><clipPath id="clippath-38"><rect class="cls-20" width="1920" height="1080"/></clipPath><clipPath id="clippath-39"><rect class="cls-20" width="1920" height="1080"/></clipPath><clipPath id="clippath-40"><rect class="cls-20" width="1920" height="1080"/></clipPath><clipPath id="clippath-41"><rect class="cls-20" width="1920" height="1080"/></clipPath><clipPath id="clippath-42"><rect class="cls-20" width="1920" height="1080"/></clipPath><clipPath id="clippath-43"><rect class="cls-20" width="1920" height="1080"/></clipPath><clipPath id="clippath-44"><rect class="cls-20" width="1920" height="1080"/></clipPath><clipPath id="clippath-45"><rect class="cls-20" width="1920" height="1080"/></clipPath><clipPath id="clippath-46"><rect class="cls-20" width="1920" height="1080"/></clipPath><clipPath id="clippath-47"><rect class="cls-20" width="1920" height="1080"/></clipPath><clipPath id="clippath-48"><rect class="cls-20" width="1920" height="1080"/></clipPath><clipPath id="clippath-49"><rect class="cls-20" width="1920" height="1080"/></clipPath><clipPath id="clippath-50"><rect class="cls-20" width="1920" height="1080"/></clipPath><clipPath id="clippath-51"><rect class="cls-20" width="1920" height="1080"/></clipPath><clipPath id="clippath-52"><rect class="cls-20" width="1920" height="1080"/></clipPath><clipPath id="clippath-53"><rect class="cls-20" width="1920" height="1080"/></clipPath><clipPath id="clippath-54"><rect class="cls-20" width="1920" height="1080"/></clipPath><clipPath id="clippath-55"><rect class="cls-20" width="1920" height="1080"/></clipPath><clipPath id="clippath-56"><rect class="cls-20" width="1920" height="1080"/></clipPath><clipPath id="clippath-57"><rect class="cls-20" width="1920" height="1080"/></clipPath><clipPath id="clippath-58"><rect class="cls-20" width="1920" height="1080"/></clipPath><clipPath id="clippath-59"><rect class="cls-20" width="1920" height="1080"/></clipPath><clipPath id="clippath-60"><rect class="cls-20" width="1920" height="1080"/></clipPath></defs><g id="Layer_1"><g class="cls-50"><polygon class="cls-58" points="1680 320 1920 560 1920 480 1720 280 1680 320"/><g class="cls-37"><polygon class="cls-14" points="1920 480 1920 560 1680 320 1720 280 1920 480"/></g><polygon class="cls-58" points="1820 660 1860 700 1920 640 1920 560 1820 660"/><g class="cls-23"><polygon class="cls-14" points="1820 660 1920 560 1920 640 1860 700 1820 660"/></g><polygon class="cls-58" points="1680 600 1920 840 1920 760 1720 560 1680 600"/><g class="cls-57"><polygon class="cls-14" points="1920 760 1920 840 1680 600 1720 560 1920 760"/></g><polygon class="cls-58" points="1820 940 1860 980 1920 920 1920 840 1820 940"/><g class="cls-38"><polygon class="cls-14" points="1820 940 1920 840 1920 920 1860 980 1820 940"/></g><rect class="cls-58" x="381.72" y="226.15" width="56.57" height="367.7" transform="translate(-169.83 410) rotate(-45)"/><rect class="cls-14" x="381.72" y="226.15" width="56.57" height="367.7" transform="translate(-169.83 410) rotate(-45)"/><polygon class="cls-58" points="0 0 0 40 220 260 260 220 40 0 0 0"/><g class="cls-66"><polygon class="cls-14" points="260 220 220 260 0 40 0 0 40 0 260 220"/></g><rect class="cls-58" x="661.72" y="226.15" width="56.57" height="367.7" transform="translate(-87.82 607.99) rotate(-45)"/><rect class="cls-14" x="661.72" y="226.15" width="56.57" height="367.7" transform="translate(-87.82 607.99) rotate(-45)"/><polygon class="cls-58" points="200 0 120 80 160 120 260 20 500 260 540 220 320 0 200 0"/><g class="cls-29"><polygon class="cls-14" points="540 220 500 260 260 20 160 120 120 80 200 0 320 0 540 220"/></g><rect class="cls-58" x="390.29" y="531.72" width="339.41" height="56.57" transform="translate(-231.96 560) rotate(-45)"/><rect class="cls-14" x="390.29" y="531.72" width="339.41" height="56.57" transform="translate(-231.96 560) rotate(-45)"/><rect class="cls-58" x="670.29" y="531.72" width="339.41" height="56.57" transform="translate(-149.95 757.99) rotate(-45)"/><rect class="cls-14" x="670.29" y="531.72" width="339.41" height="56.57" transform="translate(-149.95 757.99) rotate(-45)"/><rect class="cls-58" x="951.72" y="250.29" width="56.57" height="339.41" transform="translate(-9.95 815.98) rotate(-45)"/><rect class="cls-14" x="951.72" y="250.29" width="56.57" height="339.41" transform="translate(-9.95 815.98) rotate(-45)"/><rect class="cls-34" x="479.29" y="325.15" width="141.42" height="169.71" transform="translate(-128.82 508.99) rotate(-45)"/><rect class="cls-14" x="479.29" y="325.15" width="141.42" height="169.71" transform="translate(-128.82 508.99) rotate(-45)"/><rect class="cls-58" x="370.29" y="231.72" width="339.41" height="56.57" transform="translate(-25.69 457.99) rotate(-45)"/><rect class="cls-14" x="370.29" y="231.72" width="339.41" height="56.57" transform="translate(-25.69 457.99) rotate(-45)"/><rect class="cls-34" x="469.29" y="49.29" width="141.42" height="141.42" transform="translate(73.31 416.98) rotate(-45)"/><rect class="cls-14" x="469.29" y="49.29" width="141.42" height="141.42" transform="translate(73.31 416.98) rotate(-45)"/><polygon class="cls-58" points="480 0 400 80 440 120 540 20 800 280 840 240 600 0 480 0"/><g class="cls-32"><polygon class="cls-14" points="840 240 800 280 540 20 440 120 400 80 480 0 600 0 840 240"/></g><rect class="cls-58" x="1231.72" y="530.29" width="56.57" height="339.41" transform="translate(-125.93 1095.98) rotate(-45)"/><rect class="cls-14" x="1231.72" y="530.29" width="56.57" height="339.41" transform="translate(-125.93 1095.98) rotate(-45)"/><rect class="cls-58" x="950.29" y="531.72" width="339.41" height="56.57" transform="translate(-67.94 955.98) rotate(-45)"/><rect class="cls-14" x="950.29" y="531.72" width="339.41" height="56.57" transform="translate(-67.94 955.98) rotate(-45)"/><rect class="cls-58" x="1231.72" y="250.29" width="56.57" height="339.41" transform="translate(72.06 1013.97) rotate(-45)"/><rect class="cls-14" x="1231.72" y="250.29" width="56.57" height="339.41" transform="translate(72.06 1013.97) rotate(-45)"/><polygon class="cls-58" points="760 0 680 80 720 120 820 20 1080 280 1120 240 880 0 760 0"/><g class="cls-60"><polygon class="cls-14" points="1120 240 1080 280 820 20 720 120 680 80 760 0 880 0 1120 240"/></g><rect class="cls-58" x="1511.72" y="250.29" width="56.57" height="339.41" transform="translate(154.07 1211.96) rotate(-45)"/><rect class="cls-14" x="1511.72" y="250.29" width="56.57" height="339.41" transform="translate(154.07 1211.96) rotate(-45)"/><rect class="cls-34" x="1049.29" y="349.29" width="141.42" height="141.42" transform="translate(31.06 914.97) rotate(-45)"/><rect class="cls-14" x="1049.29" y="349.29" width="141.42" height="141.42" transform="translate(31.06 914.97) rotate(-45)"/><rect class="cls-58" x="950.29" y="251.72" width="339.41" height="56.57" transform="translate(130.05 873.97) rotate(-45)"/><rect class="cls-14" x="950.29" y="251.72" width="339.41" height="56.57" transform="translate(130.05 873.97) rotate(-45)"/><rect class="cls-34" x="1049.29" y="69.29" width="141.42" height="141.42" transform="translate(229.05 832.96) rotate(-45)"/><rect class="cls-14" x="1049.29" y="69.29" width="141.42" height="141.42" transform="translate(229.05 832.96) rotate(-45)"/><polygon class="cls-58" points="1080 0 980 100 1020 140 1120 40 1360 280 1400 240 1160 0 1080 0"/><g class="cls-48"><polygon class="cls-14" points="1400 240 1360 280 1120 40 1020 140 980 100 1080 0 1160 0 1400 240"/></g><rect class="cls-34" x="1189.29" y="489.29" width="141.42" height="141.42" transform="translate(-26.93 1054.97) rotate(-45)"/><rect class="cls-14" x="1189.29" y="489.29" width="141.42" height="141.42" transform="translate(-26.93 1054.97) rotate(-45)"/><rect class="cls-58" x="1230.29" y="531.72" width="339.41" height="56.57" transform="translate(14.07 1153.97) rotate(-45)"/><rect class="cls-14" x="1230.29" y="531.72" width="339.41" height="56.57" transform="translate(14.07 1153.97) rotate(-45)"/><rect class="cls-58" x="381.72" y="506.15" width="56.57" height="367.7" transform="translate(-367.82 492.01) rotate(-45)"/><rect class="cls-14" x="381.72" y="506.15" width="56.57" height="367.7" transform="translate(-367.82 492.01) rotate(-45)"/><rect class="cls-34" x="1329.29" y="349.29" width="141.42" height="141.42" transform="translate(113.07 1112.96) rotate(-45)"/><rect class="cls-14" x="1329.29" y="349.29" width="141.42" height="141.42" transform="translate(113.07 1112.96) rotate(-45)"/><rect class="cls-34" x="1189.29" y="209.29" width="141.42" height="141.42" transform="translate(171.06 972.96) rotate(-45)"/><rect class="cls-14" x="1189.29" y="209.29" width="141.42" height="141.42" transform="translate(171.06 972.96) rotate(-45)"/><rect class="cls-58" x="1230.29" y="251.72" width="339.41" height="56.57" transform="translate(212.06 1071.96) rotate(-45)"/><rect class="cls-14" x="1230.29" y="251.72" width="339.41" height="56.57" transform="translate(212.06 1071.96) rotate(-45)"/><rect class="cls-34" x="1329.29" y="69.29" width="141.42" height="141.42" transform="translate(311.06 1030.95) rotate(-45)"/><rect class="cls-14" x="1329.29" y="69.29" width="141.42" height="141.42" transform="translate(311.06 1030.95) rotate(-45)"/><polygon class="cls-58" points="1360 0 1260 100 1300 140 1400 40 1640 280 1680 240 1440 0 1360 0"/><g class="cls-70"><polygon class="cls-14" points="1680 240 1640 280 1400 40 1300 140 1260 100 1360 0 1440 0 1680 240"/></g><rect class="cls-34" x="1469.29" y="209.29" width="141.42" height="141.42" transform="translate(253.07 1170.95) rotate(-45)"/><rect class="cls-14" x="1469.29" y="209.29" width="141.42" height="141.42" transform="translate(253.07 1170.95) rotate(-45)"/><rect class="cls-58" x="1510.29" y="251.72" width="339.41" height="56.57" transform="translate(294.07 1269.95) rotate(-45)"/><rect class="cls-14" x="1510.29" y="251.72" width="339.41" height="56.57" transform="translate(294.07 1269.95) rotate(-45)"/><rect class="cls-34" x="1609.29" y="69.29" width="141.42" height="141.42" transform="translate(393.07 1228.94) rotate(-45)"/><rect class="cls-14" x="1609.29" y="69.29" width="141.42" height="141.42" transform="translate(393.07 1228.94) rotate(-45)"/><rect class="cls-34" x="1749.29" y="209.29" width="141.42" height="141.42" transform="translate(335.08 1368.94) rotate(-45)"/><g class="cls-3"><rect class="cls-14" x="1749.29" y="209.29" width="141.42" height="141.42" transform="translate(335.08 1368.94) rotate(-45)"/></g><polygon class="cls-58" points="1640 0 1540 100 1580 140 1680 40 1920 280 1920 200 1720 0 1640 0"/><g class="cls-44"><polygon class="cls-14" points="1920 200 1920 280 1680 40 1580 140 1540 100 1640 0 1720 0 1920 200"/></g><polygon class="cls-58" points="1820 380 1860 420 1920 360 1920 280 1820 380"/><g class="cls-24"><polygon class="cls-14" points="1820 380 1920 280 1920 360 1860 420 1820 380"/></g><rect class="cls-34" x="759.29" y="45.15" width="141.42" height="169.71" transform="translate(151.18 624.97) rotate(-45)"/><rect class="cls-14" x="759.29" y="45.15" width="141.42" height="169.71" transform="translate(151.18 624.97) rotate(-45)"/><rect class="cls-34" x="769.29" y="349.29" width="141.42" height="141.42" transform="translate(-50.95 716.98) rotate(-45)"/><rect class="cls-14" x="769.29" y="349.29" width="141.42" height="141.42" transform="translate(-50.95 716.98) rotate(-45)"/><rect class="cls-34" x="619.29" y="185.15" width="141.42" height="169.71" transform="translate(11.18 566.98) rotate(-45)"/><rect class="cls-14" x="619.29" y="185.15" width="141.42" height="169.71" transform="translate(11.18 566.98) rotate(-45)"/><rect class="cls-34" x="909.29" y="209.29" width="141.42" height="141.42" transform="translate(89.05 774.97) rotate(-45)"/><rect class="cls-14" x="909.29" y="209.29" width="141.42" height="141.42" transform="translate(89.05 774.97) rotate(-45)"/><rect class="cls-58" x="670.29" y="251.72" width="339.41" height="56.57" transform="translate(48.04 675.98) rotate(-45)"/><rect class="cls-14" x="670.29" y="251.72" width="339.41" height="56.57" transform="translate(48.04 675.98) rotate(-45)"/><rect class="cls-34" x="189.29" y="49.29" width="141.42" height="141.42" transform="translate(-8.7 218.99) rotate(-45)"/><rect class="cls-14" x="189.29" y="49.29" width="141.42" height="141.42" transform="translate(-8.7 218.99) rotate(-45)"/><rect class="cls-34" x="329.29" y="189.29" width="141.42" height="141.42" transform="translate(-66.69 358.99) rotate(-45)"/><rect class="cls-14" x="329.29" y="189.29" width="141.42" height="141.42" transform="translate(-66.69 358.99) rotate(-45)"/><rect class="cls-58" x="90.29" y="231.72" width="339.41" height="56.57" transform="translate(-107.7 260) rotate(-45)"/><rect class="cls-14" x="90.29" y="231.72" width="339.41" height="56.57" transform="translate(-107.7 260) rotate(-45)"/><rect class="cls-34" x="49.29" y="189.29" width="141.42" height="141.42" transform="translate(-148.7 161.01) rotate(-45)"/><rect class="cls-14" x="49.29" y="189.29" width="141.42" height="141.42" transform="translate(-148.7 161.01) rotate(-45)"/><polygon class="cls-58" points="0 200 0 320 220 540 260 500 20 260 120 160 80 120 0 200"/><g class="cls-64"><polygon class="cls-14" points="260 500 220 540 0 320 0 200 80 120 120 160 20 260 260 500"/></g><polygon class="cls-34" points="0 200 80 120 0 40 0 200"/><g class="cls-28"><polygon class="cls-14" points="80 120 0 200 0 40 80 120"/></g><rect class="cls-34" x="189.29" y="329.29" width="141.42" height="141.42" transform="translate(-206.69 301.01) rotate(-45)"/><rect class="cls-14" x="189.29" y="329.29" width="141.42" height="141.42" transform="translate(-206.69 301.01) rotate(-45)"/><rect class="cls-34" x="339.29" y="465.15" width="141.42" height="169.71" transform="translate(-268.82 451.01) rotate(-45)"/><rect class="cls-14" x="339.29" y="465.15" width="141.42" height="169.71" transform="translate(-268.82 451.01) rotate(-45)"/><rect class="cls-58" x="90.29" y="511.72" width="339.41" height="56.57" transform="translate(-305.69 342.01) rotate(-45)"/><rect class="cls-14" x="90.29" y="511.72" width="339.41" height="56.57" transform="translate(-305.69 342.01) rotate(-45)"/><rect class="cls-34" x="49.29" y="469.29" width="141.42" height="141.42" transform="translate(-346.69 243.02) rotate(-45)"/><rect class="cls-14" x="49.29" y="469.29" width="141.42" height="141.42" transform="translate(-346.69 243.02) rotate(-45)"/><polygon class="cls-58" points="0 480 0 600 240 840 280 800 20 540 120 440 80 400 0 480"/><g class="cls-4"><polygon class="cls-14" points="280 800 240 840 0 600 0 480 80 400 120 440 20 540 280 800"/></g><polygon class="cls-58" points="0 760 0 880 200 1080 280 1080 20 820 120 720 80 680 0 760"/><g class="cls-65"><polygon class="cls-14" points="280 1080 200 1080 0 880 0 760 80 680 120 720 20 820 280 1080"/></g><polygon class="cls-34" points="0 760 80 680 0 600 0 760"/><g class="cls-63"><polygon class="cls-14" points="80 680 0 760 0 600 80 680"/></g><polygon class="cls-34" points="0 1080 100 980 0 880 0 1080"/><g class="cls-54"><polygon class="cls-14" points="100 980 0 1080 0 880 100 980"/></g><polygon class="cls-34" points="0 480 80 400 0 320 0 480"/><g class="cls-2"><polygon class="cls-14" points="80 400 0 480 0 320 80 400"/></g><rect class="cls-34" x="59.29" y="745.15" width="141.42" height="169.71" transform="translate(-548.82 335.03) rotate(-45)"/><rect class="cls-14" x="59.29" y="745.15" width="141.42" height="169.71" transform="translate(-548.82 335.03) rotate(-45)"/><rect class="cls-34" x="199.29" y="605.15" width="141.42" height="169.71" transform="translate(-408.82 393.02) rotate(-45)"/><rect class="cls-14" x="199.29" y="605.15" width="141.42" height="169.71" transform="translate(-408.82 393.02) rotate(-45)"/><rect class="cls-58" x="110.29" y="811.72" width="339.41" height="56.57" transform="translate(-511.96 444.02) rotate(-45)"/><rect class="cls-14" x="110.29" y="811.72" width="339.41" height="56.57" transform="translate(-511.96 444.02) rotate(-45)"/><polygon class="cls-58" points="0 1080 80 1080 140 1020 100 980 0 1080"/><g class="cls-33"><polygon class="cls-14" points="140 1020 80 1080 0 1080 100 980 140 1020"/></g><polygon class="cls-34" points="80 1080 200 1080 140 1020 80 1080"/><g class="cls-47"><polygon class="cls-14" points="200 1080 80 1080 140 1020 200 1080"/></g><rect class="cls-58" x="390.29" y="811.72" width="339.41" height="56.57" transform="translate(-429.95 642.01) rotate(-45)"/><rect class="cls-14" x="390.29" y="811.72" width="339.41" height="56.57" transform="translate(-429.95 642.01) rotate(-45)"/><rect class="cls-34" x="349.29" y="769.29" width="141.42" height="141.42" transform="translate(-470.95 543.02) rotate(-45)"/><rect class="cls-14" x="349.29" y="769.29" width="141.42" height="141.42" transform="translate(-470.95 543.02) rotate(-45)"/><polygon class="cls-58" points="280 880 480 1080 560 1080 320 840 280 880"/><g class="cls-71"><polygon class="cls-14" points="560 1080 480 1080 280 880 320 840 560 1080"/></g><rect class="cls-34" x="909.29" y="489.29" width="141.42" height="141.42" transform="translate(-108.94 856.98) rotate(-45)"/><rect class="cls-14" x="909.29" y="489.29" width="141.42" height="141.42" transform="translate(-108.94 856.98) rotate(-45)"/><rect class="cls-58" x="951.72" y="530.29" width="56.57" height="339.41" transform="translate(-207.94 897.99) rotate(-45)"/><rect class="cls-14" x="951.72" y="530.29" width="56.57" height="339.41" transform="translate(-207.94 897.99) rotate(-45)"/><rect class="cls-34" x="489.29" y="629.29" width="141.42" height="141.42" transform="translate(-330.95 601.01) rotate(-45)"/><rect class="cls-14" x="489.29" y="629.29" width="141.42" height="141.42" transform="translate(-330.95 601.01) rotate(-45)"/><rect class="cls-34" x="629.29" y="489.29" width="141.42" height="141.42" transform="translate(-190.95 658.99) rotate(-45)"/><rect class="cls-14" x="629.29" y="489.29" width="141.42" height="141.42" transform="translate(-190.95 658.99) rotate(-45)"/><rect class="cls-58" x="671.72" y="530.29" width="56.57" height="339.41" transform="translate(-289.95 700) rotate(-45)"/><rect class="cls-14" x="671.72" y="530.29" width="56.57" height="339.41" transform="translate(-289.95 700) rotate(-45)"/><rect class="cls-34" x="769.29" y="629.29" width="141.42" height="141.42" transform="translate(-248.94 798.99) rotate(-45)"/><rect class="cls-14" x="769.29" y="629.29" width="141.42" height="141.42" transform="translate(-248.94 798.99) rotate(-45)"/><rect class="cls-58" x="670.29" y="811.72" width="339.41" height="56.57" transform="translate(-347.94 840) rotate(-45)"/><rect class="cls-14" x="670.29" y="811.72" width="339.41" height="56.57" transform="translate(-347.94 840) rotate(-45)"/><rect class="cls-34" x="629.29" y="769.29" width="141.42" height="141.42" transform="translate(-388.94 741.01) rotate(-45)"/><rect class="cls-14" x="629.29" y="769.29" width="141.42" height="141.42" transform="translate(-388.94 741.01) rotate(-45)"/><polygon class="cls-58" points="560 880 760 1080 840 1080 600 840 560 880"/><g class="cls-45"><polygon class="cls-14" points="840 1080 760 1080 560 880 600 840 840 1080"/></g><rect class="cls-34" x="489.29" y="909.29" width="141.42" height="141.42" transform="translate(-528.94 683.01) rotate(-45)"/><g class="cls-27"><rect class="cls-14" x="489.29" y="909.29" width="141.42" height="141.42" transform="translate(-528.94 683.02) rotate(-45)"/></g><polygon class="cls-58" points="560 1080 640 1080 700 1020 660 980 560 1080"/><g class="cls-31"><polygon class="cls-14" points="700 1020 640 1080 560 1080 660 980 700 1020"/></g><polygon class="cls-34" points="640 1080 760 1080 700 1020 640 1080"/><g class="cls-41"><polygon class="cls-14" points="760 1080 640 1080 700 1020 760 1080"/></g><polygon class="cls-58" points="840 1080 920 1080 980 1020 940 980 840 1080"/><g class="cls-77"><polygon class="cls-14" points="980 1020 920 1080 840 1080 940 980 980 1020"/></g><rect class="cls-34" x="1049.29" y="629.29" width="141.42" height="141.42" transform="translate(-166.93 996.98) rotate(-45)"/><rect class="cls-14" x="1049.29" y="629.29" width="141.42" height="141.42" transform="translate(-166.93 996.98) rotate(-45)"/><rect class="cls-58" x="950.29" y="811.72" width="339.41" height="56.57" transform="translate(-265.93 1037.99) rotate(-45)"/><rect class="cls-14" x="950.29" y="811.72" width="339.41" height="56.57" transform="translate(-265.93 1037.99) rotate(-45)"/><rect class="cls-34" x="769.29" y="909.29" width="141.42" height="141.42" transform="translate(-446.93 881) rotate(-45)"/><g class="cls-62"><rect class="cls-14" x="769.29" y="909.29" width="141.42" height="141.42" transform="translate(-446.93 881.01) rotate(-45)"/></g><rect class="cls-34" x="909.29" y="769.29" width="141.42" height="141.42" transform="translate(-306.93 938.99) rotate(-45)"/><rect class="cls-14" x="909.29" y="769.29" width="141.42" height="141.42" transform="translate(-306.93 938.99) rotate(-45)"/><polygon class="cls-58" points="840 880 1040 1080 1120 1080 880 840 840 880"/><g class="cls-46"><polygon class="cls-14" points="1120 1080 1040 1080 840 880 880 840 1120 1080"/></g><polygon class="cls-34" points="920 1080 1040 1080 980 1020 920 1080"/><g class="cls-55"><polygon class="cls-14" points="1040 1080 920 1080 980 1020 1040 1080"/></g><rect class="cls-58" x="1230.29" y="811.72" width="339.41" height="56.57" transform="translate(-183.92 1235.98) rotate(-45)"/><rect class="cls-14" x="1230.29" y="811.72" width="339.41" height="56.57" transform="translate(-183.92 1235.98) rotate(-45)"/><rect class="cls-34" x="1189.29" y="769.29" width="141.42" height="141.42" transform="translate(-224.92 1136.98) rotate(-45)"/><rect class="cls-14" x="1189.29" y="769.29" width="141.42" height="141.42" transform="translate(-224.92 1136.98) rotate(-45)"/><polygon class="cls-58" points="1120 880 1320 1080 1400 1080 1160 840 1120 880"/><g class="cls-22"><polygon class="cls-14" points="1400 1080 1320 1080 1120 880 1160 840 1400 1080"/></g><rect class="cls-34" x="1609.29" y="349.29" width="141.42" height="141.42" transform="translate(195.08 1310.95) rotate(-45)"/><rect class="cls-14" x="1609.29" y="349.29" width="141.42" height="141.42" transform="translate(195.08 1310.95) rotate(-45)"/><rect class="cls-34" x="1749.29" y="489.29" width="141.42" height="141.42" transform="translate(137.09 1450.95) rotate(-45)"/><g class="cls-18"><rect class="cls-14" x="1749.29" y="489.29" width="141.42" height="141.42" transform="translate(137.09 1450.95) rotate(-45)"/></g><rect class="cls-58" x="1510.29" y="531.72" width="339.41" height="56.57" transform="translate(96.08 1351.96) rotate(-45)"/><rect class="cls-14" x="1510.29" y="531.72" width="339.41" height="56.57" transform="translate(96.08 1351.96) rotate(-45)"/><rect class="cls-34" x="1469.29" y="489.29" width="141.42" height="141.42" transform="translate(55.08 1252.96) rotate(-45)"/><rect class="cls-14" x="1469.29" y="489.29" width="141.42" height="141.42" transform="translate(55.08 1252.96) rotate(-45)"/><rect class="cls-34" x="1329.29" y="629.29" width="141.42" height="141.42" transform="translate(-84.92 1194.97) rotate(-45)"/><rect class="cls-14" x="1329.29" y="629.29" width="141.42" height="141.42" transform="translate(-84.92 1194.97) rotate(-45)"/><rect class="cls-58" x="1511.72" y="530.29" width="56.57" height="339.41" transform="translate(-43.92 1293.97) rotate(-45)"/><rect class="cls-14" x="1511.72" y="530.29" width="56.57" height="339.41" transform="translate(-43.92 1293.97) rotate(-45)"/><rect class="cls-34" x="1609.29" y="629.29" width="141.42" height="141.42" transform="translate(-2.91 1392.96) rotate(-45)"/><rect class="cls-14" x="1609.29" y="629.29" width="141.42" height="141.42" transform="translate(-2.91 1392.96) rotate(-45)"/><rect class="cls-58" x="1510.29" y="811.72" width="339.41" height="56.57" transform="translate(-101.91 1433.97) rotate(-45)"/><rect class="cls-14" x="1510.29" y="811.72" width="339.41" height="56.57" transform="translate(-101.91 1433.97) rotate(-45)"/><rect class="cls-34" x="1469.29" y="769.29" width="141.42" height="141.42" transform="translate(-142.91 1334.97) rotate(-45)"/><rect class="cls-14" x="1469.29" y="769.29" width="141.42" height="141.42" transform="translate(-142.91 1334.97) rotate(-45)"/><polygon class="cls-58" points="1400 880 1600 1080 1680 1080 1440 840 1400 880"/><g class="cls-35"><polygon class="cls-14" points="1680 1080 1600 1080 1400 880 1440 840 1680 1080"/></g><rect class="cls-34" x="1749.29" y="769.29" width="141.42" height="141.42" transform="translate(-60.9 1532.96) rotate(-45)"/><g class="cls-78"><rect class="cls-14" x="1749.29" y="769.29" width="141.42" height="141.42" transform="translate(-60.9 1532.96) rotate(-45)"/></g><polygon class="cls-58" points="1680 880 1880 1080 1920 1080 1920 1040 1720 840 1680 880"/><g class="cls-40"><polygon class="cls-14" points="1920 1040 1920 1080 1880 1080 1680 880 1720 840 1920 1040"/></g><rect class="cls-34" x="1609.29" y="909.29" width="141.42" height="141.42" transform="translate(-200.9 1474.98) rotate(-45)"/><g class="cls-25"><rect class="cls-14" x="1609.29" y="909.29" width="141.42" height="141.42" transform="translate(-200.9 1474.97) rotate(-45)"/></g><polygon class="cls-58" points="1680 1080 1760 1080 1820 1020 1780 980 1680 1080"/><g class="cls-39"><polygon class="cls-14" points="1820 1020 1760 1080 1680 1080 1780 980 1820 1020"/></g><polygon class="cls-34" points="1760 1080 1880 1080 1820 1020 1760 1080"/><g class="cls-53"><polygon class="cls-14" points="1880 1080 1760 1080 1820 1020 1880 1080"/></g><rect class="cls-34" x="1329.29" y="909.29" width="141.42" height="141.42" transform="translate(-282.91 1276.99) rotate(-45)"/><g class="cls-30"><rect class="cls-14" x="1329.29" y="909.29" width="141.42" height="141.42" transform="translate(-282.91 1276.98) rotate(-45)"/></g><polygon class="cls-58" points="1400 1080 1480 1080 1540 1020 1500 980 1400 1080"/><g class="cls-21"><polygon class="cls-14" points="1540 1020 1480 1080 1400 1080 1500 980 1540 1020"/></g><polygon class="cls-34" points="1480 1080 1600 1080 1540 1020 1480 1080"/><g class="cls-68"><polygon class="cls-14" points="1600 1080 1480 1080 1540 1020 1600 1080"/></g><rect class="cls-34" x="1049.29" y="909.29" width="141.42" height="141.42" transform="translate(-364.92 1078.99) rotate(-45)"/><g class="cls-59"><rect class="cls-14" x="1049.29" y="909.29" width="141.42" height="141.42" transform="translate(-364.92 1078.99) rotate(-45)"/></g><polygon class="cls-58" points="1120 1080 1200 1080 1260 1020 1220 980 1120 1080"/><g class="cls-43"><polygon class="cls-14" points="1260 1020 1200 1080 1120 1080 1220 980 1260 1020"/></g><polygon class="cls-34" points="1200 1080 1320 1080 1260 1020 1200 1080"/><g class="cls-1"><polygon class="cls-14" points="1320 1080 1200 1080 1260 1020 1320 1080"/></g><rect class="cls-34" x="209.29" y="909.29" width="141.42" height="141.42" transform="translate(-610.95 485.03) rotate(-45)"/><g class="cls-26"><rect class="cls-14" x="209.29" y="909.29" width="141.42" height="141.42" transform="translate(-610.95 485.03) rotate(-45)"/></g><polygon class="cls-58" points="280 1080 360 1080 420 1020 380 980 280 1080"/><g class="cls-19"><polygon class="cls-14" points="420 1020 360 1080 280 1080 380 980 420 1020"/></g><polygon class="cls-34" points="360 1080 480 1080 420 1020 360 1080"/><g class="cls-52"><polygon class="cls-14" points="480 1080 360 1080 420 1020 480 1080"/></g><polygon class="cls-58" points="1920 0 1820 100 1860 140 1920 80 1920 0"/><g class="cls-74"><polygon class="cls-14" points="1920 0 1920 80 1860 140 1820 100 1920 0"/></g><polygon class="cls-34" points="40 0 120 80 200 0 40 0"/><g class="cls-51"><polyline class="cls-14" points="120 80 200 0 40 0"/></g><polygon class="cls-34" points="320 0 400 80 480 0 320 0"/><g class="cls-75"><polyline class="cls-14" points="400 80 480 0 320 0"/></g><polygon class="cls-34" points="600 0 680 80 757.55 0 600 0"/><g class="cls-49"><polyline class="cls-14" points="680 80 757.55 0 600 0"/></g><polyline class="cls-34" points="980 100 1078.02 1.98 881.98 1.98"/><g class="cls-73"><polyline class="cls-14" points="980 100 1078.02 1.98 881.98 1.98"/></g><polygon class="cls-34" points="1160 0 1260 100 1358.02 1.98 1160 0"/><g class="cls-56"><polyline class="cls-14" points="1260 100 1358.02 1.98 1160 0"/></g><polyline class="cls-34" points="1540 100 1638.02 1.98 1441.98 1.98"/><g class="cls-61"><polyline class="cls-14" points="1540 100 1638.02 1.98 1441.98 1.98"/></g><polygon class="cls-34" points="1720 0 1820 100 1920 0 1720 0"/><g class="cls-72"><polyline class="cls-14" points="1820 100 1920 0 1720 0"/></g><polygon class="cls-34" points="1860 140 1920 200 1920 80 1860 140"/><g class="cls-36"><polyline class="cls-14" points="1860 140 1920 80 1920 200"/></g><polygon class="cls-34" points="1860 420 1920 480 1920 360 1860 420"/><g class="cls-67"><polyline class="cls-14" points="1860 420 1920 360 1920 480"/></g><polygon class="cls-34" points="1860 700 1920 760 1920 640 1860 700"/><g class="cls-9"><polyline class="cls-14" points="1860 700 1920 640 1920 760"/></g><polygon class="cls-34" points="1860 980 1920 1037.26 1920 920 1860 980"/><g class="cls-42"><polyline class="cls-14" points="1860 980 1920 920 1920 1037.26"/><polyline class="cls-14" points="1920 1080 1920 1040 1920 1037.26 1920 920 1920 840 1920 760 1920 640 1920 560 1920 480 1920 360 1920 280 1920 200 1920 80 1920 0 1720 0 1640 0 1440 0 1360 0 1160 0 1080 0 880 0 760 0 757.55 0 600 0 480 0 320 0 200 0 40 0 0 0"/></g></g></g><g id="Layer_2"><rect class="cls-8" x="160" y="100" width="1600" height="880" rx="50" ry="50"/><circle class="cls-5" cx="330.05" cy="280.75" r="61"/><path class="cls-5" d="m480.05,312.75c64.67,23,129.33,46,194,69-9.57-.58-23.95-.74-41,2-35.17,5.65-43.81,17.56-74,24-31.52,6.73-58,1.41-75-2-42.66-8.56-38.09-21.06-72-24-44.49-3.85-83.82,14.95-88,17-.58.28-1.78,1.23-2,1-2.01-2.11,86.76-89.14,168.51-168.51,2.27-2.99,5.64-6.39,10.49-8.49,4.45-1.92,8.4-1.99,10-2,8.9-.06,67.48-.15,148,0,11.72,2.25,20.13,12.52,20,24-.12,10.58-7.45,20.06-18,23h-136l-45,45Z"/><path class="cls-69" d="m683.6,160.75h-409.1c-11.3,0-20.45,9.15-20.45,20.45v257.55c8.81.51,19.63.27,31.65-2,20.9-3.95,25.96-10.39,50-17,23.64-6.5,43.44-7.08,53-7,5.6.05,28.62.48,57,9,19.33,5.8,18.5,8.55,36,13,25.67,6.53,45.84,5.29,50,5,18.23-1.28,32.03-5.78,45-10,21.03-6.84,22.64-10.45,39-14,11.1-2.41,20.07-2.6,38-3,27.16-.6,37.64,2.25,43,4,2.69.87,5.14,1.82,7.35,2.76v-238.31c0-11.3-9.15-20.45-20.45-20.45Zm-414.55,120c0-33.69,27.31-61,61-61s61,27.31,61,61-27.31,61-61,61-61-27.31-61-61Zm405,101c-9.57-.58-23.95-.74-41,2-35.17,5.65-43.81,17.56-74,24-31.52,6.73-58,1.41-75-2-42.66-8.56-38.09-21.06-72-24-44.49-3.85-83.82,14.95-88,17-.58.28-1.78,1.23-2,1-2.01-2.11,86.76-89.14,168.51-168.51,2.27-2.99,5.64-6.39,10.49-8.49,4.45-1.92,8.4-1.99,10-2,8.9-.06,67.48-.15,148,0,11.72,2.25,20.13,12.52,20,24-.12,10.58-7.45,20.06-18,23h-136l-45,45c64.67,23,129.33,46,194,69Z"/><circle class="cls-20" cx="330.05" cy="280.75" r="61"/><path class="cls-20" d="m490.56,231.24c2.27-2.99,5.64-6.39,10.49-8.49,4.45-1.92,8.4-1.99,10-2,8.9-.06,67.48-.15,148,0,11.72,2.25,20.13,12.52,20,24-.12,10.58-7.45,20.06-18,23h-136l-45,45c64.67,23,129.33,46,194,69-9.57-.58-23.95-.74-41,2-35.17,5.65-43.81,17.56-74,24-31.52,6.73-58,1.41-75-2-42.66-8.56-38.09-21.06-72-24-44.49-3.85-83.82,14.95-88,17-.58.28-1.78,1.23-2,1-2.01-2.11,86.76-89.14,168.51-168.51Z"/><path class="cls-69" d="m704.05,445.27v28.97c-2.12-.89-4.46-1.78-7-2.61-5.36-1.75-15.85-4.6-43-4-17.93.4-26.9.6-38,3-16.36,3.55-17.98,7.16-39,14-12.97,4.22-26.78,8.72-45,10-4.17.29-24.33,1.53-50-5-17.5-4.45-16.67-7.2-36-13-28.39-8.52-51.41-8.95-57-9-9.57-.08-29.36.5-53,7-24.04,6.61-29.1,13.05-50,17-12.18,2.3-23.14,2.52-32,1.98v-29.1c8.81.51,19.63.27,31.65-2,20.9-3.95,25.96-10.39,50-17,23.64-6.5,43.44-7.08,53-7,5.6.05,28.62.48,57,9,19.33,5.8,18.5,8.55,36,13,25.67,6.53,45.84,5.29,50,5,18.23-1.28,32.03-5.78,45-10,21.03-6.84,22.64-10.45,39-14,11.1-2.4,20.07-2.6,38-3,27.16-.6,37.64,2.25,43,4,2.69.87,5.14,1.82,7.35,2.76Z"/><path class="cls-20" d="m704.05,419.51v25.76c-2.21-.94-4.66-1.89-7.35-2.76-5.36-1.75-15.84-4.6-43-4-17.93.4-26.9.6-38,3-16.36,3.55-17.97,7.16-39,14-12.97,4.22-26.77,8.72-45,10-4.16.29-24.33,1.53-50-5-17.5-4.45-16.67-7.2-36-13-28.38-8.52-51.4-8.95-57-9-9.56-.08-29.36.5-53,7-24.04,6.61-29.1,13.05-50,17-12.02,2.27-22.84,2.51-31.65,2v-25.76c8.81.51,19.63.27,31.65-2,20.9-3.95,25.96-10.39,50-17,23.64-6.5,43.44-7.08,53-7,5.6.05,28.62.48,57,9,19.33,5.8,18.5,8.55,36,13,25.67,6.53,45.84,5.29,50,5,18.23-1.28,32.03-5.78,45-10,21.03-6.84,22.64-10.45,39-14,11.1-2.41,20.07-2.6,38-3,27.16-.6,37.64,2.25,43,4,2.69.87,5.14,1.82,7.35,2.76Z"/><path class="cls-69" d="m704.05,500v90.3c0,11.3-9.15,20.45-20.45,20.45h-409.1c-11.3,0-20.45-9.15-20.45-20.45v-70.93c8.86.54,19.82.32,32-1.98,20.9-3.95,25.96-10.38,50-17,23.64-6.5,43.43-7.08,53-7,5.59.05,28.61.48,57,9,19.33,5.8,18.5,8.55,36,13,25.67,6.53,45.83,5.29,50,5,18.22-1.28,32.03-5.78,45-10,21.02-6.84,22.64-10.45,39-14,11.1-2.4,20.07-2.6,38-3,27.15-.6,37.64,2.25,43,4,2.54.83,4.88,1.72,7,2.61Z"/><path class="cls-20" d="m704.05,474.24v25.76c-2.12-.89-4.46-1.78-7-2.61-5.36-1.75-15.85-4.6-43-4-17.93.4-26.9.6-38,3-16.36,3.55-17.98,7.16-39,14-12.97,4.22-26.78,8.72-45,10-4.17.29-24.33,1.53-50-5-17.5-4.45-16.67-7.2-36-13-28.39-8.52-51.41-8.95-57-9-9.57-.08-29.36.5-53,7-24.04,6.62-29.1,13.05-50,17-12.18,2.3-23.14,2.52-32,1.98v-25.76c8.86.54,19.82.32,32-1.98,20.9-3.95,25.96-10.39,50-17,23.64-6.5,43.43-7.08,53-7,5.59.05,28.61.48,57,9,19.33,5.8,18.5,8.55,36,13,25.67,6.53,45.83,5.29,50,5,18.22-1.28,32.03-5.78,45-10,21.02-6.84,22.64-10.45,39-14,11.1-2.4,20.07-2.6,38-3,27.15-.6,37.64,2.25,43,4,2.54.83,4.88,1.72,7,2.61Z"/><rect class="cls-15" x="233.05" y="135.75" width="500" height="500" rx="32.74" ry="32.74"/><path d="m271.56,721.37l-8.66-36.55h8.85l2.77,15.05c.78,4.35,1.54,9.1,2.12,12.79h.11c.59-3.97,1.46-8.35,2.38-12.89l3.13-14.95h8.78l2.92,15.43c.78,4.26,1.4,8.17,1.93,12.22h.11c.57-4.08,1.34-8.32,2.15-12.7l2.96-14.95h8.4l-9.43,36.55h-8.93l-3.11-15.74c-.73-3.66-1.3-7.1-1.76-11.25h-.11c-.62,4.12-1.21,7.58-2.08,11.27l-3.49,15.71h-9.06Z"/><path d="m335.55,705.91h-13.45v8.69h15.04v6.77h-23.3v-36.55h22.52v6.77h-14.25v7.61h13.45v6.71Z"/><path d="m342.79,684.82h8.26v29.62h14.54v6.93h-22.81v-36.55Z"/><path d="m395.25,720.37c-1.48.73-4.94,1.58-9.34,1.58-12.66,0-19.18-7.91-19.18-18.33,0-12.46,8.93-19.36,19.97-19.36,4.3,0,7.56.84,9,1.62l-1.69,6.53c-1.64-.72-3.99-1.37-6.94-1.37-6.52,0-11.63,3.97-11.63,12.1,0,7.33,4.32,11.93,11.68,11.93,2.53,0,5.27-.5,6.91-1.18l1.23,6.48Z"/><path d="m432.5,702.73c0,11.99-7.24,19.24-17.92,19.24s-17.22-8.2-17.22-18.62,7.03-19.12,17.79-19.12,17.35,8.39,17.35,18.51Zm-26.4.46c0,7.16,3.37,12.21,8.89,12.21s8.78-5.28,8.78-12.39c0-6.59-3.11-12.21-8.8-12.21s-8.87,5.28-8.87,12.39Z"/><path d="m468.85,707.39c-.17-4.43-.34-9.7-.32-15.06h-.15c-1.17,4.68-2.7,9.87-4.08,14.19l-4.48,14.25h-6.42l-3.94-14.12c-1.18-4.3-2.39-9.5-3.3-14.31h-.11c-.18,4.97-.38,10.61-.6,15.17l-.68,13.87h-7.65l2.34-36.55h11.02l3.57,12.22c1.16,4.19,2.28,8.78,3.1,13.07h.18c1-4.23,2.24-9.05,3.48-13.12l3.88-12.16h10.81l1.96,36.55h-8.03l-.57-13.98Z"/><path d="m505.54,705.91h-13.45v8.69h15.04v6.77h-23.3v-36.55h22.52v6.77h-14.25v7.61h13.45v6.71Z"/><path d="m528.68,691.76h-9.86v-6.94h28.13v6.94h-10v29.61h-8.26v-29.61Z"/><path d="m583.19,702.73c0,11.99-7.24,19.24-17.92,19.24s-17.22-8.2-17.22-18.62,7.03-19.12,17.79-19.12,17.35,8.39,17.35,18.51Zm-26.4.46c0,7.16,3.37,12.21,8.89,12.21s8.78-5.28,8.78-12.39c0-6.59-3.11-12.21-8.8-12.21s-8.87,5.28-8.87,12.39Z"/><path d="m633.03,702.73c0,11.99-7.24,19.24-17.92,19.24s-17.22-8.2-17.22-18.62,7.03-19.12,17.79-19.12,17.35,8.39,17.35,18.51Zm-26.4.46c0,7.16,3.37,12.21,8.89,12.21s8.78-5.28,8.78-12.39c0-6.59-3.11-12.21-8.8-12.21s-8.87,5.28-8.87,12.39Z"/><path d="m646.69,684.82v21.02c0,6.31,2.43,9.54,6.62,9.54s6.73-3.06,6.73-9.54v-21.02h8.26v20.51c0,11.28-5.7,16.63-15.27,16.63s-14.61-5.12-14.61-16.73v-20.41h8.26Z"/><path d="m675.46,685.32c2.65-.45,6.59-.79,10.98-.79,5.42,0,9.22.83,11.83,2.9,2.18,1.73,3.38,4.3,3.38,7.66,0,4.63-3.31,7.86-6.45,8.98v.17c2.54,1.02,3.96,3.45,4.88,6.81,1.13,4.14,2.23,8.9,2.95,10.32h-8.46c-.56-1.06-1.47-4-2.51-8.52-1.02-4.57-2.55-5.79-5.95-5.83h-2.46v14.35h-8.19v-36.05Zm8.19,15.72h3.24c4.1,0,6.55-2.09,6.55-5.27,0-3.35-2.29-5.06-6.07-5.08-1.98,0-3.14.13-3.72.28v10.07Z"/><path d="m255.6,750.38c2.54-.42,6.12-.77,11.16-.77s8.74.99,11.18,2.95c2.34,1.82,3.88,4.87,3.88,8.45s-1.16,6.63-3.34,8.66c-2.82,2.65-7.03,3.88-11.87,3.88-1.1,0-2.07-.07-2.82-.19v13.09h-8.19v-36.07Zm8.19,16.58c.69.16,1.54.22,2.74.22,4.39,0,7.1-2.22,7.1-5.92,0-3.36-2.3-5.37-6.47-5.37-1.63,0-2.77.13-3.37.27v10.8Z"/><path d="m295.31,749.89v21.02c0,6.31,2.43,9.54,6.62,9.54s6.73-3.06,6.73-9.54v-21.02h8.26v20.51c0,11.28-5.7,16.63-15.27,16.63s-14.61-5.12-14.61-16.73v-20.41h8.26Z"/><path d="m324.09,750.39c2.17-.42,6.53-.79,10.67-.79,5.04,0,8.14.5,10.81,2.05,2.56,1.36,4.36,3.85,4.36,7.21s-1.88,6.25-6,7.77v.14c4.17,1.09,7.28,4.28,7.28,8.96,0,3.35-1.54,5.96-3.8,7.76-2.68,2.15-7.09,3.33-14.37,3.33-4.07,0-7.08-.27-8.93-.54v-35.89Zm8.19,14h2.68c4.38,0,6.66-1.82,6.66-4.53s-2.11-4.24-5.84-4.24c-1.81,0-2.83.12-3.5.25v8.52Zm0,16.17c.79.13,1.77.15,3.17.15,3.75,0,7.05-1.45,7.05-5.3s-3.28-5.12-7.4-5.12h-2.82v10.28Z"/><path d="m356.84,749.89h8.26v29.62h14.54v6.93h-22.81v-36.55Z"/><path d="m392.81,749.89v36.55h-8.26v-36.55h8.26Z"/><path d="m426.81,785.44c-1.48.73-4.94,1.58-9.34,1.58-12.66,0-19.18-7.91-19.18-18.33,0-12.46,8.93-19.36,19.97-19.36,4.3,0,7.56.84,9,1.62l-1.69,6.53c-1.64-.72-3.99-1.37-6.94-1.37-6.52,0-11.63,3.97-11.63,12.1,0,7.33,4.32,11.93,11.68,11.93,2.53,0,5.27-.5,6.91-1.18l1.23,6.48Z"/><path d="m443.48,777.91c2.19,1.17,5.63,2.29,9.16,2.29,3.8,0,5.81-1.58,5.81-3.98,0-2.25-1.74-3.57-6.12-5.11-6.1-2.16-10.08-5.49-10.08-10.82,0-6.23,5.23-10.97,13.83-10.97,4.17,0,7.18.83,9.33,1.84l-1.83,6.63c-1.45-.69-4.08-1.74-7.63-1.74s-5.32,1.67-5.32,3.54c0,2.32,2.02,3.35,6.77,5.14,6.47,2.42,9.47,5.78,9.47,10.94,0,6.1-4.67,11.34-14.73,11.34-4.14,0-8.29-1.13-10.32-2.27l1.67-6.83Z"/><path d="m478.37,786.44l-8.66-36.55h8.85l2.77,15.05c.78,4.35,1.54,9.1,2.12,12.79h.11c.59-3.97,1.46-8.35,2.38-12.89l3.13-14.95h8.78l2.92,15.43c.78,4.26,1.4,8.17,1.93,12.22h.11c.57-4.08,1.34-8.32,2.15-12.7l2.96-14.95h8.4l-9.43,36.55h-8.93l-3.11-15.74c-.73-3.66-1.3-7.1-1.76-11.25h-.11c-.62,4.12-1.21,7.58-2.08,11.27l-3.49,15.71h-9.06Z"/><path d="m528.91,749.89v36.55h-8.26v-36.55h8.26Z"/><path d="m566.99,772.46c-.17-4.43-.34-9.7-.32-15.06h-.15c-1.17,4.68-2.7,9.87-4.08,14.19l-4.48,14.25h-6.42l-3.94-14.12c-1.18-4.3-2.39-9.5-3.3-14.31h-.11c-.18,4.97-.38,10.61-.6,15.17l-.68,13.87h-7.65l2.34-36.55h11.02l3.57,12.22c1.16,4.19,2.28,8.78,3.1,13.07h.18c1-4.23,2.24-9.05,3.48-13.12l3.88-12.16h10.81l1.96,36.55h-8.03l-.57-13.98Z"/><path d="m612.86,772.46c-.17-4.43-.34-9.7-.32-15.06h-.15c-1.17,4.68-2.7,9.87-4.08,14.19l-4.48,14.25h-6.42l-3.94-14.12c-1.18-4.3-2.39-9.5-3.3-14.31h-.11c-.18,4.97-.38,10.61-.6,15.17l-.68,13.87h-7.65l2.34-36.55h11.02l3.57,12.22c1.16,4.19,2.28,8.78,3.1,13.07h.18c1-4.23,2.24-9.05,3.48-13.12l3.88-12.16h10.81l1.96,36.55h-8.03l-.57-13.98Z"/><path d="m636.11,749.89v36.55h-8.26v-36.55h8.26Z"/><path d="m643.3,786.44v-36.55h9.63l7.59,13.41c2.19,3.83,4.32,8.41,5.97,12.54l.14-.02c-.51-4.83-.67-9.75-.67-15.27v-10.66h7.59v36.55h-8.66l-7.83-14.08c-2.18-3.94-4.58-8.63-6.35-12.91l-.18.02c.26,4.84.36,10.02.36,15.99v10.99h-7.59Z"/><path d="m711.23,784.75c-2.56.88-7.39,2.05-12.2,2.05-6.68,0-11.49-1.67-14.86-4.9-3.35-3.18-5.19-7.94-5.17-13.31.04-12.16,8.9-19.07,20.87-19.07,4.72,0,8.35.9,10.16,1.75l-1.73,6.62c-2.03-.87-4.49-1.55-8.5-1.55-6.89,0-12.13,3.87-12.13,11.82s4.76,11.97,11.53,11.97c1.87,0,3.38-.22,4.04-.51v-7.68h-5.65v-6.45h13.64v19.25Z"/><path d="m1032.83,490.83v-21.58h3.01v21.58h-3.01Zm1.78,0v-2.8h5.85c1.6,0,2.74-.31,3.41-.92.67-.61,1-1.42,1-2.42v-.04c0-1.07-.28-1.92-.85-2.56-.57-.64-1.51-.96-2.81-.96h-6.59v-2.73h6.59c1.12,0,1.96-.26,2.53-.79.57-.53.85-1.3.85-2.32,0-1.08-.32-1.88-.95-2.42-.63-.53-1.58-.8-2.85-.8h-6.17v-2.8h6.72c2.13,0,3.71.53,4.75,1.59,1.04,1.06,1.56,2.48,1.56,4.26,0,1.08-.32,2.07-.95,2.96-.63.9-1.63,1.47-2.98,1.71,1.34.2,2.37.79,3.11,1.77s1.11,2.1,1.11,3.37v.04c0,1.76-.57,3.18-1.71,4.26-1.14,1.08-2.68,1.62-4.63,1.62h-6.98Z"/><path d="m1052.46,490.83v-21.59h3.03v21.59h-3.03Zm1.32-9.13v-2.88h7.36c.88,0,1.59-.31,2.12-.92.53-.61.8-1.42.8-2.43s-.27-1.82-.8-2.43c-.53-.61-1.24-.92-2.12-.92h-7.36v-2.88h7.24c1.26,0,2.35.26,3.29.78.94.52,1.67,1.24,2.19,2.17.52.93.78,2.02.78,3.28s-.26,2.34-.79,3.27c-.52.94-1.25,1.66-2.19,2.18-.93.52-2.03.78-3.29.78h-7.24Zm10.82,9.13l-4.94-9.8,3.01-.68,5.52,10.48h-3.59Z"/><path d="m1072.27,490.83v-21.58h3.03v21.58h-3.03Zm1.47-18.7v-2.88h12.39v2.88h-12.39Zm0,9.42v-2.88h10.76v2.88h-10.76Zm0,9.28v-2.88h12.39v2.88h-12.39Z"/><path d="m1088.36,490.83l7.96-21.58h2.58l7.96,21.58h-3.27l-5.98-17.41-5.98,17.41h-3.27Zm3.67-4.73v-2.88h11.35v2.88h-11.35Z"/><path d="m1110.12,490.83v-21.58h3.03v21.58h-3.03Zm1.93-4.93l.45-4.54,9.53-12.11h3.72l-13.7,16.65Zm10.89,4.93l-6.86-11.52,2.39-2.21,8.18,13.73h-3.71Z"/><path d="m1132.94,469.25v21.58h-3.03v-21.58h3.03Z"/><path d="m1138.29,490.81v-21.57h2.75l10.55,16.68-.36.39v-17.07h3v21.57h-2.78l-10.52-16.43.36-.39v16.82h-3Z"/><path d="m1166.84,479.21h7.48v3.77c0,1.62-.31,3.04-.94,4.25-.63,1.21-1.51,2.15-2.63,2.82s-2.45,1-3.98,1-2.88-.31-4.02-.94-2.04-1.51-2.67-2.66c-.63-1.14-.95-2.48-.95-4v-6.37c0-1.62.31-3.04.94-4.25.63-1.21,1.51-2.14,2.63-2.81,1.13-.67,2.45-1,3.98-1,1.26,0,2.4.27,3.44.8s1.9,1.28,2.6,2.24c.7.96,1.18,2.08,1.42,3.37h-3.28c-.28-1.12-.82-1.97-1.62-2.57s-1.66-.89-2.57-.89c-1.35,0-2.42.47-3.24,1.4-.81.93-1.22,2.17-1.22,3.7v6.37c0,1.4.42,2.53,1.25,3.38s1.93,1.27,3.29,1.27,2.42-.45,3.24-1.34,1.22-2.13,1.22-3.73v-.93h-4.38v-2.89Z"/><path d="m1184.42,472.12v-2.88h15.23v2.88h-15.23Zm6.1,18.7v-19.81h3.03v19.81h-3.03Z"/><path d="m1202.61,490.83v-21.58h3.03v21.58h-3.03Zm1.88-9.19v-2.88h11.98v2.88h-11.98Zm10.37,9.19v-21.58h3.03v21.58h-3.03Z"/><path d="m1223.24,490.83v-21.58h3.03v21.58h-3.03Zm1.47-18.7v-2.88h12.39v2.88h-12.39Zm0,9.42v-2.88h10.76v2.88h-10.76Zm0,9.28v-2.88h12.39v2.88h-12.39Z"/><path d="m1249.57,490.83v-21.59h3.03v21.59h-3.03Zm1.32-9.13v-2.88h7.36c.88,0,1.59-.31,2.12-.92.53-.61.8-1.42.8-2.43s-.27-1.82-.8-2.43c-.53-.61-1.24-.92-2.12-.92h-7.36v-2.88h7.24c1.26,0,2.35.26,3.29.78.94.52,1.67,1.24,2.19,2.17.52.93.78,2.02.78,3.28s-.26,2.34-.79,3.27c-.52.94-1.25,1.66-2.19,2.18-.93.52-2.03.78-3.29.78h-7.24Zm10.82,9.13l-4.94-9.8,3.01-.68,5.52,10.48h-3.59Z"/><path d="m1276.06,491.05c-2.4,0-4.27-.7-5.59-2.1-1.32-1.4-1.98-3.38-1.98-5.93v-13.77h3.03v13.88c0,1.57.4,2.79,1.19,3.65.79.86,1.91,1.29,3.35,1.29s2.58-.43,3.38-1.29c.8-.86,1.2-2.08,1.2-3.65v-13.88h3.03v13.77c0,2.55-.66,4.53-1.99,5.93-1.33,1.4-3.2,2.1-5.61,2.1Z"/><path d="m1288.41,490.83v-21.58h3.03v21.58h-3.03Zm1.51,0v-2.88h12.35v2.88h-12.35Z"/><path d="m1305.84,490.83v-21.58h3.03v21.58h-3.03Zm1.47-18.7v-2.88h12.39v2.88h-12.39Zm0,9.42v-2.88h10.76v2.88h-10.76Zm0,9.28v-2.88h12.39v2.88h-12.39Z"/><path d="m1330.49,491.05c-1.05,0-2.04-.1-2.96-.3s-1.79-.5-2.6-.89c-.81-.4-1.56-.89-2.26-1.48l1.88-2.32c.82.71,1.73,1.25,2.72,1.6s2.06.53,3.22.53c1.56,0,2.78-.29,3.64-.88.86-.58,1.29-1.4,1.29-2.45v-.02c0-.82-.22-1.45-.65-1.88s-1.01-.76-1.71-.97c-.71-.21-1.48-.39-2.32-.53-.81-.14-1.63-.3-2.46-.49-.83-.19-1.59-.48-2.28-.88-.69-.4-1.25-.98-1.67-1.73-.42-.75-.63-1.76-.63-3.01v-.02c0-2.01.67-3.56,2-4.67,1.34-1.1,3.22-1.66,5.66-1.66,1.16,0,2.29.19,3.4.56s2.19.94,3.24,1.7l-1.72,2.4c-.82-.61-1.64-1.07-2.46-1.37s-1.63-.45-2.46-.45c-1.47,0-2.62.29-3.44.88-.82.59-1.22,1.42-1.22,2.5h0c0,.83.24,1.45.71,1.87.47.43,1.1.74,1.86.94.77.2,1.59.39,2.47.57.79.16,1.58.35,2.38.57.79.22,1.51.54,2.16.96.65.42,1.17,1,1.56,1.73.39.73.59,1.69.59,2.86v.03c0,1.99-.69,3.53-2.08,4.62-1.38,1.09-3.33,1.63-5.85,1.63Z"/><path d="m1355.62,486.17l4.42-16.92h2.08l4.42,16.92,3.81-16.92h3.15l-5.27,21.58h-3.09l-3.98-15.08-4.16,15.08h-3.09l-5.27-21.58h3.15l3.81,16.92Z"/><path d="m1379.79,469.25v21.58h-3.03v-21.58h3.03Z"/><path d="m1385.14,490.83v-21.58h3.03v21.58h-3.03Zm1.51,0v-2.88h12.35v2.88h-12.35Z"/><path d="m1402.56,490.83v-21.58h3.03v21.58h-3.03Zm1.51,0v-2.88h12.35v2.88h-12.35Z"/><path d="m1435.21,491.05c-1.5,0-2.82-.33-3.95-1s-2-1.61-2.63-2.81c-.62-1.21-.93-2.62-.93-4.23v-5.92c0-1.62.31-3.04.93-4.25.62-1.21,1.5-2.14,2.63-2.81s2.44-1,3.95-1c1.25,0,2.39.27,3.42.8s1.9,1.28,2.6,2.24c.7.96,1.17,2.08,1.42,3.37h-3.1c-.19-.69-.5-1.3-.94-1.82-.44-.52-.96-.92-1.55-1.21-.59-.29-1.21-.43-1.84-.43-1.33,0-2.39.47-3.2,1.4-.81.93-1.21,2.17-1.21,3.7v5.92c0,1.53.4,2.77,1.21,3.7.81.93,1.87,1.4,3.2,1.4.94,0,1.83-.3,2.66-.89.83-.59,1.39-1.45,1.68-2.57h3.1c-.25,1.29-.72,2.41-1.42,3.37-.7.96-1.57,1.71-2.6,2.24-1.03.53-2.17.8-3.41.8Z"/><path d="m1443.98,490.83l7.96-21.58h2.58l7.96,21.58h-3.27l-5.98-17.41-5.98,17.41h-3.27Zm3.67-4.73v-2.88h11.35v2.88h-11.35Z"/><path d="m1471.83,491.05c-2.4,0-4.27-.7-5.59-2.1-1.32-1.4-1.98-3.38-1.98-5.93v-13.77h3.03v13.88c0,1.57.4,2.79,1.19,3.65.79.86,1.91,1.29,3.35,1.29s2.58-.43,3.38-1.29c.8-.86,1.2-2.08,1.2-3.65v-13.88h3.03v13.77c0,2.55-.66,4.53-1.99,5.93-1.33,1.4-3.2,2.1-5.61,2.1Z"/><path d="m1490.37,491.05c-1.05,0-2.04-.1-2.96-.3s-1.79-.5-2.6-.89c-.81-.4-1.56-.89-2.26-1.48l1.88-2.32c.82.71,1.73,1.25,2.72,1.6s2.06.53,3.22.53c1.56,0,2.78-.29,3.64-.88.86-.58,1.29-1.4,1.29-2.45v-.02c0-.82-.22-1.45-.65-1.88s-1.01-.76-1.71-.97c-.71-.21-1.48-.39-2.32-.53-.81-.14-1.63-.3-2.46-.49-.83-.19-1.59-.48-2.28-.88-.69-.4-1.25-.98-1.67-1.73-.42-.75-.63-1.76-.63-3.01v-.02c0-2.01.67-3.56,2-4.67,1.34-1.1,3.22-1.66,5.66-1.66,1.16,0,2.29.19,3.4.56s2.19.94,3.24,1.7l-1.72,2.4c-.82-.61-1.64-1.07-2.46-1.37s-1.63-.45-2.46-.45c-1.47,0-2.62.29-3.44.88-.82.59-1.22,1.42-1.22,2.5h0c0,.83.24,1.45.71,1.87.47.43,1.1.74,1.86.94.77.2,1.59.39,2.47.57.79.16,1.58.35,2.38.57.79.22,1.51.54,2.16.96.65.42,1.17,1,1.56,1.73.39.73.59,1.69.59,2.86v.03c0,1.99-.69,3.53-2.08,4.62-1.38,1.09-3.33,1.63-5.85,1.63Z"/><path d="m1502.3,490.83v-21.58h3.03v21.58h-3.03Zm1.47-18.7v-2.88h12.39v2.88h-12.39Zm0,9.42v-2.88h10.76v2.88h-10.76Zm0,9.28v-2.88h12.39v2.88h-12.39Z"/><path d="m1035.86,505.72v21.58h-3.03v-21.58h3.03Z"/><path d="m1050.38,519.97l6.34-14.25h2.83v21.58h-2.95v-16.16l.15.95-5.31,12.21h-2.11l-5.31-11.92.15-1.25v16.16h-2.95v-21.58h2.83l6.34,14.25Z"/><path d="m1074.07,519.97l6.34-14.25h2.83v21.58h-2.95v-16.16l.15.95-5.31,12.21h-2.11l-5.31-11.92.15-1.25v16.16h-2.95v-21.58h2.83l6.34,14.25Z"/><path d="m1088.58,527.3v-21.58h3.03v21.58h-3.03Zm1.47-18.7v-2.88h12.39v2.88h-12.39Zm0,9.42v-2.88h10.76v2.88h-10.76Zm0,9.28v-2.88h12.39v2.88h-12.39Z"/><path d="m1106.75,527.3v-21.58h3.03v21.58h-3.03Zm2.05,0v-2.88h4.88c1.59,0,2.83-.41,3.7-1.24s1.31-1.99,1.31-3.5v-6.35c0-1.5-.44-2.67-1.31-3.5-.88-.83-2.11-1.24-3.7-1.24h-4.88v-2.88h4.79c2.61,0,4.63.67,6.06,2.03,1.43,1.35,2.15,3.25,2.15,5.71v6.12c0,1.63-.32,3.03-.96,4.18-.64,1.15-1.58,2.03-2.81,2.64s-2.71.91-4.45.91h-4.78Z"/><path d="m1129.43,505.72v21.58h-3.03v-21.58h3.03Z"/><path d="m1132.39,527.3l7.96-21.58h2.58l7.96,21.58h-3.27l-5.98-17.41-5.98,17.41h-3.27Zm3.67-4.73v-2.88h11.35v2.88h-11.35Z"/><path d="m1150.59,508.6v-2.88h15.23v2.88h-15.23Zm6.1,18.7v-19.81h3.03v19.81h-3.03Z"/><path d="m1168.79,527.3v-21.58h3.03v21.58h-3.03Zm1.47-18.7v-2.88h12.39v2.88h-12.39Zm0,9.42v-2.88h10.76v2.88h-10.76Zm0,9.28v-2.88h12.39v2.88h-12.39Z"/><path d="m1195.12,527.3v-21.58h3.03v21.58h-3.03Zm1.47-18.7v-2.88h12.39v2.88h-12.39Zm0,9.42v-2.88h10.76v2.88h-10.76Zm0,9.28v-2.88h12.39v2.88h-12.39Z"/><path d="m1210.91,527.3l7.51-12.33,5.42-9.25h3.4l-7.14,11.68-5.79,9.9h-3.4Zm13.25,0l-5.61-9.48-.46-.74-7.01-11.35h3.4l5.21,8.79.49.8,7.38,11.99h-3.4Z"/><path d="m1230.83,527.3v-21.58h3.03v21.58h-3.03Zm1.56-8.37v-2.88h6.9c.99,0,1.78-.34,2.38-1.02s.9-1.58.9-2.69-.3-2.03-.9-2.72-1.39-1.02-2.38-1.02h-6.9v-2.88h6.8c1.31,0,2.44.27,3.41.82.97.55,1.72,1.32,2.26,2.31.54.99.81,2.15.81,3.49s-.27,2.48-.81,3.47c-.54.99-1.29,1.76-2.26,2.3-.97.54-2.11.82-3.41.82h-6.8Z"/><path d="m1256.72,527.52c-2.4,0-4.27-.7-5.59-2.1-1.32-1.4-1.98-3.38-1.98-5.93v-13.77h3.03v13.88c0,1.57.4,2.79,1.19,3.65.79.86,1.91,1.29,3.35,1.29s2.58-.43,3.38-1.29c.8-.86,1.2-2.08,1.2-3.65v-13.88h3.03v13.77c0,2.55-.66,4.53-1.99,5.93-1.33,1.4-3.2,2.1-5.61,2.1Z"/><path d="m1269.07,527.3v-21.58h3.03v21.58h-3.03Zm1.51,0v-2.88h12.35v2.88h-12.35Z"/><path d="m1292.39,527.52c-1.05,0-2.04-.1-2.96-.3s-1.79-.5-2.6-.89c-.81-.4-1.56-.89-2.26-1.48l1.88-2.32c.82.71,1.73,1.25,2.72,1.6s2.06.53,3.22.53c1.56,0,2.78-.29,3.64-.88.86-.58,1.29-1.4,1.29-2.45v-.02c0-.82-.22-1.45-.65-1.88s-1.01-.76-1.71-.97c-.71-.21-1.48-.39-2.32-.53-.81-.14-1.63-.3-2.46-.49-.83-.19-1.59-.48-2.28-.88-.69-.4-1.25-.98-1.67-1.73-.42-.75-.63-1.76-.63-3.01v-.02c0-2.01.67-3.56,2-4.67,1.34-1.1,3.22-1.66,5.66-1.66,1.16,0,2.29.19,3.4.56s2.19.94,3.24,1.7l-1.72,2.4c-.82-.61-1.64-1.07-2.46-1.37s-1.63-.45-2.46-.45c-1.47,0-2.62.29-3.44.88-.82.59-1.22,1.42-1.22,2.5h0c0,.83.24,1.45.71,1.87.47.43,1.1.74,1.86.94.77.2,1.59.39,2.47.57.79.16,1.58.35,2.38.57.79.22,1.51.54,2.16.96.65.42,1.17,1,1.56,1.73.39.73.59,1.69.59,2.86v.03c0,1.99-.69,3.53-2.08,4.62-1.38,1.09-3.33,1.63-5.85,1.63Z"/><path d="m1307.35,505.72v21.58h-3.03v-21.58h3.03Z"/><path d="m1319.83,527.52c-1.52,0-2.85-.33-3.99-.99-1.14-.66-2.02-1.58-2.65-2.78-.63-1.2-.94-2.59-.94-4.19v-6.12c0-1.6.31-3,.94-4.19.63-1.19,1.51-2.12,2.65-2.78,1.14-.66,2.47-.99,3.99-.99s2.85.33,3.99.99,2.02,1.58,2.65,2.78.94,2.59.94,4.19v6.12c0,1.59-.31,2.99-.94,4.19s-1.51,2.12-2.65,2.78c-1.14.66-2.47.99-3.99.99Zm0-2.98c1.36,0,2.44-.45,3.26-1.34s1.22-2.07,1.22-3.53v-6.32c0-1.47-.41-2.65-1.22-3.54s-1.9-1.33-3.26-1.33-2.43.44-3.25,1.33c-.82.89-1.23,2.07-1.23,3.54v6.32c0,1.46.41,2.64,1.23,3.53.82.89,1.9,1.34,3.25,1.34Z"/><path d="m1332.02,527.29v-21.57h2.75l10.55,16.68-.36.39v-17.07h3v21.57h-2.78l-10.52-16.43.36-.39v16.82h-3Z"/><path d="m1367.53,517.82c-1.23,0-2.18.31-2.86.92s-1.02,1.48-1.02,2.6.36,1.95,1.08,2.56c.72.61,1.73.91,3.04.91,1.87,0,3.32-.74,4.35-2.21,1.03-1.47,1.54-3.55,1.54-6.23h2.88c0,2.37-.37,4.38-1.11,6.04-.74,1.66-1.82,2.93-3.22,3.81s-3.11,1.31-5.11,1.31-3.6-.54-4.71-1.62c-1.11-1.08-1.67-2.6-1.67-4.57,0-1.77.49-3.19,1.46-4.24s2.34-1.67,4.1-1.83l1.25,2.55Zm6.78,9.48l-8.22-8.58c-1.02-1.07-1.82-2.21-2.4-3.44-.58-1.22-.87-2.49-.87-3.81,0-1.89.5-3.35,1.51-4.39,1.01-1.03,2.43-1.55,4.27-1.55s3.25.5,4.25,1.49c1,.99,1.51,2.4,1.51,4.22v.3h-3.03v-.3c0-.88-.24-1.56-.71-2.04-.47-.48-1.15-.72-2.02-.72s-1.55.26-2.03.78c-.49.52-.73,1.25-.73,2.2,0,.87.21,1.77.63,2.7s1.02,1.81,1.8,2.63l9.87,10.49h-3.84Z"/><path d="m1387.36,527.3l7.96-21.58h2.58l7.96,21.58h-3.27l-5.98-17.41-5.98,17.41h-3.27Zm3.67-4.73v-2.88h11.35v2.88h-11.35Z"/><path d="m1417.28,527.3v-21.58h3.03v21.58h-3.03Zm1.56-8.37v-2.88h6.9c.99,0,1.78-.34,2.38-1.02s.9-1.58.9-2.69-.3-2.03-.9-2.72-1.39-1.02-2.38-1.02h-6.9v-2.88h6.8c1.31,0,2.44.27,3.41.82.97.55,1.72,1.32,2.26,2.31.54.99.81,2.15.81,3.49s-.27,2.48-.81,3.47c-.54.99-1.29,1.76-2.26,2.3-.97.54-2.11.82-3.41.82h-6.8Z"/><path d="m1435.91,527.3v-21.58h3.03v21.58h-3.03Zm1.47-18.7v-2.88h12.39v2.88h-12.39Zm0,9.42v-2.88h10.76v2.88h-10.76Zm0,9.28v-2.88h12.39v2.88h-12.39Z"/><path d="m1454.08,527.3v-21.59h3.03v21.59h-3.03Zm1.32-9.13v-2.88h7.36c.88,0,1.59-.31,2.12-.92.53-.61.8-1.42.8-2.43s-.27-1.82-.8-2.43c-.53-.61-1.24-.92-2.12-.92h-7.36v-2.88h7.24c1.26,0,2.35.26,3.29.78.94.52,1.67,1.24,2.19,2.17.52.93.78,2.02.78,3.28s-.26,2.34-.79,3.27c-.52.94-1.25,1.66-2.19,2.18-.93.52-2.03.78-3.29.78h-7.24Zm10.82,9.13l-4.94-9.8,3.01-.68,5.52,10.48h-3.59Z"/><path d="m1483.06,519.97l6.34-14.25h2.83v21.58h-2.95v-16.16l.15.95-5.31,12.21h-2.11l-5.31-11.92.15-1.25v16.16h-2.95v-21.58h2.83l6.34,14.25Z"/><path d="m1495.2,527.3l7.96-21.58h2.58l7.96,21.58h-3.27l-5.98-17.41-5.98,17.41h-3.27Zm3.67-4.73v-2.88h11.35v2.88h-11.35Z"/><path d="m1516.96,527.29v-21.57h2.75l10.55,16.68-.36.39v-17.07h3v21.57h-2.78l-10.52-16.43.36-.39v16.82h-3Z"/><path d="m1538.25,527.3v-21.58h3.03v21.58h-3.03Zm1.47-18.7v-2.88h12.39v2.88h-12.39Zm0,9.42v-2.88h10.76v2.88h-10.76Zm0,9.28v-2.88h12.39v2.88h-12.39Z"/><path d="m1556.41,527.29v-21.57h2.75l10.55,16.68-.36.39v-17.07h3v21.57h-2.78l-10.52-16.43.36-.39v16.82h-3Z"/><path d="m1575.91,508.6v-2.88h15.23v2.88h-15.23Zm6.1,18.7v-19.81h3.03v19.81h-3.03Z"/><path d="m1601.68,527.3v-21.58h3.01v21.58h-3.01Zm1.78,0v-2.8h5.85c1.6,0,2.74-.31,3.41-.92.67-.61,1-1.42,1-2.42v-.04c0-1.07-.28-1.92-.85-2.56-.57-.64-1.51-.96-2.81-.96h-6.59v-2.73h6.59c1.12,0,1.96-.26,2.53-.79.57-.53.85-1.3.85-2.32,0-1.08-.32-1.88-.95-2.42-.63-.53-1.58-.8-2.85-.8h-6.17v-2.8h6.72c2.13,0,3.71.53,4.75,1.59,1.04,1.06,1.56,2.48,1.56,4.26,0,1.08-.32,2.07-.95,2.96-.63.9-1.63,1.47-2.98,1.71,1.34.2,2.37.79,3.11,1.77s1.11,2.1,1.11,3.37v.04c0,1.76-.57,3.18-1.71,4.26-1.14,1.08-2.68,1.62-4.63,1.62h-6.98Z"/><path d="m1618.78,527.3l7.96-21.58h2.58l7.96,21.58h-3.27l-5.98-17.41-5.98,17.41h-3.27Zm3.67-4.73v-2.88h11.35v2.88h-11.35Z"/><path d="m1640.54,527.29v-21.57h2.75l10.55,16.68-.36.39v-17.07h3v21.57h-2.78l-10.52-16.43.36-.39v16.82h-3Z"/><path class="cls-76" d="m1026.77,605.82c2.04-.34,5.07-.6,8.45-.6,4.17,0,7.09.64,9.1,2.23,1.68,1.33,2.6,3.31,2.6,5.9,0,3.56-2.55,6.04-4.97,6.91v.13c1.95.79,3.05,2.65,3.76,5.24.87,3.18,1.72,6.85,2.27,7.94h-6.51c-.43-.81-1.13-3.08-1.93-6.56-.78-3.51-1.96-4.45-4.58-4.49h-1.89v11.04h-6.3v-27.74Zm6.3,12.1h2.49c3.16,0,5.04-1.61,5.04-4.05,0-2.58-1.76-3.89-4.67-3.91-1.52,0-2.42.1-2.86.21v7.75Z"/><path class="cls-76" d="m1068.22,621.67h-10.35v6.69h11.57v5.21h-17.93v-28.13h17.33v5.21h-10.97v5.86h10.35v5.16Z"/><path class="cls-76" d="m1080.32,626.34l-1.98,7.22h-6.58l8.58-28.13h8.32l8.76,28.13h-6.85l-2.16-7.22h-8.09Zm7.15-4.74l-1.75-5.98c-.48-1.66-.98-3.77-1.41-5.42h-.09c-.41,1.65-.84,3.79-1.29,5.42l-1.68,5.97h6.22Z"/><path class="cls-76" d="m1101.18,605.82c2.34-.38,5.39-.6,8.58-.6,5.34,0,8.82.98,11.52,3.02,2.92,2.18,4.76,5.61,4.76,10.58,0,5.39-1.95,9.12-4.65,11.39-2.96,2.47-7.49,3.64-12.97,3.64-3.3,0-5.66-.2-7.22-.42v-27.62Zm6.35,22.95c.55.1,1.44.11,2.22.11,5.76.05,9.55-3.13,9.55-9.86.01-5.84-3.41-8.92-8.88-8.92-1.39,0-2.33.12-2.89.24v18.42Z"/><path class="cls-76" d="m1156.57,633.57c-.62-.62-1.2-1.24-1.86-2.01-1.83,1.44-4.39,2.47-7.72,2.47-6.82,0-9.81-4.03-9.81-7.96,0-3.72,2.12-6.4,5.36-8.08v-.14c-1.21-1.34-2.16-3.41-2.16-5.42,0-3.57,2.81-7.44,8.47-7.44,4.34,0,7.62,2.56,7.62,6.59,0,2.85-1.67,5.27-5.56,7.23l-.03.17c1.6,1.8,3.34,3.85,4.69,5.26,1.15-1.77,2-4.35,2.4-6.86h5.66c-.75,4.28-2.16,7.91-4.67,10.68,1.61,1.82,3.23,3.66,4.96,5.52h-7.36Zm-4.83-5.56c-1.73-1.72-4.02-4.31-6.33-6.89-1.16.84-2.22,2.06-2.22,3.89,0,2.4,1.79,4.41,4.69,4.41,1.66,0,3.02-.62,3.86-1.41Zm-5.65-16.19c0,1.43.64,2.68,1.92,4.05,2.04-1.39,3.06-2.5,3.06-4.12,0-1.33-.77-2.78-2.44-2.78s-2.54,1.39-2.54,2.86Z"/><path class="cls-76" d="m1175.39,605.44h17.18v5.21h-10.82v6.45h10.12v5.16h-10.12v11.31h-6.36v-28.13Z"/><path class="cls-76" d="m1223.11,619.22c0,9.23-5.57,14.8-13.79,14.8s-13.25-6.31-13.25-14.33,5.41-14.71,13.69-14.71,13.35,6.46,13.35,14.24Zm-20.32.35c0,5.51,2.6,9.4,6.84,9.4s6.76-4.06,6.76-9.53c0-5.07-2.4-9.4-6.77-9.4s-6.82,4.07-6.82,9.54Z"/><path class="cls-76" d="m1227.31,605.44h6.36v22.8h11.19v5.33h-17.55v-28.13Z"/><path class="cls-76" d="m1248.63,605.44h6.36v22.8h11.19v5.33h-17.55v-28.13Z"/><path class="cls-76" d="m1294.1,619.22c0,9.23-5.57,14.8-13.79,14.8s-13.25-6.31-13.25-14.33,5.41-14.71,13.69-14.71,13.35,6.46,13.35,14.24Zm-20.32.35c0,5.51,2.6,9.4,6.84,9.4s6.76-4.06,6.76-9.53c0-5.07-2.4-9.4-6.77-9.4s-6.82,4.07-6.82,9.54Z"/><path class="cls-76" d="m1302.53,633.57l-6.66-28.13h6.81l2.13,11.58c.6,3.35,1.19,7,1.64,9.84h.09c.45-3.06,1.12-6.42,1.83-9.92l2.41-11.5h6.76l2.25,11.87c.6,3.28,1.08,6.29,1.48,9.4h.09c.44-3.14,1.03-6.4,1.65-9.77l2.28-11.5h6.46l-7.25,28.13h-6.87l-2.39-12.11c-.56-2.81-1-5.47-1.36-8.66h-.08c-.48,3.17-.93,5.84-1.6,8.68l-2.69,12.09h-6.97Z"/><path class="cls-76" d="m1369.22,619.22c0,9.23-5.57,14.8-13.79,14.8s-13.25-6.31-13.25-14.33,5.41-14.71,13.69-14.71,13.35,6.46,13.35,14.24Zm-20.32.35c0,5.51,2.6,9.4,6.84,9.4s6.76-4.06,6.76-9.53c0-5.07-2.4-9.4-6.77-9.4s-6.82,4.07-6.82,9.54Z"/><path class="cls-76" d="m1379.74,605.44v16.18c0,4.86,1.87,7.34,5.1,7.34s5.18-2.36,5.18-7.34v-16.18h6.36v15.79c0,8.68-4.39,12.8-11.75,12.8s-11.24-3.94-11.24-12.88v-15.71h6.36Z"/><path class="cls-76" d="m1401.89,605.82c2.04-.34,5.07-.6,8.45-.6,4.17,0,7.09.64,9.1,2.23,1.68,1.33,2.6,3.31,2.6,5.9,0,3.56-2.55,6.04-4.97,6.91v.13c1.95.79,3.05,2.65,3.76,5.24.87,3.18,1.72,6.85,2.27,7.94h-6.51c-.43-.81-1.13-3.08-1.93-6.56-.78-3.51-1.96-4.45-4.58-4.49h-1.89v11.04h-6.3v-27.74Zm6.3,12.1h2.49c3.16,0,5.04-1.61,5.04-4.05,0-2.58-1.76-3.89-4.67-3.91-1.52,0-2.42.1-2.86.21v7.75Z"/><path class="cls-76" d="m1435.07,605.81c1.96-.33,4.71-.59,8.58-.59s6.72.76,8.61,2.27c1.8,1.4,2.98,3.75,2.98,6.5s-.89,5.11-2.57,6.66c-2.17,2.04-5.41,2.98-9.13,2.98-.84,0-1.6-.06-2.17-.14v10.07h-6.3v-27.75Zm6.3,12.76c.53.12,1.18.17,2.11.17,3.38,0,5.46-1.71,5.46-4.56,0-2.59-1.77-4.13-4.98-4.13-1.26,0-2.13.1-2.6.21v8.31Z"/><path class="cls-76" d="m1485.04,619.22c0,9.23-5.57,14.8-13.79,14.8s-13.25-6.31-13.25-14.33,5.41-14.71,13.69-14.71,13.35,6.46,13.35,14.24Zm-20.32.35c0,5.51,2.6,9.4,6.84,9.4s6.76-4.06,6.76-9.53c0-5.07-2.4-9.4-6.77-9.4s-6.82,4.07-6.82,9.54Z"/><path class="cls-76" d="m1514.97,619.22c0,9.23-5.57,14.8-13.79,14.8s-13.25-6.31-13.25-14.33,5.41-14.71,13.69-14.71,13.35,6.46,13.35,14.24Zm-20.32.35c0,5.51,2.6,9.4,6.84,9.4s6.76-4.06,6.76-9.53c0-5.07-2.4-9.4-6.77-9.4s-6.82,4.07-6.82,9.54Z"/><path class="cls-76" d="m1519.17,605.44h6.36v22.8h11.19v5.33h-17.55v-28.13Z"/><path class="cls-76" d="m1548.92,605.82c2.04-.34,5.07-.6,8.45-.6,4.17,0,7.09.64,9.1,2.23,1.68,1.33,2.6,3.31,2.6,5.9,0,3.56-2.55,6.04-4.97,6.91v.13c1.95.79,3.05,2.65,3.76,5.24.87,3.18,1.72,6.85,2.27,7.94h-6.51c-.43-.81-1.13-3.08-1.93-6.56-.78-3.51-1.96-4.45-4.58-4.49h-1.89v11.04h-6.3v-27.74Zm6.3,12.1h2.49c3.16,0,5.04-1.61,5.04-4.05,0-2.58-1.76-3.89-4.67-3.91-1.52,0-2.42.1-2.86.21v7.75Z"/><path class="cls-76" d="m1579.78,605.44v16.18c0,4.86,1.87,7.34,5.1,7.34s5.18-2.36,5.18-7.34v-16.18h6.36v15.79c0,8.68-4.39,12.8-11.75,12.8s-11.24-3.94-11.24-12.88v-15.71h6.36Z"/><path class="cls-76" d="m1601.93,605.44h6.36v22.8h11.19v5.33h-17.55v-28.13Z"/><path class="cls-76" d="m1639.97,621.67h-10.35v6.69h11.57v5.21h-17.93v-28.13h17.33v5.21h-10.97v5.86h10.35v5.16Z"/><path class="cls-76" d="m1645.75,627c1.68.9,4.33,1.77,7.05,1.77,2.92,0,4.47-1.21,4.47-3.06,0-1.73-1.34-2.75-4.71-3.93-4.69-1.66-7.76-4.22-7.76-8.33,0-4.8,4.03-8.44,10.64-8.44,3.21,0,5.52.64,7.18,1.42l-1.41,5.1c-1.12-.53-3.14-1.34-5.87-1.34s-4.09,1.28-4.09,2.72c0,1.79,1.56,2.58,5.21,3.95,4.98,1.86,7.29,4.45,7.29,8.42,0,4.7-3.6,8.73-11.34,8.73-3.19,0-6.38-.87-7.94-1.75l1.29-5.25Z"/><path d="m304.37,857.34h41.1c6.59,0,11.75.6,15.46,1.81,3.71,1.21,6.77,3.01,9.18,5.42,2.01,2.01,3.56,4.49,4.65,7.43,1.09,2.94,1.63,5.97,1.63,9.09,0,4.66-1.21,8.97-3.64,12.94-2.43,3.97-5.84,7.15-10.25,9.54-4.4,2.39-9.43,3.58-15.07,3.58-4.46,0-8.51-.35-12.14-1.07v-.59c.83.08,2.09.12,3.79.12,4.42,0,8.52-.76,12.29-2.28,3.77-1.52,6.8-3.89,9.09-7.11,2.29-3.22,3.44-7.25,3.44-12.11,0-5.65-1.76-10.96-5.27-15.93-3.51-4.97-8.71-7.46-15.58-7.46-3.32,0-6.26.32-8.82.95-.28,1.58-.57,5.51-.89,11.79-.32,6.28-.47,10.68-.47,13.21v28.25c0,1.18.09,3.86.27,8.03.18,4.17.36,7.77.56,10.81.2,3.04.49,5.59.89,7.64l14.81,2.19-.65.71h-44.36l.24-.83,14.33-2.07c.43-3.32.77-6.83,1.01-10.54.24-3.71.44-8.18.62-13.41s.27-9.13.27-11.7v-14.21c0-5.01-.16-10.63-.47-16.85-.32-6.22-.71-11.07-1.18-14.54l-14.69-2.07-.12-.71Zm18.06,2.25v82.26h4.15v-82.26h-4.15Zm23.75-.83h-2.13v.59c4.46.24,8.36,1.51,11.7,3.82,3.34,2.31,5.85,5.3,7.55,8.97,1.7,3.67,2.55,7.62,2.55,11.85,0,4.82-1.03,8.8-3.08,11.96-2.05,3.16-4.5,5.45-7.34,6.87-2.84,1.42-5.67,2.27-8.47,2.55v.71h1.07c2.21,0,5.02-.6,8.44-1.81,3.41-1.2,6.54-3.52,9.39-6.96,2.84-3.43,4.26-8.19,4.26-14.27,0-3.75-.77-7.5-2.31-11.25-1.54-3.75-4.12-6.86-7.73-9.33-3.61-2.47-8.24-3.7-13.89-3.7Z"/><path d="m430.99,856.33c8.41,0,15.69,1.4,21.85,4.2,6.16,2.8,11.2,6.48,15.13,11.02,3.93,4.54,6.81,9.37,8.65,14.48s2.75,10.02,2.75,14.72c0,5.37-1.04,10.64-3.11,15.81-2.07,5.17-5.13,9.9-9.18,14.18-4.05,4.29-9.06,7.71-15.04,10.28-5.98,2.57-12.64,3.85-19.99,3.85-10.62,0-19.62-2.3-27.01-6.9-7.38-4.6-12.83-10.29-16.35-17.09-3.51-6.79-5.27-13.42-5.27-19.9,0-5.72,1.12-11.27,3.35-16.64,2.23-5.37,5.47-10.18,9.71-14.42,4.24-4.24,9.33-7.57,15.25-9.98,5.92-2.41,12.34-3.61,19.25-3.61Zm-2.43,2.31v-.59c-5.53.04-10.92,1.22-16.17,3.55-5.25,2.33-9.87,5.49-13.86,9.48-3.99,3.99-7.1,8.53-9.33,13.62-2.23,5.09-3.35,10.44-3.35,16.05,0,6.87,1.87,13.55,5.6,20.05,3.73,6.5,8.89,11.78,15.49,15.84,6.59,4.07,13.84,6.22,21.74,6.46v-.65c-7.66-.67-14.43-3.06-20.31-7.17-5.88-4.11-10.35-9.2-13.41-15.28-3.06-6.08-4.59-12.38-4.59-18.89,0-5.37.89-10.52,2.67-15.46s4.34-9.34,7.7-13.21c3.36-3.87,7.41-7.01,12.17-9.42,4.76-2.41,9.98-3.87,15.67-4.38Zm2.78,1.84c-6.12,0-11.78,1.6-16.97,4.8-5.19,3.2-9.32,7.82-12.38,13.86-3.06,6.04-4.59,13.17-4.59,21.38,0,8.84,1.67,16.32,5,22.42,3.34,6.1,7.62,10.62,12.85,13.56,5.23,2.94,10.63,4.41,16.2,4.41,4.54,0,8.84-.87,12.91-2.61,4.07-1.74,7.7-4.27,10.9-7.61,3.2-3.34,5.69-7.44,7.49-12.32,1.8-4.88,2.69-10.31,2.69-16.32,0-8.21-.95-14.77-2.84-19.66-1.9-4.9-4.68-9.18-8.35-12.85-3.12-3.12-6.66-5.41-10.63-6.87-3.97-1.46-8.06-2.19-12.29-2.19Zm3.02-2.43v.59c3.83.28,7.68,1.17,11.55,2.69,3.87,1.52,7.49,3.89,10.87,7.11,3.38,3.22,6.09,7.55,8.14,13,2.05,5.45,3.08,12,3.08,19.66,0,5.02-.6,9.81-1.81,14.39-1.2,4.58-3.14,8.8-5.8,12.67-2.67,3.87-6.15,7.07-10.45,9.59-4.3,2.53-9.46,4.09-15.46,4.68v.65c5.05-.24,9.85-1.32,14.39-3.26,4.54-1.93,8.58-4.71,12.11-8.32,3.53-3.61,6.33-8.03,8.38-13.24,2.05-5.21,3.08-11.02,3.08-17.41,0-6.99-1.07-13.16-3.2-18.51-2.13-5.35-5.03-9.8-8.71-13.36-3.67-3.55-7.75-6.24-12.23-8.05-4.48-1.82-9.13-2.78-13.95-2.9Z"/><path d="m535.94,856.33c8.41,0,15.69,1.4,21.85,4.2,6.16,2.8,11.2,6.48,15.13,11.02,3.93,4.54,6.81,9.37,8.65,14.48s2.75,10.02,2.75,14.72c0,5.37-1.04,10.64-3.11,15.81-2.07,5.17-5.13,9.9-9.18,14.18-4.05,4.29-9.06,7.71-15.04,10.28-5.98,2.57-12.64,3.85-19.99,3.85-10.62,0-19.62-2.3-27.01-6.9-7.38-4.6-12.83-10.29-16.35-17.09-3.51-6.79-5.27-13.42-5.27-19.9,0-5.72,1.12-11.27,3.35-16.64,2.23-5.37,5.47-10.18,9.71-14.42,4.24-4.24,9.33-7.57,15.25-9.98,5.92-2.41,12.34-3.61,19.25-3.61Zm-2.43,2.31v-.59c-5.53.04-10.92,1.22-16.17,3.55-5.25,2.33-9.87,5.49-13.86,9.48-3.99,3.99-7.1,8.53-9.33,13.62-2.23,5.09-3.35,10.44-3.35,16.05,0,6.87,1.87,13.55,5.6,20.05,3.73,6.5,8.89,11.78,15.49,15.84,6.59,4.07,13.84,6.22,21.74,6.46v-.65c-7.66-.67-14.43-3.06-20.31-7.17-5.88-4.11-10.35-9.2-13.41-15.28-3.06-6.08-4.59-12.38-4.59-18.89,0-5.37.89-10.52,2.67-15.46s4.34-9.34,7.7-13.21c3.36-3.87,7.41-7.01,12.17-9.42,4.76-2.41,9.98-3.87,15.67-4.38Zm2.78,1.84c-6.12,0-11.78,1.6-16.97,4.8-5.19,3.2-9.32,7.82-12.38,13.86-3.06,6.04-4.59,13.17-4.59,21.38,0,8.84,1.67,16.32,5,22.42,3.34,6.1,7.62,10.62,12.85,13.56,5.23,2.94,10.63,4.41,16.2,4.41,4.54,0,8.84-.87,12.91-2.61,4.07-1.74,7.7-4.27,10.9-7.61,3.2-3.34,5.69-7.44,7.49-12.32,1.8-4.88,2.69-10.31,2.69-16.32,0-8.21-.95-14.77-2.84-19.66-1.9-4.9-4.68-9.18-8.35-12.85-3.12-3.12-6.66-5.41-10.63-6.87-3.97-1.46-8.06-2.19-12.29-2.19Zm3.02-2.43v.59c3.83.28,7.68,1.17,11.55,2.69,3.87,1.52,7.49,3.89,10.87,7.11,3.38,3.22,6.09,7.55,8.14,13,2.05,5.45,3.08,12,3.08,19.66,0,5.02-.6,9.81-1.81,14.39-1.2,4.58-3.14,8.8-5.8,12.67-2.67,3.87-6.15,7.07-10.45,9.59-4.3,2.53-9.46,4.09-15.46,4.68v.65c5.05-.24,9.85-1.32,14.39-3.26,4.54-1.93,8.58-4.71,12.11-8.32,3.53-3.61,6.33-8.03,8.38-13.24,2.05-5.21,3.08-11.02,3.08-17.41,0-6.99-1.07-13.16-3.2-18.51-2.13-5.35-5.03-9.8-8.71-13.36-3.67-3.55-7.75-6.24-12.23-8.05-4.48-1.82-9.13-2.78-13.95-2.9Z"/><path d="m590.19,858.17v-.59h44.77v.59l-14.69,2.07c-.51,3.83-.95,8.99-1.3,15.49-.36,6.5-.53,12.17-.53,17.03v25.47c0,6.12.32,12.5.95,19.13,6.75,2.13,13.72,3.2,20.91,3.2,3.47,0,6.67-.2,9.59-.59,2.92-.39,4.97-.77,6.16-1.13l6.16-16.17h.89l-2.78,21.62h-70.24v-.59l14.15-2.07c.47-1.9.88-5.27,1.21-10.13.33-4.86.6-9.87.8-15.04.2-5.17.3-8.82.3-10.96v-14.92c0-3.28-.08-7.04-.24-11.28-.16-4.24-.35-7.97-.56-11.16-.22-3.2-.5-5.82-.86-7.88l-14.69-2.07Zm17.95,1.6v82.21h4.15v-82.21h-4.15Z"/><path d="m1070.49,397.79v-17.2h4.53l3.57,6.31c1.03,1.8,2.04,3.96,2.81,5.9h.07c-.24-2.28-.31-4.59-.31-7.19v-5.01h3.57v17.2h-4.07l-3.69-6.62c-1.03-1.86-2.15-4.06-2.99-6.07h-.08c.12,2.29.17,4.72.17,7.53v5.17h-3.57Z"/><path d="m1103.82,389.02c0,5.64-3.41,9.05-8.43,9.05s-8.1-3.86-8.1-8.76,3.31-9,8.37-9,8.16,3.95,8.16,8.71Zm-12.42.22c0,3.37,1.59,5.74,4.18,5.74s4.13-2.48,4.13-5.83c0-3.1-1.46-5.75-4.14-5.75s-4.17,2.49-4.17,5.83Z"/><path d="m1111.53,380.83c1.25-.21,3.1-.37,5.17-.37,2.55,0,4.34.39,5.56,1.36,1.03.81,1.59,2.02,1.59,3.6,0,2.18-1.56,3.7-3.04,4.23v.08c1.19.48,1.86,1.62,2.3,3.2.53,1.95,1.05,4.19,1.39,4.85h-3.98c-.26-.5-.69-1.88-1.18-4.01-.48-2.15-1.2-2.72-2.8-2.74h-1.16v6.75h-3.85v-16.96Zm3.85,7.39h1.52c1.93,0,3.08-.98,3.08-2.48,0-1.57-1.08-2.38-2.86-2.39-.93,0-1.48.06-1.75.13v4.74Z"/><path d="m1130.39,380.59v9.89c0,2.97,1.14,4.49,3.12,4.49s3.16-1.44,3.16-4.49v-9.89h3.89v9.65c0,5.31-2.68,7.83-7.18,7.83s-6.87-2.41-6.87-7.87v-9.6h3.89Z"/><path d="m1143.93,397.79v-17.2h4.53l3.57,6.31c1.03,1.8,2.04,3.96,2.81,5.9h.07c-.24-2.28-.31-4.59-.31-7.19v-5.01h3.57v17.2h-4.07l-3.69-6.62c-1.03-1.86-2.15-4.06-2.99-6.07h-.08c.12,2.29.17,4.72.17,7.53v5.17h-3.57Z"/><path d="m1161.53,397.79v-17.2h4.53l3.57,6.31c1.03,1.8,2.04,3.96,2.81,5.9h.07c-.24-2.28-.31-4.59-.31-7.19v-5.01h3.57v17.2h-4.07l-3.69-6.62c-1.03-1.86-2.15-4.06-2.99-6.07h-.08c.12,2.29.17,4.72.17,7.53v5.17h-3.57Z"/><path d="m1183.02,380.59v17.2h-3.89v-17.2h3.89Z"/><path d="m1186.4,397.79v-17.2h4.53l3.57,6.31c1.03,1.8,2.04,3.96,2.81,5.9h.07c-.24-2.28-.31-4.59-.31-7.19v-5.01h3.57v17.2h-4.07l-3.69-6.62c-1.03-1.86-2.15-4.06-2.99-6.07h-.08c.12,2.29.17,4.72.17,7.53v5.17h-3.57Z"/><path d="m1218.35,396.99c-1.21.42-3.47.97-5.74.97-3.14,0-5.41-.79-6.99-2.31-1.58-1.49-2.44-3.73-2.43-6.26.02-5.72,4.19-8.97,9.82-8.97,2.22,0,3.93.42,4.78.83l-.81,3.12c-.95-.41-2.11-.73-4-.73-3.24,0-5.71,1.82-5.71,5.56s2.24,5.63,5.42,5.63c.88,0,1.59-.1,1.9-.24v-3.61h-2.66v-3.03h6.42v9.06Z"/><circle class="cls-6" cx="1144" cy="242.07" r="85"/><circle class="cls-11" cx="1148.5" cy="191.57" r="15"/><path class="cls-11" d="m1194.5,237.57c-.16,2.72-2.16,5.17-5,6h-21l-9-9v20l15,15,3,36c1.43,5.49-1.68,10.31-5,11-3.51.73-8.65-2.88-9-9-1-8.67-2-17.33-3-26-3.33-5.67-6.67-11.33-10-17l-12,24c-11,1.33-22,2.67-33,4-3.97-.89-6.82-4.24-7-8-.21-4.37,3.24-8.45,8-9,5.67-1,11.33-2,17-3,3-6.67,6-13.33,9-20-.33-10-.67-20-1-30-2.33,1.33-4.67,2.67-7,4-.33,5.33-.67,10.67-1,16-.48,3.65-3.69,6.23-7,6-3.69-.25-6.68-3.93-6-8,1.33-7,2.67-14,4-21l15-9h29c4.33,6.33,8.67,12.67,13,19,5.67.33,11.33.67,17,1,3.64.56,6.19,3.7,6,7Z"/><path class="cls-17" d="m1144.25,144.32c-24.04,0-46.04,8.69-63.03,23.13-21.09,17.86-34.47,44.55-34.47,74.37,0,53.85,43.65,97.5,97.5,97.5,29.82,0,56.51-13.38,74.37-34.47,14.44-16.99,23.13-38.99,23.13-63.03,0-53.85-43.65-97.5-97.5-97.5Zm0,182.5c-46.94,0-85-38.06-85-85,0-22.66,8.86-43.25,23.32-58.48l120.16,120.16c-15.23,14.46-35.82,23.32-58.48,23.32Zm65.5-30.84l-119.66-119.66c14.71-12.19,33.58-19.5,54.16-19.5,46.94,0,85,38.06,85,85,0,20.58-7.31,39.45-19.5,54.16Z"/><path class="cls-13" d="m1082.57,183.34l120.16,120.16c-15.23,14.46-35.82,23.32-58.48,23.32-46.94,0-85-38.06-85-85,0-22.66,8.86-43.25,23.32-58.48Z"/><path class="cls-13" d="m1229.25,241.82c0,20.58-7.31,39.45-19.5,54.16l-119.66-119.66c14.71-12.19,33.58-19.5,54.16-19.5,46.94,0,85,38.06,85,85Z"/><line class="cls-12" x1="1218.64" y1="304.87" x2="1218.62" y2="304.85"/><line class="cls-12" x1="1081.22" y1="167.45" x2="1081.21" y2="167.44"/><circle class="cls-6" cx="1529.54" cy="241.09" r="85"/><path class="cls-10" d="m1569.44,226.79c-5.33-10.07-10.66-20.14-15.99-30.21-.29-.51-1.12-1.78-2.75-2.59-1.46-.72-2.8-.69-3.39-.64h-36.36c-.56.04-2.14.23-3.55,1.45-.94.81-1.4,1.74-1.62,2.26-5.22,9.75-10.45,19.5-15.67,29.25-.24.44-.93,1.86-.65,3.71.27,1.76,1.26,2.87,1.62,3.24,4.25,4.79,8.51,9.58,12.76,14.38.4.52,1.22,1.46,2.59,2.1,1.94.9,3.73.61,4.36.48v63.01c.11,3.86,3.3,6.95,7.11,6.95s6.92-3,7.11-6.78v-56.39h1.78v28.92c.17,1.36,1.38,2.35,2.74,2.26,1.35-.09,2.42-1.23,2.42-2.58v-28.76h1.95v56.06c0,2.81,3.5,7.37,6.94,7.43,4.14.08,7.07-6.77,7.27-7.27-.05-21.06-.1-42.11-.16-63.17.51.22,1.56.6,2.91.48,1.67-.14,2.8-.95,3.23-1.29,4.74-5.28,9.48-10.56,14.22-15.83.41-.62,1.07-1.78,1.29-3.4.19-1.31.01-2.4-.16-3.07Zm-58.85,8.63l-6.62-7.51,6.62-12.92v20.43Zm37.49,0v-20.43l6.62,12.92-6.62,7.51Z"/><circle class="cls-16" cx="1529.42" cy="176.46" r="14.62"/><polygon class="cls-7" points="1510.59 214.99 1510.59 235.42 1503.97 227.91 1510.59 214.99"/><polygon class="cls-7" points="1554.7 227.91 1548.08 235.42 1548.08 214.99 1554.7 227.91"/><path class="cls-17" d="m1529.54,143.59c-24.04,0-46.04,8.69-63.03,23.13-21.09,17.86-34.47,44.55-34.47,74.37,0,53.85,43.65,97.5,97.5,97.5,29.82,0,56.51-13.38,74.37-34.47,14.44-16.99,23.13-38.99,23.13-63.03,0-53.85-43.65-97.5-97.5-97.5Zm0,182.5c-46.94,0-85-38.06-85-85,0-22.66,8.86-43.25,23.32-58.48l120.16,120.16c-15.23,14.46-35.82,23.32-58.48,23.32Zm65.5-30.84l-119.66-119.66c14.71-12.19,33.58-19.5,54.16-19.5,46.94,0,85,38.06,85,85,0,20.58-7.31,39.45-19.5,54.16Z"/><path class="cls-13" d="m1467.86,182.61l120.16,120.16c-15.23,14.46-35.82,23.32-58.48,23.32-46.94,0-85-38.06-85-85,0-22.66,8.86-43.25,23.32-58.48Z"/><path class="cls-13" d="m1614.54,241.09c0,20.58-7.31,39.45-19.5,54.16l-119.66-119.66c14.71-12.19,33.58-19.5,54.16-19.5,46.94,0,85,38.06,85,85Z"/><line class="cls-12" x1="1603.93" y1="304.14" x2="1603.91" y2="304.12"/><line class="cls-12" x1="1466.51" y1="166.72" x2="1466.5" y2="166.71"/><path d="m1465.93,398.51v-17.2h4.53l3.57,6.31c1.03,1.8,2.03,3.96,2.81,5.9h.07c-.24-2.28-.31-4.59-.31-7.19v-5.01h3.57v17.2h-4.07l-3.69-6.62c-1.03-1.86-2.15-4.06-2.99-6.07h-.08c.12,2.29.17,4.72.17,7.53v5.17h-3.57Z"/><path d="m1499.26,389.74c0,5.64-3.41,9.05-8.43,9.05s-8.1-3.86-8.1-8.76,3.31-9,8.37-9,8.16,3.95,8.16,8.71Zm-12.42.22c0,3.37,1.59,5.74,4.18,5.74s4.13-2.48,4.13-5.83c0-3.1-1.47-5.75-4.14-5.75s-4.17,2.49-4.17,5.83Z"/><path d="m1506.97,398.51v-17.2h4.53l3.57,6.31c1.03,1.8,2.04,3.96,2.81,5.9h.07c-.24-2.28-.31-4.59-.31-7.19v-5.01h3.57v17.2h-4.07l-3.69-6.62c-1.03-1.86-2.15-4.06-2.99-6.07h-.08c.12,2.29.17,4.72.17,7.53v5.17h-3.57Z"/><path d="m1528.44,381.32v9.89c0,2.97,1.14,4.49,3.12,4.49s3.16-1.44,3.16-4.49v-9.89h3.89v9.65c0,5.31-2.68,7.83-7.18,7.83s-6.87-2.41-6.87-7.87v-9.6h3.89Z"/><path d="m1541.97,381.55c1.43-.23,3.29-.37,5.24-.37,3.26,0,5.39.6,7.04,1.85,1.79,1.33,2.91,3.43,2.91,6.47,0,3.3-1.19,5.57-2.84,6.97-1.81,1.51-4.58,2.23-7.93,2.23-2.02,0-3.46-.12-4.42-.25v-16.89Zm3.88,14.03c.34.06.88.07,1.36.07,3.52.03,5.84-1.92,5.84-6.03,0-3.57-2.08-5.45-5.43-5.45-.85,0-1.42.07-1.77.15v11.26Z"/><path d="m1563.61,381.32v17.2h-3.89v-17.2h3.89Z"/><path d="m1570.31,384.58h-4.64v-3.26h13.23v3.26h-4.71v13.93h-3.89v-13.93Z"/><path d="m1585.11,398.51v-7.05l-5.43-10.15h4.45l1.75,4.14c.53,1.24.9,2.16,1.33,3.29h.05c.38-1.07.8-2.08,1.3-3.3l1.73-4.13h4.38l-5.67,10.02v7.18h-3.89Z"/></g></svg>