<?xml version="1.0" encoding="UTF-8"?><svg id="Layer_1" xmlns="http://www.w3.org/2000/svg" width="250" height="70" viewBox="0 0 250 70"><defs><style>.cls-1{fill:#00b09d;}.cls-2{fill:none;stroke:#000;stroke-miterlimit:10;stroke-width:5px;}</style></defs><path class="cls-2" d="m-.74,59.87c16.31.39,32.68-6.07,44.17-17.43C54.92,31.09,61.37,14.99,60.84-1.01c4.23,19.93,16.84,38.31,34.86,48.42,18.02,10.1,41.31,11.26,59.65,1.71,18.33-9.55,30.58-29.99,28.78-50.27,7.3,30.8,34.65,56.06,66.44,61.35"/><path class="cls-1" d="m250.8,60.98c-31.78-5.13-59.14-29.58-66.44-59.4,1.8,19.63-10.45,39.42-28.78,48.67s-41.62,8.13-59.65-1.66c-18.02-9.78-30.62-27.58-34.86-46.87.53,15.48-5.92,31.07-17.41,42.07C32.18,54.79,15.82,61.04-.49,60.66v10.78h251.3v-10.47Z"/></svg>