<?xml version="1.0" encoding="UTF-8"?><svg id="Layer_1" xmlns="http://www.w3.org/2000/svg" width="1920" height="1080" viewBox="0 0 1920 1080"><defs><style>.cls-1{fill:#fff;}.cls-2{fill:#d4145a;}.cls-3{fill:#b1ffff;}.cls-4{fill:#29abe2;}.cls-5{fill:#ff0;}</style></defs><rect class="cls-3" x="-1" width="1921" height="1080"/><path d="m929.32,97.26c-1.99-1.41-4.58-2.99,0,0h0Z"/><path d="m969.84,58.81c-24.2-19.92-52.38-34.53-83.2-41.01-30.99-6.52-63.5-6.26-94.07,2.45-17.3,4.93-33.56,12.94-50.02,20.1-9.8,3.99-19.78,7.41-30.2,9.3-7.07.64-14.14.55-21.2-.16-30.19-5.06-57.8-19.36-86.39-29.65-34.37-12.38-71.67-17.43-106.97-5.43-21.44,7.29-41.01,19-57,35.1-10.26,10.34-11.1,29.15,0,39.34,11.07,10.16,28.38,11.03,39.34,0,2.47-2.48,5.01-4.88,7.69-7.13.28-.24.57-.47.86-.7,1.23-.87,2.45-1.75,3.71-2.58,5.02-3.34,10.29-6.22,15.75-8.75,7.26-2.76,14.72-4.82,22.38-6.15,7.77-.75,15.54-.69,23.32.08,28.27,4.69,54.34,17.34,80.95,27.46,31.68,12.05,65.05,18.92,98.65,10.94,18.94-4.5,36.57-13.42,54.37-21.18,12.31-4.98,24.84-8.81,37.94-10.98,12.43-1.36,24.93-1.33,37.36.02,12.49,2,24.68,5.31,36.45,9.95,5.88,2.66,11.63,5.6,17.17,8.92,3.09,1.86,6.12,3.81,9.08,5.88,1.57,1.1,3.07,2.35,4.67,3.39-.43-.28-.81-.53-1.15-.75.46.32.88.64,1.18.88,5.85,4.82,11.81,8.15,19.67,8.15,6.82,0,14.97-3.03,19.67-8.15,9.38-10.22,12-29.46,0-39.34Z"/><path d="m471.5,163.74c-1.8.9-5.07,2.98,0,0h0Z"/><path d="m772,164.44c-9.7-12.66-25.38-14.84-38.74-6.83-.65.39-1.31.76-1.96,1.14-2,.9-3.98,1.82-6.02,2.62-3.23,1.26-6.52,2.31-9.86,3.21-6,1.1-12.05,1.66-18.15,1.69-5.93-.49-11.77-1.5-17.52-3.05-6.99-2.61-13.58-6-19.94-9.9-25.08-16.91-47.37-37.5-76.59-47.35-29.87-10.07-61.99-13.33-93.01-6.64-19.43,4.19-36.91,10.78-54.14,20.79-5.85,3.4-10.31,11.53-11.44,17.96s.38,15.27,4.61,20.79c9.8,12.8,25.27,14.66,38.74,6.83,1.64-.95,3.33-1.81,4.96-2.78-.53.32-1,.59-1.41.83.06-.03.12-.06.18-.09,3.2-1.53,6.45-2.94,9.76-4.22,5.29-2.05,10.7-3.74,16.19-5.15,10.55-2.1,21.25-3.08,32.01-2.95,10.6.74,21.05,2.54,31.26,5.46,9.47,3.34,18.5,7.62,27.08,12.84,11.03,7.5,21.35,15.97,32.26,23.65,15.55,10.95,30.96,19.45,49.32,24.6,32.21,9.04,67.31,2.26,95.61-14.71,12.52-7.51,15.53-27.39,6.83-38.74Z"/><path d="m857.79,406.24c-1.39-2.01-3.28-4.37,0,0h0Z"/><path d="m909.02,383.96c-15.93-27-37.41-50.36-64.16-67-26.89-16.73-57.53-27.6-89.23-29.87-17.94-1.28-35.96.68-53.88,1.78-10.57.4-21.12.2-31.56-1.59-6.86-1.82-13.47-4.32-19.87-7.4-26.64-15.08-47.69-37.96-71.04-57.41-28.07-23.39-61.39-40.9-98.66-41.69-22.64-.48-45.03,3.82-65.57,13.49-13.18,6.2-20.4,23.6-13.45,36.97,6.93,13.34,22.9,20.08,36.97,13.45,3.17-1.49,6.38-2.87,9.67-4.07.35-.13.7-.24,1.04-.37,1.45-.4,2.9-.8,4.36-1.16,5.86-1.42,11.8-2.33,17.79-2.83,7.77-.11,15.48.51,23.13,1.87,7.56,1.96,14.84,4.67,21.89,8.06,24.96,14.08,45.13,34.88,66.67,53.49,25.65,22.16,54.65,40.03,88.96,44.02,19.34,2.25,38.96-.1,58.33-1.31,13.27-.46,26.35.21,39.41,2.66,12.15,2.98,23.88,7.28,35.1,12.8,11.05,6.15,21.38,13.44,30.85,21.81,4.62,4.51,9.01,9.24,13.08,14.26,2.27,2.8,4.45,5.68,6.52,8.63,1.1,1.57,2.08,3.26,3.23,4.78-.31-.41-.58-.77-.83-1.1.32.46.61.9.81,1.24,3.85,6.53,8.32,11.7,15.7,14.38,6.41,2.33,15.11,2.27,21.27-.93,12.31-6.4,21.35-23.58,13.45-36.97Z"/><path d="m403.22,316.1c-2,.23-5.79,1.06,0,0h0Z"/><path d="m685.36,419.53c-4.78-15.22-18.78-22.63-34.07-19.67-.74.14-1.49.27-2.24.4-2.18.16-4.36.35-6.55.4-3.46.08-6.91-.06-10.36-.36-6.02-1.02-11.9-2.56-17.64-4.62-5.4-2.49-10.55-5.44-15.42-8.86-5.67-4.84-10.71-10.29-15.36-16.12-17.78-24.47-31.69-51.44-55.78-70.69-24.63-19.68-53.69-33.73-85.13-38.06-19.69-2.71-38.37-2.5-57.99,1.02-6.66,1.19-13.63,7.31-16.89,12.96s-4.86,14.48-2.78,21.11c4.83,15.38,18.73,22.42,34.07,19.67,1.86-.33,3.75-.56,5.61-.91-.61.11-1.14.21-1.61.3.07,0,.13-.01.2-.02,3.53-.35,7.07-.55,10.61-.63,5.67-.12,11.33.15,16.98.7,10.63,1.63,21.02,4.37,31.08,8.18,9.71,4.32,18.91,9.59,27.51,15.82,7.76,6.37,14.77,13.49,21.05,21.33,7.8,10.82,14.6,22.31,22.22,33.26,10.86,15.61,22.44,28.86,37.93,39.98,27.18,19.51,62.48,25.14,94.88,18.88,14.34-2.77,23.96-20.42,19.67-34.07Z"/><path d="m681.56,674.9c-.62-2.36-1.59-5.23,0,0h0Z"/><path d="m737.32,671.49c-5.73-30.82-17.93-60.12-37.38-84.9-19.55-24.92-44.62-45.62-73.64-58.59-16.42-7.34-34.02-11.66-51.24-16.76-10.07-3.24-19.92-7.04-29.11-12.29-5.83-4.05-11.18-8.67-16.14-13.75-19.87-23.29-31.83-51.98-47.12-78.25-18.38-31.57-43.7-59.42-78.45-72.92-21.11-8.2-43.63-11.81-66.23-9.75-14.51,1.32-27.24,15.2-25.29,30.13,1.95,14.9,14.65,26.7,30.13,25.29,3.49-.32,6.98-.51,10.48-.52.37,0,.74.01,1.11.01,1.5.13,3,.24,4.5.41,5.99.67,11.88,1.85,17.69,3.42,7.34,2.55,14.37,5.77,21.09,9.67,6.43,4.43,12.35,9.46,17.81,15.06,18.64,21.77,30.48,48.21,44.36,73.07,16.52,29.6,37.67,56.31,68.54,71.8,17.4,8.73,36.64,13.23,55.26,18.72,12.63,4.1,24.69,9.22,36.13,15.98,10.4,6.95,19.95,15,28.61,24.03,8.28,9.56,15.49,19.94,21.53,31.05,2.8,5.82,5.31,11.76,7.42,17.87,1.18,3.41,2.24,6.86,3.18,10.34.5,1.85.84,3.77,1.4,5.6-.15-.49-.28-.92-.4-1.32.14.54.27,1.05.34,1.44,1.39,7.45,3.81,13.84,9.83,18.88,5.23,4.39,13.42,7.3,20.3,6.4,13.76-1.8,28.13-14.86,25.29-30.13Z"/><path d="m283.97,431.27c-1.96-.47-5.8-.98,0,0h0Z"/><path d="m513.72,624.96c.71-15.94-9.91-27.68-25.29-30.13-.75-.12-1.49-.25-2.24-.39-2.11-.59-4.22-1.16-6.3-1.87-3.28-1.11-6.48-2.42-9.61-3.88-5.31-3.01-10.3-6.47-14.99-10.38-4.23-4.19-8.05-8.72-11.46-13.6-3.68-6.49-6.55-13.33-8.92-20.4-8.34-29.07-12.18-59.17-28.24-85.51-16.41-26.92-38.92-50.06-66.98-64.88-17.58-9.28-35.2-15.47-54.84-18.87-6.67-1.16-15.3,2.21-20.3,6.4s-9.52,11.95-9.83,18.88c-.72,16.11,9.93,27.47,25.29,30.13,1.86.32,3.72.75,5.58,1.06-.61-.1-1.14-.19-1.62-.27.07.02.13.03.19.05,3.43.88,6.83,1.9,10.19,3.04,5.37,1.83,10.6,4.02,15.71,6.47,9.43,5.17,18.26,11.3,26.41,18.32,7.65,7.38,14.49,15.48,20.44,24.27,5.11,8.64,9.27,17.73,12.49,27.24,3.63,12.83,6.09,25.96,9.51,38.85,4.87,18.38,11.22,34.8,21.97,50.54,18.86,27.63,50.11,45,82.7,50.19,14.42,2.3,29.5-11,30.13-25.29Z"/><path d="m427.23,862.33c.22-2.43.3-5.46,0,0h0Z"/><path d="m480.79,878.2c5.15-30.92,3.71-62.63-6.09-92.56-9.85-30.1-26.33-58.13-49.16-80.24-12.92-12.52-27.98-22.59-42.42-33.27-8.35-6.49-16.31-13.43-23.15-21.51-4.09-5.8-7.54-11.97-10.46-18.44-10.71-28.68-12.13-59.73-17.51-89.64-6.47-35.96-20.74-70.79-48.78-95.35-17.03-14.92-36.96-26.02-58.9-31.81-14.09-3.72-30.79,4.96-34.07,19.67-3.27,14.67,4.64,30.1,19.67,34.07,3.38.89,6.73,1.9,10.02,3.1.35.13.69.26,1.04.39,1.37.63,2.74,1.25,4.09,1.92,5.4,2.68,10.54,5.8,15.45,9.27,6.02,4.9,11.53,10.34,16.51,16.3,4.53,6.36,8.37,13.11,11.59,20.24,10.07,26.83,12.16,55.73,16.69,83.83,5.4,33.46,16.14,65.8,39.85,90.91,13.37,14.16,29.91,24.96,45.53,36.49,10.47,8.18,20.05,17.1,28.48,27.37,7.39,10.09,13.61,20.92,18.66,32.37,4.51,11.81,7.74,24.03,9.61,36.54.64,6.42.97,12.87.86,19.33-.06,3.61-.24,7.21-.55,10.8-.16,1.91-.5,3.83-.6,5.74.03-.51.05-.96.07-1.37-.05.56-.11,1.08-.17,1.47-1.25,7.48-1.15,14.31,2.78,21.11,3.41,5.91,10.11,11.45,16.89,12.96,13.54,3.01,31.51-4.34,34.07-19.67Z"/><path d="m122.84,501.55c-1.68-1.11-5.12-2.9,0,0h0Z"/><path d="m272.48,762.13c6.12-14.73.16-29.4-13.45-36.97-.66-.37-1.32-.75-1.97-1.13-1.78-1.28-3.56-2.53-5.28-3.91-2.7-2.16-5.26-4.49-7.7-6.93-3.96-4.65-7.47-9.61-10.54-14.88-2.54-5.38-4.59-10.95-6.12-16.7-1.23-7.35-1.59-14.77-1.4-22.22,2.11-30.17,8.79-59.77,2.71-90.01-6.21-30.91-19.45-60.35-40.75-83.87-13.34-14.73-27.79-26.58-45.08-36.49-5.87-3.37-15.14-3.16-21.27-.93s-13.03,7.97-15.7,14.38c-6.18,14.89-.06,29.21,13.45,36.97,1.64.94,3.24,1.98,4.88,2.91-.54-.3-1.01-.57-1.43-.81.06.04.11.08.17.11,2.93,2,5.77,4.12,8.53,6.34,4.42,3.56,8.59,7.4,12.55,11.45,7.1,8.09,13.29,16.86,18.56,26.24,4.66,9.55,8.33,19.5,10.91,29.8,1.85,9.87,2.65,19.83,2.42,29.87-.98,13.3-3.15,26.48-4.35,39.76-1.71,18.94-1.36,36.53,3.36,55.01,8.28,32.42,31.7,59.42,60.54,75.45,12.76,7.09,31.48-.25,36.97-13.45Z"/><path d="m100.28,950.22c1.04-2.21,2.15-5.03,0,0h0Z"/><path d="m145.19,983.45c15.42-27.29,24.91-57.58,25.94-89.06,1.04-31.65-4.86-63.63-18.75-92.21-7.86-16.18-18.57-30.8-28.48-45.77-5.63-8.96-10.73-18.19-14.4-28.13-1.86-6.85-3-13.83-3.53-20.9-.26-30.61,9.03-60.28,14.2-90.23,6.22-36,4.72-73.61-13.22-106.29-10.9-19.85-25.83-37.09-44.47-50.04-11.96-8.31-30.63-5.87-38.74,6.83-8.09,12.67-5.94,29.87,6.83,38.74,2.87,2,5.67,4.09,8.36,6.34.28.24.56.48.84.72,1.07,1.06,2.15,2.11,3.18,3.2,4.16,4.36,7.92,9.05,11.35,13.99,3.98,6.67,7.3,13.66,9.94,20.97,2.08,7.53,3.38,15.19,3.97,22.98.29,28.65-7.64,56.53-12.99,84.48-6.37,33.29-7.34,67.35,6.35,99.05,7.72,17.87,19.57,33.69,30.3,49.86,7.04,11.26,12.99,22.93,17.41,35.46,3.5,12.01,5.64,24.32,6.47,36.8.2,12.65-.95,25.23-3.47,37.62-1.59,6.26-3.49,12.42-5.81,18.46-1.29,3.37-2.69,6.69-4.21,9.96-.81,1.74-1.78,3.43-2.53,5.19.2-.47.38-.89.54-1.26-.24.51-.47.98-.67,1.32-3.73,6.6-5.97,13.05-4.61,20.79,1.18,6.72,5.58,14.22,11.44,17.96,11.69,7.46,31.1,6.7,38.74-6.83Z"/><path class="cls-2" d="m1737.97,140.44l-47.2,47.2c-60.31-60.31-143.61-97.6-235.64-97.6V23.28c110.46,0,210.46,44.77,282.84,117.16Z"/><path class="cls-2" d="m1855.13,423.28c0,110.45-44.77,210.45-117.16,282.84l-47.2-47.2c60.31-60.31,97.6-143.62,97.6-235.64h66.76Z"/><path class="cls-2" d="m1455.13,756.52v66.76c-110.45,0-210.46-44.77-282.85-117.15l47.21-47.21c60.31,60.31,143.61,97.6,235.64,97.6Z"/><path class="cls-2" d="m1219.49,187.64c-60.31,60.31-97.6,143.62-97.6,235.64h-66.76c0-110.46,44.77-210.46,117.15-282.85l47.21,47.21Z"/><path class="cls-1" d="m1855.13,423.28h-66.76c0-92.02-37.3-175.33-97.6-235.64l47.2-47.2c72.39,72.39,117.16,172.38,117.16,282.84Z"/><path class="cls-1" d="m1737.97,706.12h0c-72.38,72.39-172.38,117.16-282.84,117.16v-66.76c92.03,0,175.33-37.3,235.64-97.6l47.2,47.2Z"/><path class="cls-1" d="m1219.49,658.92l-47.21,47.21c-72.38-72.39-117.15-172.38-117.15-282.85h66.76c0,92.02,37.3,175.33,97.6,235.64Z"/><path class="cls-1" d="m1455.13,23.28v66.76c-92.03,0-175.33,37.3-235.64,97.6l-47.21-47.21c72.39-72.38,172.39-117.15,282.85-117.15Z"/><path class="cls-4" d="m1788.37,423.28c0,92.02-37.3,175.33-97.6,235.64-60.31,60.31-143.61,97.6-235.64,97.6s-175.33-37.3-235.64-97.6c-60.31-60.31-97.6-143.62-97.6-235.64s37.3-175.33,97.6-235.64c60.31-60.31,143.61-97.6,235.64-97.6s175.33,37.3,235.64,97.6c60.31,60.31,97.6,143.62,97.6,235.64Z"/><path d="m1367.91,332.07c-7.25,8.98-20.56,16.48-39.93,22.49-6.88,19.7-15.31,34.23-25.3,43.57-9.99,9.34-20.38,14.02-31.16,14.02-5.5,0-9.92-1.5-13.25-4.51-3.33-3.01-5-6.97-5-11.9,0-15.58,15.36-28.72,46.07-39.44l2.5-10.21c7.17-29.19,11.63-46.61,13.37-52.26l6.19-20.75c-.8,1.52-2.5,5.18-5.11,10.97-12.53,28.11-23.69,47.32-33.47,57.64-9.78,10.32-19.42,15.48-28.9,15.48-7.25,0-13.13-2.83-17.66-8.48-4.53-5.65-6.79-13.04-6.79-22.17,0-11.44,4.07-28.9,12.22-52.37,8.15-23.47,12.22-39.12,12.22-46.94,0-4.78-1.25-8.75-3.75-11.9-2.5-3.15-5.67-4.73-9.51-4.73-5.94,0-11.52,3.3-16.73,9.89-5.22,6.59-7.82,13.66-7.82,21.19,0,6.88,2.46,12.46,7.39,16.73,1.74,1.59,2.61,2.86,2.61,3.8,0,2.17-1.43,5.16-4.29,8.96-2.86,3.8-5.71,5.7-8.53,5.7-3.04,0-5.96-2.14-8.75-6.41-2.79-4.27-4.18-8.8-4.18-13.58,0-12.82,4.71-25.43,14.13-37.81,9.42-12.39,20.65-18.58,33.69-18.58,9.27,0,16.86,3.64,22.77,10.91,5.9,7.27,8.86,16.7,8.86,28.28-.08,13.9-4.55,33.17-13.41,57.82-6.05,17.03-9.08,29.06-9.08,36.09,0,6.52,2.39,9.78,7.17,9.78,8.84,0,20.14-13.27,33.9-39.82,13.76-26.55,26.19-58.51,37.27-95.89.51-1.88,1.39-3.11,2.66-3.69,1.27-.58,5.61-1.3,13.03-2.17,7.42-.87,11.39-1.3,11.9-1.3,1.88,0,2.71.54,2.5,1.63l-5.88,23.58-16.87,73.66c-2.32,10.15-6.19,25.11-11.63,44.89,14.95-4.71,27.13-12.93,36.56-24.67v12.5Zm-71.17,33.79c-10.87,3.69-19.45,8.24-25.75,13.64-6.3,5.4-9.45,10.49-9.45,15.27,0,2.68.94,4.91,2.83,6.68,1.88,1.77,4.2,2.66,6.95,2.66,5.43,0,10.12-3.12,14.07-9.34,3.95-6.23,7.73-15.86,11.36-28.9Z"/><path d="m1451.47,202.98c-16.48,15.72-28.46,32.47-35.94,50.25-7.48,17.78-11.22,34.93-11.22,51.45,0,10.58,2.1,18.92,6.3,25.05,4.2,6.12,9.89,9.18,17.06,9.18,14.34,0,29.29-12.55,44.82-37.65s23.31-48.37,23.31-69.81c0-6.37-1.03-11.44-3.09-15.21-2.06-3.77-4.78-5.65-8.18-5.65-6.29,0-12.12,4.75-17.5,14.23-5.38,9.49-8.07,17.93-8.07,25.32,0,5.29,2.46,8.26,7.39,8.91,2.03.22,3.04,1.19,3.04,2.93,0,3.19-1.64,6.32-4.91,9.4-3.27,3.08-6.69,4.62-10.25,4.62-4.36,0-8.02-1.97-10.96-5.92-2.94-3.95-4.42-8.89-4.42-14.83,0-12.53,4.73-24.67,14.18-36.4,9.45-11.73,19.11-17.6,28.96-17.6,6.74,0,12.06,2.66,15.97,7.99s5.87,12.66,5.87,22c0,18.04-5,37.23-15,57.59-10,20.36-22.49,37.07-37.49,50.15-15,13.08-29.12,19.61-42.38,19.61-10.29,0-18.78-4.35-25.48-13.04-6.7-8.69-10.05-19.88-10.05-33.58,0-14.56,2.92-29.3,8.76-44.22,5.84-14.92,13.44-28.23,22.79-39.93,9.36-11.7,16.79-19.05,22.31-22.06,5.51-3,13.57-4.51,24.16-4.51v1.74Z"/><path d="m1682.7,331.96c-16.52,17.75-30.68,26.62-42.49,26.62-6.16,0-11.92-2.79-17.28-8.37-5.36-5.58-7.82-14.96-7.39-28.14-12.68,24.34-27.09,36.51-43.25,36.51-7.82,0-14.11-3-18.85-9.02-4.75-6.01-7.12-14.09-7.12-24.23,0-10.94,4.42-29.01,13.26-54.22,7.46-21.59,11.19-35.93,11.19-43.03,0-5.07-1.18-9.14-3.53-12.22-2.36-3.08-5.42-4.62-9.18-4.62-5.72,0-11.27,3.39-16.62,10.16-5.36,6.77-8.04,13.85-8.04,21.24,0,6.52,2.43,11.99,7.28,16.41,1.81,1.59,2.72,2.93,2.72,4.02,0,2.39-1.59,5.32-4.78,8.8-3.19,3.48-6.05,5.22-8.58,5.22-2.97,0-5.8-2.14-8.48-6.41-2.68-4.27-4.02-8.95-4.02-14.02,0-13.84,5-26.53,15-38.08,10-11.55,20.9-17.33,32.71-17.33,9.27,0,16.81,3.6,22.6,10.81,5.79,7.21,8.69,16.65,8.69,28.31.02,13.69-4.25,32.53-12.81,56.5-5.95,16.59-8.92,27.78-8.92,33.57,0,3.77.85,6.72,2.55,8.85,1.7,2.14,4.04,3.21,7.01,3.21,5.58,0,10.9-3.77,15.97-11.3,5.07-7.53,9.11-15.43,12.12-23.69,3.01-8.26,6.65-20.32,10.92-36.18l9.45-33.79c2.61-8.98,4.89-16.35,6.85-22.11,1.96-5.76,3.21-9.02,3.75-9.78.54-.76,1.45-1.29,2.72-1.58,1.27-.29,3.68-.65,7.24-1.09l15.56-1.74c2.25,0,3.23.51,2.94,1.54l-5.12,18.47c-4.79,17.02-9.89,37.19-15.3,60.52s-8.11,38.17-8.11,44.55c0,4.78.91,8.6,2.72,11.46,1.81,2.86,4.24,4.29,7.28,4.29,3.4,0,7.1-1.49,11.08-4.48,3.98-2.98,10.07-9.03,18.25-18.13v12.5Z"/><path d="m1300.75,588.89c-13.04,24.49-27.24,36.73-42.6,36.73-8.04,0-14.49-2.95-19.34-8.86-4.85-5.9-7.28-13.71-7.28-23.42,0-11.3,4.04-28.47,12.12-51.5,8.08-23.04,12.12-39.33,12.12-48.9,0-4.27-1.21-7.82-3.64-10.65-2.43-2.82-5.45-4.24-9.07-4.24-5.58,0-11.12,3.41-16.63,10.21-5.51,6.81-8.26,13.76-8.26,20.86,0,5.43,2.46,11.08,7.39,16.95,2.03,2.46,3.04,4.17,3.04,5.11,0,1.09-1.56,3.51-4.67,7.28-3.12,3.77-5.8,5.65-8.04,5.65-2.39,0-5.11-1.74-8.15-5.22-3.04-3.48-4.56-8.66-4.56-15.54,0-13.98,4.91-26.69,14.72-38.14,9.82-11.44,20.66-17.17,32.54-17.17,8.91,0,16.44,3.69,22.6,11.07s9.24,16.57,9.24,27.57c-.11,11.58-3.86,27.97-11.25,49.17-7.4,21.2-11.07,35.39-11.03,42.57,0,3.41.87,6.11,2.61,8.1,1.74,1.99,4.06,2.99,6.96,2.99,6.3,0,12.57-5.14,18.8-15.43,6.23-10.29,11.92-25.03,17.06-44.22l10.21-38.25c3.98-15.07,8.43-28.21,13.36-39.44.51-1.23,3.89-2.19,10.15-2.88,6.26-.69,10.8-1.03,13.63-1.03s4.24.58,4.24,1.73l-19.92,75.84c-5.68,22.25-8.53,38.51-8.53,48.8,0,4.49.94,8.06,2.83,10.71,1.88,2.65,4.42,3.97,7.61,3.97,4.71,0,11.14-3.86,19.29-11.57,8.15-7.71,15.01-17.56,20.59-29.55,5.58-11.99,8.37-24.25,8.37-36.78,0-13.4-3.26-26.73-9.78-39.99-1.81-3.84-2.72-6.23-2.72-7.17,0-3.11,2.99-6.56,8.96-10.32,5.98-3.77,10.27-5.65,12.88-5.65,2.46,0,4.94,3.28,7.44,9.83,2.5,6.56,3.75,13.42,3.75,20.59,0,19.05-4.46,38.56-13.37,58.51-8.91,19.96-19.99,36.35-33.25,49.17-13.26,12.82-25.25,19.23-35.97,19.23-7.61,0-13.64-3.06-18.09-9.18-4.46-6.12-6.57-15.3-6.36-27.54Z"/><path d="m1495.58,470.02c-16.48,15.72-28.46,32.47-35.94,50.25-7.48,17.78-11.22,34.93-11.22,51.45,0,10.58,2.1,18.93,6.3,25.05,4.2,6.12,9.89,9.18,17.06,9.18,14.34,0,29.29-12.55,44.82-37.65,15.54-25.1,23.31-48.37,23.31-69.81,0-6.37-1.03-11.44-3.09-15.21-2.06-3.77-4.78-5.65-8.18-5.65-6.29,0-12.12,4.75-17.5,14.23-5.38,9.49-8.07,17.93-8.07,25.32,0,5.29,2.46,8.26,7.39,8.91,2.03.22,3.04,1.19,3.04,2.93,0,3.19-1.64,6.32-4.91,9.4-3.27,3.08-6.69,4.62-10.25,4.62-4.36,0-8.02-1.97-10.96-5.92-2.94-3.95-4.42-8.89-4.42-14.83,0-12.53,4.73-24.67,14.18-36.4,9.45-11.73,19.11-17.6,28.96-17.6,6.74,0,12.06,2.66,15.97,7.99s5.87,12.66,5.87,22c0,18.04-5,37.23-15,57.59s-22.49,37.07-37.49,50.15c-15,13.08-29.12,19.61-42.38,19.61-10.29,0-18.78-4.35-25.48-13.04-6.7-8.69-10.05-19.88-10.05-33.58,0-14.56,2.92-29.3,8.76-44.22,5.84-14.92,13.44-28.23,22.79-39.93,9.36-11.7,16.79-19.05,22.31-22.06,5.51-3,13.57-4.51,24.16-4.51v1.74Z"/><path d="m1653.96,593.13c6.08-15.5,12.01-38.07,17.81-67.69,4.05-21.59,8.79-36.51,14.22-44.77,5.43-8.26,11.8-12.39,19.11-12.39,5.93,0,8.9,3.41,8.9,10.21,0,3.91-.74,6.68-2.23,8.31s-4.54,2.77-9.17,3.42c-4.63.65-8.79,3.22-12.48,7.71-3.69,4.49-7.09,13.76-10.21,27.82l-7.93,36.18c-2.82,12.53-6.01,23.47-9.56,32.82s-6.51,16.26-8.9,20.75c-2.39,4.49-3.95,6.99-4.67,7.5-.72.51-2.54.9-5.43,1.2l-11.74,1.41c-2.75.14-4.26-.4-4.51-1.63-.25-1.23-.62-5.9-1.09-14.01-.47-8.11-1-14.18-1.58-18.2-.58-4.02-2.68-14.98-6.3-32.87-3.62-17.89-6.05-35.97-7.28-54.22-.51.29-3.53,10.56-9.08,30.8-5.54,20.25-9.35,33.79-11.42,40.64-2.07,6.84-4.95,14.16-8.64,21.95-3.7,7.79-8.45,14.33-14.24,19.61-5.8,5.29-12.69,7.93-20.66,7.93-6.96,0-12.56-2.19-16.8-6.57-4.24-4.38-6.36-8.46-6.36-12.22,0-2.32,2.55-5.85,7.66-10.59,5.11-4.74,8.71-7.12,10.81-7.12,2.32,0,3.77,2.55,4.35,7.66.58,5.11,1.87,8.93,3.86,11.46,1.99,2.54,4.37,3.8,7.12,3.8,10.8,0,21.42-20.57,31.86-61.72l3.26-13.15c6.16-23.76,11.09-40.96,14.79-51.61l3.48-10.21c.8-2.24,1.58-3.62,2.34-4.13.76-.51,2.67-.98,5.72-1.41l11.43-1.52c1.67-.29,2.94-.43,3.81-.43,1.6,0,2.65.4,3.16,1.2.51.8.76,2.32.76,4.56-.04,15.72,2.35,36.84,7.17,63.35,4.82,26.51,7.7,45.24,8.64,56.17Z"/><path class="cls-5" d="m-1-1v416c.17,0,.33,0,.5,0,229.47,0,415.5-186.03,415.5-415.5,0-.17,0-.33,0-.5H-1Z"/></svg>